<svg width="1230" height="860" viewBox="0 0 1230 860" fill="none" xmlns="http://www.w3.org/2000/svg">
<g filter="url(#filter0_d_589_1147)">
<rect x="100" y="160" width="769" height="500" rx="60" fill="white"/>
</g>
<g filter="url(#filter1_d_589_1147)">
<rect x="140" y="100" width="929" height="620" rx="64" fill="white"/>
</g>
<g filter="url(#filter2_d_589_1147)">
<rect x="696" y="297" width="378" height="241" rx="30" fill="white"/>
</g>
<g filter="url(#filter3_d_589_1147)">
<rect x="665.469" y="241" width="439.062" height="281" rx="32" fill="white"/>
</g>
<rect opacity="0.05" x="735.719" y="476.839" width="265.946" height="10.0357" rx="5.01786" fill="#1B233D"/>
<path opacity="0.5" d="M1031.38 486.505C1030.36 486.505 1029.48 486.259 1028.74 485.768C1028.01 485.278 1027.44 484.6 1027.05 483.736C1026.65 482.862 1026.46 481.854 1026.46 480.712C1026.46 479.571 1026.65 478.568 1027.05 477.704C1027.44 476.83 1028.01 476.147 1028.74 475.656C1029.48 475.166 1030.36 474.92 1031.38 474.92C1032.41 474.92 1033.28 475.166 1034.01 475.656C1034.74 476.147 1035.31 476.83 1035.7 477.704C1036.1 478.568 1036.3 479.571 1036.3 480.712C1036.3 481.854 1036.1 482.862 1035.7 483.736C1035.31 484.6 1034.74 485.278 1034.01 485.768C1033.28 486.259 1032.41 486.505 1031.38 486.505ZM1031.38 484.568C1031.92 484.568 1032.39 484.414 1032.79 484.104C1033.21 483.784 1033.53 483.336 1033.75 482.76C1033.99 482.184 1034.1 481.502 1034.1 480.712C1034.1 479.912 1033.99 479.23 1033.75 478.664C1033.53 478.088 1033.21 477.646 1032.79 477.336C1032.39 477.027 1031.92 476.872 1031.38 476.872C1030.85 476.872 1030.38 477.027 1029.96 477.336C1029.55 477.646 1029.23 478.088 1029 478.664C1028.78 479.23 1028.66 479.912 1028.66 480.712C1028.66 481.502 1028.78 482.184 1029 482.76C1029.23 483.336 1029.55 483.784 1029.96 484.104C1030.38 484.414 1030.85 484.568 1031.38 484.568ZM1041.82 486.505C1041.09 486.505 1040.43 486.371 1039.82 486.104C1039.21 485.838 1038.72 485.432 1038.36 484.888C1038 484.344 1037.81 483.656 1037.79 482.824H1039.91C1039.92 483.176 1040 483.496 1040.15 483.784C1040.3 484.062 1040.52 484.286 1040.79 484.456C1041.08 484.616 1041.42 484.696 1041.82 484.696C1042.2 484.696 1042.52 484.622 1042.78 484.472C1043.04 484.323 1043.25 484.126 1043.39 483.88C1043.52 483.635 1043.59 483.352 1043.59 483.032C1043.59 482.659 1043.5 482.35 1043.32 482.104C1043.14 481.848 1042.88 481.656 1042.55 481.528C1042.23 481.4 1041.86 481.336 1041.43 481.336H1040.6V479.56H1041.43C1041.96 479.56 1042.4 479.438 1042.76 479.192C1043.12 478.947 1043.31 478.579 1043.31 478.089C1043.31 477.683 1043.17 477.358 1042.91 477.112C1042.64 476.867 1042.28 476.744 1041.82 476.744C1041.29 476.744 1040.89 476.894 1040.6 477.192C1040.32 477.491 1040.17 477.859 1040.14 478.296H1038.03C1038.06 477.592 1038.23 476.99 1038.55 476.488C1038.88 475.976 1039.33 475.587 1039.88 475.32C1040.44 475.054 1041.08 474.92 1041.82 474.92C1042.6 474.92 1043.25 475.059 1043.79 475.336C1044.32 475.603 1044.72 475.966 1045 476.424C1045.28 476.883 1045.42 477.379 1045.42 477.912C1045.42 478.35 1045.33 478.739 1045.16 479.08C1045 479.411 1044.78 479.688 1044.51 479.912C1044.24 480.136 1043.93 480.302 1043.59 480.408C1044.02 480.483 1044.39 480.643 1044.7 480.888C1045.02 481.134 1045.26 481.443 1045.43 481.816C1045.61 482.19 1045.71 482.622 1045.71 483.112C1045.71 483.72 1045.56 484.286 1045.26 484.808C1044.96 485.32 1044.52 485.731 1043.95 486.04C1043.37 486.35 1042.66 486.505 1041.82 486.505ZM1048.67 486.393C1048.28 486.393 1047.95 486.275 1047.7 486.04C1047.45 485.795 1047.33 485.496 1047.33 485.144C1047.33 484.792 1047.45 484.499 1047.7 484.264C1047.95 484.019 1048.28 483.896 1048.67 483.896C1049.07 483.896 1049.39 484.019 1049.63 484.264C1049.88 484.499 1050 484.792 1050 485.144C1050 485.496 1049.88 485.795 1049.63 486.04C1049.39 486.275 1049.07 486.393 1048.67 486.393ZM1048.67 480.552C1048.28 480.552 1047.95 480.435 1047.7 480.2C1047.45 479.955 1047.33 479.656 1047.33 479.304C1047.33 478.952 1047.45 478.659 1047.7 478.424C1047.95 478.179 1048.28 478.056 1048.67 478.056C1049.07 478.056 1049.39 478.179 1049.63 478.424C1049.88 478.659 1050 478.952 1050 479.304C1050 479.656 1049.88 479.955 1049.63 480.2C1049.39 480.435 1049.07 480.552 1048.67 480.552ZM1055.81 486.505C1055 486.505 1054.29 486.36 1053.7 486.072C1053.11 485.784 1052.65 485.39 1052.31 484.888C1051.97 484.387 1051.78 483.816 1051.73 483.176H1053.84C1053.93 483.592 1054.15 483.944 1054.5 484.232C1054.85 484.52 1055.29 484.664 1055.83 484.664C1056.21 484.664 1056.55 484.568 1056.83 484.376C1057.12 484.184 1057.35 483.923 1057.51 483.592C1057.67 483.262 1057.75 482.894 1057.75 482.488C1057.75 482.051 1057.66 481.678 1057.49 481.368C1057.33 481.059 1057.11 480.824 1056.82 480.664C1056.54 480.494 1056.21 480.408 1055.84 480.408C1055.39 480.408 1055 480.52 1054.67 480.744C1054.34 480.958 1054.11 481.219 1053.97 481.528H1051.89L1052.82 475.112H1059.11V477H1054.43L1053.95 479.48C1054.19 479.235 1054.5 479.038 1054.9 478.888C1055.29 478.728 1055.73 478.648 1056.23 478.648C1056.83 478.648 1057.36 478.755 1057.81 478.968C1058.26 479.171 1058.63 479.454 1058.93 479.816C1059.23 480.168 1059.45 480.574 1059.6 481.032C1059.75 481.491 1059.83 481.966 1059.83 482.456C1059.83 483.054 1059.73 483.598 1059.54 484.088C1059.35 484.579 1059.07 485.006 1058.71 485.368C1058.35 485.731 1057.93 486.014 1057.44 486.216C1056.95 486.409 1056.41 486.505 1055.81 486.505ZM1063.11 486.312V477.592L1061.14 478.104V476.392L1064.03 475.112H1065.35V486.312H1063.11Z" fill="black"/>
<rect x="736" y="477" width="185" height="10" rx="5" fill="#0093FF"/>
<g filter="url(#filter4_d_589_1147)">
<rect x="842.348" y="336.34" width="85.3036" height="85.3036" rx="42.6518" fill="white"/>
</g>
<path d="M874.963 389.687V368.296C874.963 364.288 879.43 361.898 882.764 364.121L898.807 374.816C901.787 376.802 901.787 381.18 898.807 383.166L882.764 393.862C879.43 396.085 874.963 393.695 874.963 389.687Z" fill="#1B233D"/>
<path opacity="0.75" d="M700 489.824V475.563C700 472.891 702.978 471.298 705.201 472.78L715.896 479.91C717.882 481.234 717.882 484.153 715.896 485.477L705.201 492.607C702.978 494.089 700 492.496 700 489.824Z" fill="#1B233D"/>
<g filter="url(#filter5_d_589_1147)">
<rect x="235" y="297" width="370" height="241" rx="30" fill="white"/>
</g>
<g filter="url(#filter6_d_589_1147)">
<rect x="205" y="241" width="430" height="280.744" rx="32" fill="white"/>
</g>
<path opacity="0.1" d="M203 201L1040 201" stroke="#1B233D" stroke-linecap="round"/>
<circle cx="211" cy="164" r="7.5" stroke="#1B233D" stroke-opacity="0.25"/>
<circle cx="267" cy="164" r="7.5" stroke="#0093FF"/>
<circle cx="239" cy="164" r="8" fill="#0093FF"/>
<path opacity="0.05" d="M302.08 403.481L257.052 460.13C249.761 469.303 256.293 482.841 268.012 482.841H570.988C582.707 482.841 589.239 469.303 581.948 460.129L455.293 300.788C449.688 293.736 438.979 293.736 433.374 300.788L348.832 407.148C343.227 414.199 332.518 414.199 326.913 407.148L323.999 403.481C318.394 396.43 307.685 396.43 302.08 403.481Z" fill="#1B233D"/>
<rect x="71" y="65" width="677" height="492" rx="20" fill="#0093FF" fill-opacity="0.05" stroke="#0093FF" stroke-width="2" stroke-linecap="round" stroke-dasharray="6 8"/>
<rect x="71" y="65" width="12" height="12" rx="4" fill="white" stroke="#0093FF" stroke-width="1.5"/>
<rect x="70" y="545" width="12" height="12" rx="4" fill="white" stroke="#0093FF" stroke-width="1.5"/>
<rect x="736" y="65" width="12" height="12" rx="4" fill="white" stroke="#0093FF" stroke-width="1.5"/>
<rect x="736" y="545" width="12" height="12" rx="4" fill="white" stroke="#0093FF" stroke-width="1.5"/>
<path d="M742.392 70.7549C742.504 70.7688 742.608 70.8127 742.689 70.8779L743.907 71.8506V71.8496L752.056 78.3584H752.057C752.254 78.516 752.286 78.7213 752.217 78.9053C752.146 79.0932 751.967 79.252 751.682 79.252H747.457C747.17 79.2518 746.884 79.2956 746.611 79.3818L746.344 79.4824C746.036 79.6158 745.756 79.8034 745.518 80.0371L745.419 80.1396L745.418 80.1406L742.752 83.0615C742.582 83.2477 742.336 83.2933 742.107 83.2109C741.881 83.1292 741.75 82.9538 741.75 82.7354V71.2607C741.75 71.1931 741.765 71.1245 741.795 71.0605L741.831 70.999C741.872 70.9379 741.927 70.8831 741.994 70.8408L742.065 70.8027C742.141 70.7691 742.223 70.7511 742.308 70.75L742.392 70.7549Z" fill="white" stroke="#1B233D" stroke-width="1.5"/>
<g opacity="0.4" filter="url(#filter7_f_589_1147)">
<path d="M325.294 354.748C339.451 354.748 350.928 343.271 350.928 329.114C350.928 314.957 339.451 303.48 325.294 303.48C311.137 303.48 299.66 314.957 299.66 329.114C299.66 343.271 311.137 354.748 325.294 354.748Z" fill="#005A9B"/>
<mask id="mask0_589_1147" style="mask-type:alpha" maskUnits="userSpaceOnUse" x="299" y="303" width="52" height="52">
<path d="M325.294 354.748C339.451 354.748 350.928 343.271 350.928 329.114C350.928 314.957 339.451 303.48 325.294 303.48C311.137 303.48 299.66 314.957 299.66 329.114C299.66 343.271 311.137 354.748 325.294 354.748Z" fill="white"/>
</mask>
<g mask="url(#mask0_589_1147)">
<path d="M325.295 357.706C339.997 357.706 351.915 345.788 351.915 331.086C351.915 316.385 339.997 304.467 325.295 304.467C310.594 304.467 298.676 316.385 298.676 331.086C298.676 345.788 310.594 357.706 325.295 357.706Z" fill="#0093FF"/>
</g>
<path d="M325.296 348.832C336.186 348.832 345.015 340.004 345.015 329.114C345.015 318.224 336.186 309.396 325.296 309.396C314.406 309.396 305.578 318.224 305.578 329.114C305.578 340.004 314.406 348.832 325.296 348.832Z" fill="#0077D1"/>
<path d="M325.297 342.917C332.92 342.917 339.1 336.737 339.1 329.114C339.1 321.491 332.92 315.312 325.297 315.312C317.674 315.312 311.494 321.491 311.494 329.114C311.494 336.737 317.674 342.917 325.297 342.917Z" fill="#0060A8"/>
<path d="M325.295 337.002C329.652 337.002 333.183 333.47 333.183 329.114C333.183 324.758 329.652 321.227 325.295 321.227C320.939 321.227 317.408 324.758 317.408 329.114C317.408 333.47 320.939 337.002 325.295 337.002Z" fill="#004C85"/>
<path opacity="0.4" fill-rule="evenodd" clip-rule="evenodd" d="M325.297 312.157C325.297 321.424 317.607 329.114 307.945 329.114C304.198 329.114 300.649 327.931 297.691 325.762C297.889 324.185 298.283 322.804 298.874 321.227C300.058 317.678 302.029 314.523 304.396 311.565C306.762 308.805 309.72 306.438 313.072 304.664C315.635 303.283 318.396 302.298 321.353 301.509C323.719 304.467 325.297 308.213 325.297 312.157Z" fill="url(#paint0_linear_589_1147)"/>
<path fill-rule="evenodd" clip-rule="evenodd" d="M325.295 360.663C307.943 360.663 293.746 346.466 293.746 329.114C293.746 311.762 307.943 297.565 325.295 297.565C342.647 297.565 356.844 311.762 356.844 329.114C356.844 346.466 342.647 360.663 325.295 360.663ZM325.295 354.748C339.492 354.748 350.929 343.311 350.929 329.114C350.929 314.917 339.492 303.48 325.295 303.48C311.098 303.48 299.662 314.917 299.662 329.114C299.662 343.311 311.098 354.748 325.295 354.748Z" fill="#D8D8D8"/>
<mask id="mask1_589_1147" style="mask-type:alpha" maskUnits="userSpaceOnUse" x="293" y="297" width="64" height="64">
<path fill-rule="evenodd" clip-rule="evenodd" d="M325.295 360.663C307.943 360.663 293.746 346.466 293.746 329.114C293.746 311.762 307.943 297.565 325.295 297.565C342.647 297.565 356.844 311.762 356.844 329.114C356.844 346.466 342.647 360.663 325.295 360.663ZM325.295 354.748C339.492 354.748 350.929 343.311 350.929 329.114C350.929 314.917 339.492 303.48 325.295 303.48C311.098 303.48 299.662 314.917 299.662 329.114C299.662 343.311 311.098 354.748 325.295 354.748Z" fill="white"/>
</mask>
<g mask="url(#mask1_589_1147)">
<path d="M288.677 337.628L348.25 291.084L337.852 277.513L278.28 324.058L288.677 337.628Z" fill="#CD2A9D"/>
<path fill-rule="evenodd" clip-rule="evenodd" d="M348.797 291.368L355.201 299.398L296.934 352.398L291.941 329.508L348.797 291.368Z" fill="#FF4995"/>
<path fill-rule="evenodd" clip-rule="evenodd" d="M345.953 301.424L360.484 307.25L310.883 362.676L299.05 350.769L345.953 301.424Z" fill="#FF5C43"/>
<path fill-rule="evenodd" clip-rule="evenodd" d="M355.18 305.35L376.406 321.509L322.257 374.929L312.811 360.969L355.18 305.35Z" fill="#FFA246"/>
<path fill-rule="evenodd" clip-rule="evenodd" d="M361.395 324.471L385.211 336.616L372.333 366.149L339.199 359.072L361.395 324.471Z" fill="#FEE48E"/>
</g>
</g>
<path d="M325.297 350.371C340.869 350.371 353.494 337.746 353.494 322.174C353.494 306.601 340.869 293.977 325.297 293.977C309.724 293.977 297.1 306.601 297.1 322.174C297.1 337.746 309.724 350.371 325.297 350.371Z" fill="#005A9B"/>
<mask id="mask2_589_1147" style="mask-type:alpha" maskUnits="userSpaceOnUse" x="297" y="293" width="57" height="58">
<path d="M325.297 350.371C340.869 350.371 353.494 337.746 353.494 322.174C353.494 306.601 340.869 293.977 325.297 293.977C309.724 293.977 297.1 306.601 297.1 322.174C297.1 337.746 309.724 350.371 325.297 350.371Z" fill="white"/>
</mask>
<g mask="url(#mask2_589_1147)">
<path d="M325.295 353.624C341.467 353.624 354.577 340.514 354.577 324.343C354.577 308.171 341.467 295.061 325.295 295.061C309.123 295.061 296.014 308.171 296.014 324.343C296.014 340.514 309.123 353.624 325.295 353.624Z" fill="#0093FF"/>
</g>
<path d="M325.295 343.863C337.275 343.863 346.986 334.153 346.986 322.173C346.986 310.194 337.275 300.483 325.295 300.483C313.316 300.483 303.605 310.194 303.605 322.173C303.605 334.153 313.316 343.863 325.295 343.863Z" fill="#0077D1"/>
<path d="M325.296 337.356C333.682 337.356 340.479 330.559 340.479 322.173C340.479 313.788 333.682 306.99 325.296 306.99C316.911 306.99 310.113 313.788 310.113 322.173C310.113 330.559 316.911 337.356 325.296 337.356Z" fill="#0060A8"/>
<path d="M325.297 330.85C330.089 330.85 333.973 326.965 333.973 322.174C333.973 317.382 330.089 313.498 325.297 313.498C320.505 313.498 316.621 317.382 316.621 322.174C316.621 326.965 320.505 330.85 325.297 330.85Z" fill="#004C85"/>
<path opacity="0.4" fill-rule="evenodd" clip-rule="evenodd" d="M325.296 303.52C325.296 313.715 316.837 322.174 306.209 322.174C302.087 322.174 298.183 320.872 294.93 318.486C295.147 316.751 295.58 315.233 296.231 313.498C297.532 309.593 299.701 306.123 302.304 302.87C304.907 299.833 308.161 297.23 311.848 295.278C314.668 293.76 317.704 292.675 320.958 291.808C323.561 295.061 325.296 299.182 325.296 303.52Z" fill="url(#paint1_linear_589_1147)"/>
<path fill-rule="evenodd" clip-rule="evenodd" d="M325.296 356.877C306.209 356.877 290.592 341.26 290.592 322.173C290.592 303.086 306.209 287.469 325.296 287.469C344.383 287.469 360 303.086 360 322.173C360 341.26 344.383 356.877 325.296 356.877ZM325.296 350.37C340.913 350.37 353.493 337.79 353.493 322.173C353.493 306.556 340.913 293.976 325.296 293.976C309.679 293.976 297.099 306.556 297.099 322.173C297.099 337.79 309.679 350.37 325.296 350.37Z" fill="#D8D8D8"/>
<mask id="mask3_589_1147" style="mask-type:alpha" maskUnits="userSpaceOnUse" x="290" y="287" width="70" height="70">
<path fill-rule="evenodd" clip-rule="evenodd" d="M325.296 356.877C306.209 356.877 290.592 341.26 290.592 322.173C290.592 303.086 306.209 287.469 325.296 287.469C344.383 287.469 360 303.086 360 322.173C360 341.26 344.383 356.877 325.296 356.877ZM325.296 350.37C340.913 350.37 353.493 337.79 353.493 322.173C353.493 306.556 340.913 293.976 325.296 293.976C309.679 293.976 297.099 306.556 297.099 322.173C297.099 337.79 309.679 350.37 325.296 350.37Z" fill="white"/>
</mask>
<g mask="url(#mask3_589_1147)">
<path d="M285.015 331.539L350.545 280.34L339.107 265.412L273.577 316.611L285.015 331.539Z" fill="#CD2A9D"/>
<path fill-rule="evenodd" clip-rule="evenodd" d="M351.148 280.653L358.193 289.486L294.099 347.786L288.607 322.608L351.148 280.653Z" fill="#FF4995"/>
<path fill-rule="evenodd" clip-rule="evenodd" d="M348.016 291.714L364 298.123L309.439 359.091L296.424 345.993L348.016 291.714Z" fill="#FF5C43"/>
<path fill-rule="evenodd" clip-rule="evenodd" d="M358.168 296.033L381.517 313.807L321.953 372.57L311.562 357.214L358.168 296.033Z" fill="#FFA246"/>
<path fill-rule="evenodd" clip-rule="evenodd" d="M365.005 317.066L391.202 330.426L377.036 362.911L340.589 355.126L365.005 317.066Z" fill="#FEE48E"/>
</g>
<g filter="url(#filter8_d_589_1147)">
<rect x="707" y="362" width="70" height="70" rx="18" fill="white"/>
</g>
<path fill-rule="evenodd" clip-rule="evenodd" d="M737.004 378H757.103C758.458 378 758.949 378.141 759.445 378.406C759.94 378.671 760.329 379.06 760.594 379.555C760.859 380.051 761 380.542 761 381.897V412.103C761 413.458 760.859 413.949 760.594 414.445C760.329 414.94 759.94 415.329 759.445 415.594C758.949 415.859 758.458 416 757.103 416H726.897C725.542 416 725.051 415.859 724.555 415.594C724.06 415.329 723.671 414.94 723.406 414.445C723.141 413.949 723 413.458 723 412.103V381.897C723 380.542 723.141 380.051 723.406 379.555C723.671 379.06 724.06 378.671 724.555 378.406C725.051 378.141 725.542 378 726.897 378H731.648" fill="white"/>
<path d="M737.004 378H757.103C758.458 378 758.949 378.141 759.445 378.406C759.94 378.671 760.329 379.06 760.594 379.555C760.859 380.051 761 380.542 761 381.897V412.103C761 413.458 760.859 413.949 760.594 414.445C760.329 414.94 759.94 415.329 759.445 415.594C758.949 415.859 758.458 416 757.103 416H726.897C725.542 416 725.051 415.859 724.555 415.594C724.06 415.329 723.671 414.94 723.406 414.445C723.141 413.949 723 413.458 723 412.103V381.897C723 380.542 723.141 380.051 723.406 379.555C723.671 379.06 724.06 378.671 724.555 378.406C725.051 378.141 725.542 378 726.897 378H731.648" stroke="#0096FE" stroke-width="1.5" stroke-linecap="round" stroke-linejoin="round"/>
<path d="M754 407.421V386.579C754 385.707 753.293 385 752.421 385H731.579C730.707 385 730 385.707 730 386.579V407.421C730 408.293 730.707 409 731.579 409H752.421C753.293 409 754 408.293 754 407.421Z" fill="#0096FE" fill-opacity="0.3"/>
<path fill-rule="evenodd" clip-rule="evenodd" d="M739 392L746 397L739 402V392Z" fill="#0096FE" stroke="#0096FE" stroke-width="1.5" stroke-linecap="round" stroke-linejoin="round"/>
<g filter="url(#filter9_d_589_1147)">
<rect x="344" y="181" width="70" height="70" rx="18" fill="white"/>
</g>
<path d="M361 217.927V202.5C361 200.015 363.015 198 365.5 198H392.5C394.985 198 397 200.015 397 202.5V229.5C397 231.985 394.985 234 392.5 234H365.5C363.015 234 361 231.985 361 229.5V225.404" fill="white"/>
<path d="M361 217.927V202.5C361 200.015 363.015 198 365.5 198H392.5C394.985 198 397 200.015 397 202.5V229.5C397 231.985 394.985 234 392.5 234H365.5C363.015 234 361 231.985 361 229.5V225.404" stroke="#0096FE" stroke-width="1.5" stroke-linecap="round" stroke-linejoin="round"/>
<path fill-rule="evenodd" clip-rule="evenodd" d="M365.5 198H392.5C394.985 198 397 200.015 397 202.5V207H361V202.5C361 200.015 363.015 198 365.5 198Z" fill="#B2DFFE" stroke="#0096FE" stroke-width="1.5"/>
<path d="M367 204C367.828 204 368.5 203.328 368.5 202.5C368.5 201.672 367.828 201 367 201C366.172 201 365.5 201.672 365.5 202.5C365.5 203.328 366.172 204 367 204Z" fill="#0096FE"/>
<path d="M371.285 204C372.114 204 372.785 203.328 372.785 202.5C372.785 201.672 372.114 201 371.285 201C370.457 201 369.785 201.672 369.785 202.5C369.785 203.328 370.457 204 371.285 204Z" fill="#0096FE"/>
<path d="M376 204C376.828 204 377.5 203.328 377.5 202.5C377.5 201.672 376.828 201 376 201C375.172 201 374.5 201.672 374.5 202.5C374.5 203.328 375.172 204 376 204Z" fill="#0096FE"/>
<path d="M361 207H397" stroke="#0096FE" stroke-width="1.5"/>
<g filter="url(#filter10_d_589_1147)">
<rect x="437" y="434" width="70" height="70" rx="18" fill="white"/>
</g>
<path fill-rule="evenodd" clip-rule="evenodd" d="M490 481.174V483.154C490 484.491 489.861 484.976 489.599 485.465C489.338 485.954 488.954 486.338 488.465 486.599C487.976 486.861 487.491 487 486.154 487H457.846C456.509 487 456.024 486.861 455.535 486.599C455.046 486.338 454.662 485.954 454.401 485.465C454.139 484.976 454 484.491 454 483.154V454.846C454 453.509 454.139 453.024 454.401 452.535C454.662 452.046 455.046 451.662 455.535 451.401C456.024 451.139 456.509 451 457.846 451H486.154C487.491 451 487.976 451.139 488.465 451.401C488.954 451.662 489.338 452.046 489.599 452.535C489.861 453.024 490 453.509 490 454.846V475V481.174Z" fill="white" stroke="#D5D5D5" stroke-width="1.5" stroke-linecap="round" stroke-linejoin="round"/>
<path d="M482.5 477.642V479.667C482.5 480.403 481.828 481 481 481H463C462.172 481 461.5 480.403 461.5 479.667V458.333C461.5 457.597 462.172 457 463 457H481C481.828 457 482.5 457.597 482.5 458.333V471.667V473.24" stroke="#B2DFFE" stroke-width="1.5" stroke-linecap="round" stroke-linejoin="round"/>
<path d="M487 451H457C455.343 451 454 452.343 454 454V484C454 485.657 455.343 487 457 487H487C488.657 487 490 485.657 490 484V454C490 452.343 488.657 451 487 451Z" fill="#0096FE" fill-opacity="0.3" stroke="#0096FE" stroke-width="1.5" stroke-linejoin="round"/>
<g filter="url(#filter11_d_589_1147)">
<rect x="173" y="364" width="70" height="70" rx="18" fill="white"/>
</g>
<path fill-rule="evenodd" clip-rule="evenodd" d="M189 403.996V383.897C189 382.542 189.141 382.051 189.406 381.555C189.671 381.06 190.06 380.671 190.555 380.406C191.051 380.141 191.542 380 192.897 380H223.103C224.458 380 224.949 380.141 225.445 380.406C225.94 380.671 226.329 381.06 226.594 381.555C226.859 382.051 227 382.542 227 383.897V414.103C227 415.458 226.859 415.949 226.594 416.445C226.329 416.94 225.94 417.329 225.445 417.594C224.949 417.859 224.458 418 223.103 418H192.897C191.542 418 191.051 417.859 190.555 417.594C190.06 417.329 189.671 416.94 189.406 416.445C189.141 415.949 189 415.458 189 414.103V409.352" fill="white"/>
<path d="M189 403.996V383.897C189 382.542 189.141 382.051 189.406 381.555C189.671 381.06 190.06 380.671 190.555 380.406C191.051 380.141 191.542 380 192.897 380H223.103C224.458 380 224.949 380.141 225.445 380.406C225.94 380.671 226.329 381.06 226.594 381.555C226.859 382.051 227 382.542 227 383.897V414.103C227 415.458 226.859 415.949 226.594 416.445C226.329 416.94 225.94 417.329 225.445 417.594C224.949 417.859 224.458 418 223.103 418H192.897C191.542 418 191.051 417.859 190.555 417.594C190.06 417.329 189.671 416.94 189.406 416.445C189.141 415.949 189 415.458 189 414.103V409.352" stroke="#0096FE" stroke-width="1.5" stroke-linecap="round" stroke-linejoin="round"/>
<path d="M217.9 387.6H198.1C197.271 387.6 196.6 388.272 196.6 389.1V408.9C196.6 409.729 197.271 410.4 198.1 410.4H217.9C218.728 410.4 219.4 409.729 219.4 408.9V389.1C219.4 388.272 218.728 387.6 217.9 387.6Z" fill="#0096FE" fill-opacity="0.3"/>
<path d="M208 392.16V402.8" stroke="#0096FE" stroke-width="1.5" stroke-linecap="round"/>
<path fill-rule="evenodd" clip-rule="evenodd" d="M204.199 401.28L207.999 405.84L211.799 401.28H204.199Z" fill="#0096FE" stroke="#0096FE" stroke-width="1.5" stroke-linecap="round" stroke-linejoin="round"/>
<g filter="url(#filter12_d_589_1147)">
<rect x="159" y="222" width="70" height="70" rx="18" fill="white"/>
</g>
<path fill-rule="evenodd" clip-rule="evenodd" d="M212 269.174V271.154C212 272.491 211.861 272.976 211.599 273.465C211.338 273.954 210.954 274.338 210.465 274.599C209.976 274.861 209.491 275 208.154 275H179.846C178.509 275 178.024 274.861 177.535 274.599C177.046 274.338 176.662 273.954 176.401 273.465C176.139 272.976 176 272.491 176 271.154V242.846C176 241.509 176.139 241.024 176.401 240.535C176.662 240.046 177.046 239.662 177.535 239.401C178.024 239.139 178.509 239 179.846 239H208.154C209.491 239 209.976 239.139 210.465 239.401C210.954 239.662 211.338 240.046 211.599 240.535C211.861 241.024 212 241.509 212 242.846V263V269.174Z" fill="white" stroke="#D5D5D5" stroke-width="1.5" stroke-linecap="round" stroke-linejoin="round"/>
<path d="M204.5 265.642V267.667C204.5 268.403 203.828 269 203 269H185C184.172 269 183.5 268.403 183.5 267.667V246.333C183.5 245.597 184.172 245 185 245H203C203.828 245 204.5 245.597 204.5 246.333V259.667V261.24" stroke="#B2DFFE" stroke-width="1.5" stroke-linecap="round" stroke-linejoin="round"/>
<path fill-rule="evenodd" clip-rule="evenodd" d="M179 239H194C195.657 239 197 240.343 197 242V257C197 258.657 195.657 260 194 260H187.449H181.307H179C177.343 260 176 258.657 176 257V242C176 240.343 177.343 239 179 239Z" fill="#0096FE" fill-opacity="0.3" stroke="#0096FE" stroke-width="1.5"/>
<g filter="url(#filter13_d_589_1147)">
<rect x="581" y="276" width="70" height="70" rx="18" fill="white"/>
</g>
<path fill-rule="evenodd" clip-rule="evenodd" d="M634 322.544V324.5C634 326.985 631.985 329 629.5 329H602.5C600.015 329 598 326.985 598 324.5V297.5C598 295.015 600.015 293 602.5 293H629.5C631.985 293 634 295.015 634 297.5V313.533V318.914" fill="white"/>
<path d="M634 322.544V324.5C634 326.985 631.985 329 629.5 329H602.5C600.015 329 598 326.985 598 324.5V297.5C598 295.015 600.015 293 602.5 293H629.5C631.985 293 634 295.015 634 297.5V313.533V318.914" stroke="#0096FE" stroke-width="1.5" stroke-linecap="round"/>
<mask id="mask4_589_1147" style="mask-type:alpha" maskUnits="userSpaceOnUse" x="602" y="297" width="28" height="22">
<path d="M626.5 297.5H605.5C603.843 297.5 602.5 298.843 602.5 300.5V315.5C602.5 317.157 603.843 318.5 605.5 318.5H626.5C628.157 318.5 629.5 317.157 629.5 315.5V300.5C629.5 298.843 628.157 297.5 626.5 297.5Z" fill="white"/>
</mask>
<g mask="url(#mask4_589_1147)">
<path d="M626.5 297.5H605.5C603.843 297.5 602.5 298.843 602.5 300.5V315.5C602.5 317.157 603.843 318.5 605.5 318.5H626.5C628.157 318.5 629.5 317.157 629.5 315.5V300.5C629.5 298.843 628.157 297.5 626.5 297.5Z" fill="#B2DFFE"/>
<path d="M607.961 313.12L612.266 307.714L618.127 313.01L622.094 309.818L631.525 320.585H602.016L605.748 315.898" stroke="#0096FE" stroke-width="1.5" stroke-linecap="round" stroke-linejoin="round"/>
</g>
<g filter="url(#filter14_d_589_1147)">
<rect x="514" y="156" width="70" height="70" rx="18" fill="white"/>
</g>
<path fill-rule="evenodd" clip-rule="evenodd" d="M567 203.174V205.154C567 206.491 566.861 206.976 566.599 207.465C566.338 207.954 565.954 208.338 565.465 208.599C564.976 208.861 564.491 209 563.154 209H534.846C533.509 209 533.024 208.861 532.535 208.599C532.046 208.338 531.662 207.954 531.401 207.465C531.139 206.976 531 206.491 531 205.154V176.846C531 175.509 531.139 175.024 531.401 174.535C531.662 174.046 532.046 173.662 532.535 173.401C533.024 173.139 533.509 173 534.846 173H563.154C564.491 173 564.976 173.139 565.465 173.401C565.954 173.662 566.338 174.046 566.599 174.535C566.861 175.024 567 175.509 567 176.846V197V203.174Z" fill="white" stroke="#D5D5D5" stroke-width="1.5" stroke-linecap="round" stroke-linejoin="round"/>
<path d="M559.5 199.642V201.667C559.5 202.403 558.828 203 558 203H540C539.172 203 538.5 202.403 538.5 201.667V180.333C538.5 179.597 539.172 179 540 179H558C558.828 179 559.5 179.597 559.5 180.333V193.667V195.24" stroke="#B2DFFE" stroke-width="1.5" stroke-linecap="round" stroke-linejoin="round"/>
<path d="M564 173H534C532.343 173 531 174.343 531 176V189.5C531 191.157 532.343 192.5 534 192.5H564C565.657 192.5 567 191.157 567 189.5V176C567 174.343 565.657 173 564 173Z" fill="#0096FE" fill-opacity="0.3" stroke="#0096FE" stroke-width="1.5" stroke-linejoin="round"/>
<rect opacity="0.25" x="206" y="578" width="364" height="32" rx="16" fill="#FF8E00"/>
<rect x="369" y="544" width="80" height="26" rx="6" fill="#0093FF"/>
<path d="M380.883 562L384.087 554.464H379.479V553.6H385.119V554.356L381.951 562H380.883ZM389.16 562.144C388.56 562.144 388.052 562.032 387.636 561.808C387.228 561.584 386.9 561.28 386.652 560.896C386.404 560.512 386.22 560.084 386.1 559.612C385.988 559.132 385.932 558.64 385.932 558.136C385.932 557.208 386.06 556.396 386.316 555.7C386.572 554.996 386.94 554.448 387.42 554.056C387.908 553.656 388.492 553.456 389.172 553.456C389.7 553.456 390.152 553.56 390.528 553.768C390.912 553.968 391.212 554.24 391.428 554.584C391.652 554.92 391.788 555.296 391.836 555.712H390.9C390.82 555.272 390.628 554.932 390.324 554.692C390.02 554.452 389.632 554.332 389.16 554.332C388.736 554.332 388.356 554.464 388.02 554.728C387.692 554.992 387.428 555.388 387.228 555.916C387.036 556.444 386.924 557.12 386.892 557.944C386.892 557.96 386.892 557.976 386.892 557.992C386.892 558.008 386.892 558.024 386.892 558.04C387.012 557.784 387.184 557.552 387.408 557.344C387.64 557.128 387.916 556.956 388.236 556.828C388.556 556.692 388.908 556.624 389.292 556.624C389.772 556.624 390.216 556.736 390.624 556.96C391.04 557.184 391.372 557.5 391.62 557.908C391.876 558.308 392.004 558.78 392.004 559.324C392.004 559.796 391.888 560.248 391.656 560.68C391.432 561.112 391.108 561.464 390.684 561.736C390.26 562.008 389.752 562.144 389.16 562.144ZM389.088 561.256C389.456 561.256 389.78 561.176 390.06 561.016C390.348 560.856 390.572 560.636 390.732 560.356C390.9 560.068 390.984 559.74 390.984 559.372C390.984 558.996 390.9 558.668 390.732 558.388C390.572 558.108 390.348 557.892 390.06 557.74C389.78 557.58 389.456 557.5 389.088 557.5C388.728 557.5 388.4 557.584 388.104 557.752C387.816 557.92 387.584 558.148 387.408 558.436C387.24 558.716 387.156 559.032 387.156 559.384C387.156 559.752 387.24 560.076 387.408 560.356C387.584 560.636 387.816 560.856 388.104 561.016C388.4 561.176 388.728 561.256 389.088 561.256ZM396.827 562.144C396.107 562.144 395.487 561.964 394.967 561.604C394.455 561.236 394.059 560.728 393.779 560.08C393.499 559.424 393.359 558.664 393.359 557.8C393.359 556.936 393.499 556.18 393.779 555.532C394.059 554.876 394.455 554.368 394.967 554.008C395.487 553.64 396.107 553.456 396.827 553.456C397.547 553.456 398.163 553.64 398.675 554.008C399.187 554.368 399.583 554.876 399.863 555.532C400.143 556.18 400.283 556.936 400.283 557.8C400.283 558.664 400.143 559.424 399.863 560.08C399.583 560.728 399.187 561.236 398.675 561.604C398.163 561.964 397.547 562.144 396.827 562.144ZM396.827 561.256C397.291 561.256 397.703 561.12 398.063 560.848C398.431 560.568 398.719 560.172 398.927 559.66C399.143 559.14 399.251 558.52 399.251 557.8C399.251 557.072 399.143 556.452 398.927 555.94C398.719 555.428 398.431 555.036 398.063 554.764C397.703 554.492 397.291 554.356 396.827 554.356C396.363 554.356 395.943 554.492 395.567 554.764C395.199 555.036 394.911 555.428 394.703 555.94C394.495 556.452 394.391 557.072 394.391 557.8C394.391 558.52 394.495 559.14 394.703 559.66C394.911 560.172 395.199 560.568 395.567 560.848C395.943 561.12 396.363 561.256 396.827 561.256Z" fill="white"/>
<path d="M420.199 562.144C419.631 562.144 419.139 562.044 418.723 561.844C418.307 561.636 417.975 561.356 417.727 561.004C417.487 560.652 417.339 560.252 417.283 559.804H418.267C418.355 560.244 418.567 560.6 418.903 560.872C419.239 561.144 419.675 561.28 420.211 561.28C420.603 561.28 420.939 561.188 421.219 561.004C421.507 560.82 421.727 560.572 421.879 560.26C422.031 559.94 422.107 559.584 422.107 559.192C422.107 558.784 422.031 558.428 421.879 558.124C421.727 557.82 421.511 557.584 421.231 557.416C420.951 557.24 420.627 557.152 420.259 557.152C419.811 557.152 419.427 557.248 419.107 557.44C418.787 557.624 418.547 557.864 418.387 558.16H417.415L418.087 553.6H422.551V554.476H418.867L418.399 557.068C418.599 556.844 418.867 556.66 419.203 556.516C419.539 556.372 419.927 556.3 420.367 556.3C420.775 556.3 421.143 556.372 421.471 556.516C421.807 556.66 422.095 556.864 422.335 557.128C422.575 557.384 422.759 557.688 422.887 558.04C423.015 558.392 423.079 558.772 423.079 559.18C423.079 559.58 423.011 559.96 422.875 560.32C422.747 560.68 422.559 560.996 422.311 561.268C422.071 561.54 421.771 561.756 421.411 561.916C421.059 562.068 420.655 562.144 420.199 562.144ZM424.36 562V561.292C424.944 560.844 425.496 560.392 426.016 559.936C426.536 559.48 426.996 559.028 427.396 558.58C427.796 558.124 428.112 557.68 428.344 557.248C428.576 556.816 428.692 556.4 428.692 556C428.692 555.704 428.636 555.432 428.524 555.184C428.42 554.928 428.252 554.72 428.02 554.56C427.796 554.4 427.488 554.32 427.096 554.32C426.72 554.32 426.404 554.404 426.148 554.572C425.9 554.732 425.712 554.948 425.584 555.22C425.456 555.484 425.392 555.776 425.392 556.096H424.42C424.428 555.544 424.548 555.072 424.78 554.68C425.012 554.28 425.328 553.976 425.728 553.768C426.136 553.56 426.596 553.456 427.108 553.456C427.612 553.456 428.056 553.552 428.44 553.744C428.832 553.928 429.14 554.208 429.364 554.584C429.588 554.952 429.7 555.412 429.7 555.964C429.7 556.356 429.616 556.748 429.448 557.14C429.288 557.532 429.068 557.916 428.788 558.292C428.516 558.66 428.212 559.016 427.876 559.36C427.54 559.704 427.196 560.028 426.844 560.332C426.492 560.636 426.16 560.912 425.848 561.16H429.988V562H424.36ZM434.491 562.144C433.771 562.144 433.151 561.964 432.631 561.604C432.119 561.236 431.723 560.728 431.443 560.08C431.163 559.424 431.023 558.664 431.023 557.8C431.023 556.936 431.163 556.18 431.443 555.532C431.723 554.876 432.119 554.368 432.631 554.008C433.151 553.64 433.771 553.456 434.491 553.456C435.211 553.456 435.827 553.64 436.339 554.008C436.851 554.368 437.247 554.876 437.527 555.532C437.807 556.18 437.947 556.936 437.947 557.8C437.947 558.664 437.807 559.424 437.527 560.08C437.247 560.728 436.851 561.236 436.339 561.604C435.827 561.964 435.211 562.144 434.491 562.144ZM434.491 561.256C434.955 561.256 435.367 561.12 435.727 560.848C436.095 560.568 436.383 560.172 436.591 559.66C436.807 559.14 436.915 558.52 436.915 557.8C436.915 557.072 436.807 556.452 436.591 555.94C436.383 555.428 436.095 555.036 435.727 554.764C435.367 554.492 434.955 554.356 434.491 554.356C434.027 554.356 433.607 554.492 433.231 554.764C432.863 555.036 432.575 555.428 432.367 555.94C432.159 556.452 432.055 557.072 432.055 557.8C432.055 558.52 432.159 559.14 432.367 559.66C432.575 560.172 432.863 560.568 433.231 560.848C433.607 561.12 434.027 561.256 434.491 561.256Z" fill="white"/>
<path d="M406 555L411.5 560.5" stroke="white" stroke-linecap="round"/>
<path d="M411.5 555L406 560.5" stroke="white" stroke-linecap="round"/>
<rect opacity="0.25" x="665" y="578" width="250" height="32" rx="16" fill="#61BC5B"/>
<rect opacity="0.05" x="206" y="634" width="334" height="14" rx="7" fill="#1B233D"/>
<rect opacity="0.05" x="665" y="634" width="287" height="14" rx="7" fill="#1B233D"/>
<rect opacity="0.08" x="206" y="664" width="308" height="14" rx="7" fill="#1B233D"/>
<rect opacity="0.08" x="665" y="664" width="313" height="14" rx="7" fill="#1B233D"/>
<g filter="url(#filter15_d_589_1147)">
<rect x="406" y="51" width="38" height="38" rx="10.2308" fill="white"/>
</g>
<path d="M418.423 63.423H414.77" stroke="#FF8E00" stroke-width="1.75" stroke-linecap="round" stroke-linejoin="round"/>
<path d="M418.424 59.7692V76.5769H435.232" stroke="#FF8E00" stroke-width="1.75" stroke-linecap="round" stroke-linejoin="round"/>
<path d="M431.579 73.6538V63.423H421.347" stroke="#FF8E00" stroke-width="1.75" stroke-linecap="round" stroke-linejoin="round"/>
<path d="M431.578 80.2307V76.5768" stroke="#FF8E00" stroke-width="1.75" stroke-linecap="round" stroke-linejoin="round"/>
<g filter="url(#filter16_d_589_1147)">
<rect x="121" y="534" width="38" height="38" rx="10.2308" fill="white"/>
</g>
<path d="M136.776 561.038H132.694C132.5 561.038 132.314 560.961 132.177 560.824C132.04 560.687 131.963 560.501 131.963 560.307V556.226C131.963 556.13 131.982 556.035 132.019 555.946C132.055 555.857 132.109 555.777 132.177 555.709L143.138 544.747C143.276 544.61 143.461 544.533 143.655 544.533C143.849 544.533 144.035 544.61 144.172 544.747L148.254 548.829C148.391 548.966 148.468 549.152 148.468 549.346C148.468 549.54 148.391 549.726 148.254 549.863L137.292 560.824C137.224 560.892 137.144 560.946 137.055 560.983C136.967 561.019 136.872 561.038 136.776 561.038Z" stroke="#61BC5B" stroke-width="1.75" stroke-linecap="round" stroke-linejoin="round"/>
<path d="M140.732 547.154L145.848 552.269" stroke="#61BC5B" stroke-width="1.75" stroke-linecap="round" stroke-linejoin="round"/>
<path d="M137.887 560.253L132.865 555.23" stroke="#61BC5B" stroke-width="1.75" stroke-linecap="round" stroke-linejoin="round"/>
<g filter="url(#filter17_d_589_1147)">
<rect x="730" y="226" width="38" height="38" rx="10.2308" fill="white"/>
</g>
<path d="M749 238.423V251.577" stroke="#0093FF" stroke-width="1.75" stroke-linecap="round" stroke-linejoin="round"/>
<path d="M741.693 241.346V238.423H756.309V241.346" stroke="#0093FF" stroke-width="1.75" stroke-linecap="round" stroke-linejoin="round"/>
<path d="M746.076 251.576H751.922" stroke="#0093FF" stroke-width="1.75" stroke-linecap="round" stroke-linejoin="round"/>
<defs>
<filter id="filter0_d_589_1147" x="0" y="60" width="1009" height="740" filterUnits="userSpaceOnUse" color-interpolation-filters="sRGB">
<feFlood flood-opacity="0" result="BackgroundImageFix"/>
<feColorMatrix in="SourceAlpha" type="matrix" values="0 0 0 0 0 0 0 0 0 0 0 0 0 0 0 0 0 0 127 0" result="hardAlpha"/>
<feOffset dx="20" dy="20"/>
<feGaussianBlur stdDeviation="60"/>
<feComposite in2="hardAlpha" operator="out"/>
<feColorMatrix type="matrix" values="0 0 0 0 0 0 0 0 0 0 0 0 0 0 0 0 0 0 0.07 0"/>
<feBlend mode="normal" in2="BackgroundImageFix" result="effect1_dropShadow_589_1147"/>
<feBlend mode="normal" in="SourceGraphic" in2="effect1_dropShadow_589_1147" result="shape"/>
</filter>
<filter id="filter1_d_589_1147" x="40" y="0" width="1169" height="860" filterUnits="userSpaceOnUse" color-interpolation-filters="sRGB">
<feFlood flood-opacity="0" result="BackgroundImageFix"/>
<feColorMatrix in="SourceAlpha" type="matrix" values="0 0 0 0 0 0 0 0 0 0 0 0 0 0 0 0 0 0 127 0" result="hardAlpha"/>
<feOffset dx="20" dy="20"/>
<feGaussianBlur stdDeviation="60"/>
<feComposite in2="hardAlpha" operator="out"/>
<feColorMatrix type="matrix" values="0 0 0 0 0 0 0 0 0 0 0 0 0 0 0 0 0 0 0.07 0"/>
<feBlend mode="normal" in2="BackgroundImageFix" result="effect1_dropShadow_589_1147"/>
<feBlend mode="normal" in="SourceGraphic" in2="effect1_dropShadow_589_1147" result="shape"/>
</filter>
<filter id="filter2_d_589_1147" x="556" y="157" width="738" height="601" filterUnits="userSpaceOnUse" color-interpolation-filters="sRGB">
<feFlood flood-opacity="0" result="BackgroundImageFix"/>
<feColorMatrix in="SourceAlpha" type="matrix" values="0 0 0 0 0 0 0 0 0 0 0 0 0 0 0 0 0 0 127 0" result="hardAlpha"/>
<feOffset dx="40" dy="40"/>
<feGaussianBlur stdDeviation="90"/>
<feComposite in2="hardAlpha" operator="out"/>
<feColorMatrix type="matrix" values="0 0 0 0 0.105882 0 0 0 0 0.137255 0 0 0 0 0.239216 0 0 0 0.07 0"/>
<feBlend mode="normal" in2="BackgroundImageFix" result="effect1_dropShadow_589_1147"/>
<feBlend mode="normal" in="SourceGraphic" in2="effect1_dropShadow_589_1147" result="shape"/>
</filter>
<filter id="filter3_d_589_1147" x="564.511" y="140.042" width="708.284" height="550.222" filterUnits="userSpaceOnUse" color-interpolation-filters="sRGB">
<feFlood flood-opacity="0" result="BackgroundImageFix"/>
<feColorMatrix in="SourceAlpha" type="matrix" values="0 0 0 0 0 0 0 0 0 0 0 0 0 0 0 0 0 0 127 0" result="hardAlpha"/>
<feOffset dx="33.6527" dy="33.6527"/>
<feGaussianBlur stdDeviation="67.3054"/>
<feComposite in2="hardAlpha" operator="out"/>
<feColorMatrix type="matrix" values="0 0 0 0 0.105882 0 0 0 0 0.137255 0 0 0 0 0.239216 0 0 0 0.05 0"/>
<feBlend mode="normal" in2="BackgroundImageFix" result="effect1_dropShadow_589_1147"/>
<feBlend mode="normal" in="SourceGraphic" in2="effect1_dropShadow_589_1147" result="shape"/>
</filter>
<filter id="filter4_d_589_1147" x="809.732" y="303.724" width="185.661" height="185.661" filterUnits="userSpaceOnUse" color-interpolation-filters="sRGB">
<feFlood flood-opacity="0" result="BackgroundImageFix"/>
<feColorMatrix in="SourceAlpha" type="matrix" values="0 0 0 0 0 0 0 0 0 0 0 0 0 0 0 0 0 0 127 0" result="hardAlpha"/>
<feOffset dx="17.5625" dy="17.5625"/>
<feGaussianBlur stdDeviation="25.0893"/>
<feComposite in2="hardAlpha" operator="out"/>
<feColorMatrix type="matrix" values="0 0 0 0 0.105882 0 0 0 0 0.137255 0 0 0 0 0.239216 0 0 0 0.1 0"/>
<feBlend mode="normal" in2="BackgroundImageFix" result="effect1_dropShadow_589_1147"/>
<feBlend mode="normal" in="SourceGraphic" in2="effect1_dropShadow_589_1147" result="shape"/>
</filter>
<filter id="filter5_d_589_1147" x="95" y="157" width="730" height="601" filterUnits="userSpaceOnUse" color-interpolation-filters="sRGB">
<feFlood flood-opacity="0" result="BackgroundImageFix"/>
<feColorMatrix in="SourceAlpha" type="matrix" values="0 0 0 0 0 0 0 0 0 0 0 0 0 0 0 0 0 0 127 0" result="hardAlpha"/>
<feOffset dx="40" dy="40"/>
<feGaussianBlur stdDeviation="90"/>
<feComposite in2="hardAlpha" operator="out"/>
<feColorMatrix type="matrix" values="0 0 0 0 0.105882 0 0 0 0 0.137255 0 0 0 0 0.239216 0 0 0 0.07 0"/>
<feBlend mode="normal" in2="BackgroundImageFix" result="effect1_dropShadow_589_1147"/>
<feBlend mode="normal" in="SourceGraphic" in2="effect1_dropShadow_589_1147" result="shape"/>
</filter>
<filter id="filter6_d_589_1147" x="65" y="101" width="790" height="640.744" filterUnits="userSpaceOnUse" color-interpolation-filters="sRGB">
<feFlood flood-opacity="0" result="BackgroundImageFix"/>
<feColorMatrix in="SourceAlpha" type="matrix" values="0 0 0 0 0 0 0 0 0 0 0 0 0 0 0 0 0 0 127 0" result="hardAlpha"/>
<feOffset dx="40" dy="40"/>
<feGaussianBlur stdDeviation="90"/>
<feComposite in2="hardAlpha" operator="out"/>
<feColorMatrix type="matrix" values="0 0 0 0 0.105882 0 0 0 0 0.137255 0 0 0 0 0.239216 0 0 0 0.07 0"/>
<feBlend mode="normal" in2="BackgroundImageFix" result="effect1_dropShadow_589_1147"/>
<feBlend mode="normal" in="SourceGraphic" in2="effect1_dropShadow_589_1147" result="shape"/>
</filter>
<filter id="filter7_f_589_1147" x="286.796" y="290.615" width="76.9985" height="76.9984" filterUnits="userSpaceOnUse" color-interpolation-filters="sRGB">
<feFlood flood-opacity="0" result="BackgroundImageFix"/>
<feBlend mode="normal" in="SourceGraphic" in2="BackgroundImageFix" result="shape"/>
<feGaussianBlur stdDeviation="3.47503" result="effect1_foregroundBlur_589_1147"/>
</filter>
<filter id="filter8_d_589_1147" x="681" y="336" width="150" height="150" filterUnits="userSpaceOnUse" color-interpolation-filters="sRGB">
<feFlood flood-opacity="0" result="BackgroundImageFix"/>
<feColorMatrix in="SourceAlpha" type="matrix" values="0 0 0 0 0 0 0 0 0 0 0 0 0 0 0 0 0 0 127 0" result="hardAlpha"/>
<feOffset dx="14" dy="14"/>
<feGaussianBlur stdDeviation="20"/>
<feComposite in2="hardAlpha" operator="out"/>
<feColorMatrix type="matrix" values="0 0 0 0 0.105882 0 0 0 0 0.137255 0 0 0 0 0.239216 0 0 0 0.1 0"/>
<feBlend mode="normal" in2="BackgroundImageFix" result="effect1_dropShadow_589_1147"/>
<feBlend mode="normal" in="SourceGraphic" in2="effect1_dropShadow_589_1147" result="shape"/>
</filter>
<filter id="filter9_d_589_1147" x="318" y="155" width="150" height="150" filterUnits="userSpaceOnUse" color-interpolation-filters="sRGB">
<feFlood flood-opacity="0" result="BackgroundImageFix"/>
<feColorMatrix in="SourceAlpha" type="matrix" values="0 0 0 0 0 0 0 0 0 0 0 0 0 0 0 0 0 0 127 0" result="hardAlpha"/>
<feOffset dx="14" dy="14"/>
<feGaussianBlur stdDeviation="20"/>
<feComposite in2="hardAlpha" operator="out"/>
<feColorMatrix type="matrix" values="0 0 0 0 0.105882 0 0 0 0 0.137255 0 0 0 0 0.239216 0 0 0 0.1 0"/>
<feBlend mode="normal" in2="BackgroundImageFix" result="effect1_dropShadow_589_1147"/>
<feBlend mode="normal" in="SourceGraphic" in2="effect1_dropShadow_589_1147" result="shape"/>
</filter>
<filter id="filter10_d_589_1147" x="411" y="408" width="150" height="150" filterUnits="userSpaceOnUse" color-interpolation-filters="sRGB">
<feFlood flood-opacity="0" result="BackgroundImageFix"/>
<feColorMatrix in="SourceAlpha" type="matrix" values="0 0 0 0 0 0 0 0 0 0 0 0 0 0 0 0 0 0 127 0" result="hardAlpha"/>
<feOffset dx="14" dy="14"/>
<feGaussianBlur stdDeviation="20"/>
<feComposite in2="hardAlpha" operator="out"/>
<feColorMatrix type="matrix" values="0 0 0 0 0.105882 0 0 0 0 0.137255 0 0 0 0 0.239216 0 0 0 0.1 0"/>
<feBlend mode="normal" in2="BackgroundImageFix" result="effect1_dropShadow_589_1147"/>
<feBlend mode="normal" in="SourceGraphic" in2="effect1_dropShadow_589_1147" result="shape"/>
</filter>
<filter id="filter11_d_589_1147" x="147" y="338" width="150" height="150" filterUnits="userSpaceOnUse" color-interpolation-filters="sRGB">
<feFlood flood-opacity="0" result="BackgroundImageFix"/>
<feColorMatrix in="SourceAlpha" type="matrix" values="0 0 0 0 0 0 0 0 0 0 0 0 0 0 0 0 0 0 127 0" result="hardAlpha"/>
<feOffset dx="14" dy="14"/>
<feGaussianBlur stdDeviation="20"/>
<feComposite in2="hardAlpha" operator="out"/>
<feColorMatrix type="matrix" values="0 0 0 0 0.105882 0 0 0 0 0.137255 0 0 0 0 0.239216 0 0 0 0.1 0"/>
<feBlend mode="normal" in2="BackgroundImageFix" result="effect1_dropShadow_589_1147"/>
<feBlend mode="normal" in="SourceGraphic" in2="effect1_dropShadow_589_1147" result="shape"/>
</filter>
<filter id="filter12_d_589_1147" x="133" y="196" width="150" height="150" filterUnits="userSpaceOnUse" color-interpolation-filters="sRGB">
<feFlood flood-opacity="0" result="BackgroundImageFix"/>
<feColorMatrix in="SourceAlpha" type="matrix" values="0 0 0 0 0 0 0 0 0 0 0 0 0 0 0 0 0 0 127 0" result="hardAlpha"/>
<feOffset dx="14" dy="14"/>
<feGaussianBlur stdDeviation="20"/>
<feComposite in2="hardAlpha" operator="out"/>
<feColorMatrix type="matrix" values="0 0 0 0 0.105882 0 0 0 0 0.137255 0 0 0 0 0.239216 0 0 0 0.1 0"/>
<feBlend mode="normal" in2="BackgroundImageFix" result="effect1_dropShadow_589_1147"/>
<feBlend mode="normal" in="SourceGraphic" in2="effect1_dropShadow_589_1147" result="shape"/>
</filter>
<filter id="filter13_d_589_1147" x="555" y="250" width="150" height="150" filterUnits="userSpaceOnUse" color-interpolation-filters="sRGB">
<feFlood flood-opacity="0" result="BackgroundImageFix"/>
<feColorMatrix in="SourceAlpha" type="matrix" values="0 0 0 0 0 0 0 0 0 0 0 0 0 0 0 0 0 0 127 0" result="hardAlpha"/>
<feOffset dx="14" dy="14"/>
<feGaussianBlur stdDeviation="20"/>
<feComposite in2="hardAlpha" operator="out"/>
<feColorMatrix type="matrix" values="0 0 0 0 0.105882 0 0 0 0 0.137255 0 0 0 0 0.239216 0 0 0 0.1 0"/>
<feBlend mode="normal" in2="BackgroundImageFix" result="effect1_dropShadow_589_1147"/>
<feBlend mode="normal" in="SourceGraphic" in2="effect1_dropShadow_589_1147" result="shape"/>
</filter>
<filter id="filter14_d_589_1147" x="488" y="130" width="150" height="150" filterUnits="userSpaceOnUse" color-interpolation-filters="sRGB">
<feFlood flood-opacity="0" result="BackgroundImageFix"/>
<feColorMatrix in="SourceAlpha" type="matrix" values="0 0 0 0 0 0 0 0 0 0 0 0 0 0 0 0 0 0 127 0" result="hardAlpha"/>
<feOffset dx="14" dy="14"/>
<feGaussianBlur stdDeviation="20"/>
<feComposite in2="hardAlpha" operator="out"/>
<feColorMatrix type="matrix" values="0 0 0 0 0.105882 0 0 0 0 0.137255 0 0 0 0 0.239216 0 0 0 0.1 0"/>
<feBlend mode="normal" in2="BackgroundImageFix" result="effect1_dropShadow_589_1147"/>
<feBlend mode="normal" in="SourceGraphic" in2="effect1_dropShadow_589_1147" result="shape"/>
</filter>
<filter id="filter15_d_589_1147" x="379.692" y="24.6923" width="96.4615" height="96.4615" filterUnits="userSpaceOnUse" color-interpolation-filters="sRGB">
<feFlood flood-opacity="0" result="BackgroundImageFix"/>
<feColorMatrix in="SourceAlpha" type="matrix" values="0 0 0 0 0 0 0 0 0 0 0 0 0 0 0 0 0 0 127 0" result="hardAlpha"/>
<feOffset dx="2.92308" dy="2.92308"/>
<feGaussianBlur stdDeviation="14.6154"/>
<feComposite in2="hardAlpha" operator="out"/>
<feColorMatrix type="matrix" values="0 0 0 0 0.105882 0 0 0 0 0.137255 0 0 0 0 0.239216 0 0 0 0.07 0"/>
<feBlend mode="normal" in2="BackgroundImageFix" result="effect1_dropShadow_589_1147"/>
<feBlend mode="normal" in="SourceGraphic" in2="effect1_dropShadow_589_1147" result="shape"/>
</filter>
<filter id="filter16_d_589_1147" x="94.6923" y="507.692" width="96.4615" height="96.4615" filterUnits="userSpaceOnUse" color-interpolation-filters="sRGB">
<feFlood flood-opacity="0" result="BackgroundImageFix"/>
<feColorMatrix in="SourceAlpha" type="matrix" values="0 0 0 0 0 0 0 0 0 0 0 0 0 0 0 0 0 0 127 0" result="hardAlpha"/>
<feOffset dx="2.92308" dy="2.92308"/>
<feGaussianBlur stdDeviation="14.6154"/>
<feComposite in2="hardAlpha" operator="out"/>
<feColorMatrix type="matrix" values="0 0 0 0 0.105882 0 0 0 0 0.137255 0 0 0 0 0.239216 0 0 0 0.07 0"/>
<feBlend mode="normal" in2="BackgroundImageFix" result="effect1_dropShadow_589_1147"/>
<feBlend mode="normal" in="SourceGraphic" in2="effect1_dropShadow_589_1147" result="shape"/>
</filter>
<filter id="filter17_d_589_1147" x="703.692" y="199.692" width="96.4615" height="96.4615" filterUnits="userSpaceOnUse" color-interpolation-filters="sRGB">
<feFlood flood-opacity="0" result="BackgroundImageFix"/>
<feColorMatrix in="SourceAlpha" type="matrix" values="0 0 0 0 0 0 0 0 0 0 0 0 0 0 0 0 0 0 127 0" result="hardAlpha"/>
<feOffset dx="2.92308" dy="2.92308"/>
<feGaussianBlur stdDeviation="14.6154"/>
<feComposite in2="hardAlpha" operator="out"/>
<feColorMatrix type="matrix" values="0 0 0 0 0.105882 0 0 0 0 0.137255 0 0 0 0 0.239216 0 0 0 0.07 0"/>
<feBlend mode="normal" in2="BackgroundImageFix" result="effect1_dropShadow_589_1147"/>
<feBlend mode="normal" in="SourceGraphic" in2="effect1_dropShadow_589_1147" result="shape"/>
</filter>
<linearGradient id="paint0_linear_589_1147" x1="305.029" y1="308.751" x2="320.107" y2="325.293" gradientUnits="userSpaceOnUse">
<stop stop-color="white" stop-opacity="0.18"/>
<stop offset="1" stop-color="white"/>
</linearGradient>
<linearGradient id="paint1_linear_589_1147" x1="303.001" y1="299.774" x2="319.587" y2="317.97" gradientUnits="userSpaceOnUse">
<stop stop-color="white" stop-opacity="0.18"/>
<stop offset="1" stop-color="white"/>
</linearGradient>
</defs>
</svg>
