<svg width="312" height="296" viewBox="0 0 312 296" fill="none" xmlns="http://www.w3.org/2000/svg">
<circle cx="5" cy="5" r="5" fill="#F4F6FA"/>
<circle cx="31" cy="5" r="5" fill="#F4F6FA"/>
<circle cx="57" cy="5" r="5" fill="#F4F6FA"/>
<circle cx="83" cy="5" r="5" fill="#F4F6FA"/>
<circle cx="109" cy="5" r="5" fill="#F4F6FA"/>
<circle cx="135" cy="5" r="5" fill="#F4F6FA"/>
<circle cx="161" cy="5" r="5" fill="#F4F6FA"/>
<circle cx="187" cy="5" r="5" fill="#F4F6FA"/>
<circle cx="213" cy="5" r="5" fill="#F4F6FA"/>
<circle cx="239" cy="5" r="5" fill="#F4F6FA"/>
<circle cx="265" cy="5" r="5" fill="#F4F6FA"/>
<circle cx="291" cy="5" r="5" fill="#F4F6FA"/>
<circle cx="5" cy="31" r="5" fill="#F4F6FA"/>
<circle cx="31" cy="31" r="5" fill="#F4F6FA"/>
<circle cx="57" cy="31" r="5" fill="#F4F6FA"/>
<circle cx="83" cy="31" r="5" fill="#F4F6FA"/>
<circle cx="109" cy="31" r="5" fill="#F4F6FA"/>
<circle cx="135" cy="31" r="5" fill="#F4F6FA"/>
<circle cx="161" cy="31" r="5" fill="#F4F6FA"/>
<circle cx="187" cy="31" r="5" fill="#F4F6FA"/>
<circle cx="213" cy="31" r="5" fill="#F4F6FA"/>
<circle cx="239" cy="31" r="5" fill="#F4F6FA"/>
<circle cx="265" cy="31" r="5" fill="#F4F6FA"/>
<circle cx="291" cy="31" r="5" fill="#F4F6FA"/>
<circle cx="5" cy="57" r="5" fill="#F4F6FA"/>
<circle cx="31" cy="57" r="5" fill="#F4F6FA"/>
<circle cx="57" cy="57" r="5" fill="#F4F6FA"/>
<circle cx="83" cy="57" r="5" fill="#F4F6FA"/>
<circle cx="109" cy="57" r="5" fill="#F4F6FA"/>
<circle cx="135" cy="57" r="5" fill="#F4F6FA"/>
<circle cx="161" cy="57" r="5" fill="#F4F6FA"/>
<circle cx="187" cy="57" r="5" fill="#F4F6FA"/>
<circle cx="213" cy="57" r="5" fill="#F4F6FA"/>
<circle cx="239" cy="57" r="5" fill="#F4F6FA"/>
<circle cx="265" cy="57" r="5" fill="#F4F6FA"/>
<circle cx="291" cy="57" r="5" fill="#F4F6FA"/>
<circle cx="5" cy="83" r="5" fill="#F4F6FA"/>
<circle cx="31" cy="83" r="5" fill="#F4F6FA"/>
<circle cx="57" cy="83" r="5" fill="#F4F6FA"/>
<circle cx="83" cy="83" r="5" fill="#F4F6FA"/>
<circle cx="109" cy="83" r="5" fill="#F4F6FA"/>
<circle cx="135" cy="83" r="5" fill="#F4F6FA"/>
<circle cx="161" cy="83" r="5" fill="#F4F6FA"/>
<circle cx="187" cy="83" r="5" fill="#F4F6FA"/>
<circle cx="213" cy="83" r="5" fill="#F4F6FA"/>
<circle cx="239" cy="83" r="5" fill="#F4F6FA"/>
<circle cx="265" cy="83" r="5" fill="#F4F6FA"/>
<circle cx="291" cy="83" r="5" fill="#F4F6FA"/>
<circle cx="5" cy="109" r="5" fill="#F4F6FA"/>
<circle cx="31" cy="109" r="5" fill="#F4F6FA"/>
<circle cx="57" cy="109" r="5" fill="#F4F6FA"/>
<circle cx="83" cy="109" r="5" fill="#F4F6FA"/>
<circle cx="109" cy="109" r="5" fill="#F4F6FA"/>
<circle cx="135" cy="109" r="5" fill="#F4F6FA"/>
<circle cx="161" cy="109" r="5" fill="#F4F6FA"/>
<circle cx="187" cy="109" r="5" fill="#F4F6FA"/>
<circle cx="213" cy="109" r="5" fill="#F4F6FA"/>
<circle cx="239" cy="109" r="5" fill="#F4F6FA"/>
<circle cx="265" cy="109" r="5" fill="#F4F6FA"/>
<circle cx="291" cy="109" r="5" fill="#F4F6FA"/>
<circle cx="5" cy="135" r="5" fill="#F4F6FA"/>
<circle cx="31" cy="135" r="5" fill="#F4F6FA"/>
<circle cx="57" cy="135" r="5" fill="#F4F6FA"/>
<circle cx="83" cy="135" r="5" fill="#F4F6FA"/>
<circle cx="109" cy="135" r="5" fill="#F4F6FA"/>
<circle cx="135" cy="135" r="5" fill="#F4F6FA"/>
<circle cx="161" cy="135" r="5" fill="#F4F6FA"/>
<circle cx="187" cy="135" r="5" fill="#F4F6FA"/>
<circle cx="213" cy="135" r="5" fill="#F4F6FA"/>
<circle cx="239" cy="135" r="5" fill="#F4F6FA"/>
<circle cx="265" cy="135" r="5" fill="#F4F6FA"/>
<circle cx="291" cy="135" r="5" fill="#F4F6FA"/>
<circle cx="5" cy="161" r="5" fill="#F4F6FA"/>
<circle cx="31" cy="161" r="5" fill="#F4F6FA"/>
<circle cx="57" cy="161" r="5" fill="#F4F6FA"/>
<circle cx="83" cy="161" r="5" fill="#F4F6FA"/>
<circle cx="109" cy="161" r="5" fill="#F4F6FA"/>
<circle cx="135" cy="161" r="5" fill="#F4F6FA"/>
<circle cx="161" cy="161" r="5" fill="#F4F6FA"/>
<circle cx="187" cy="161" r="5" fill="#F4F6FA"/>
<circle cx="213" cy="161" r="5" fill="#F4F6FA"/>
<circle cx="239" cy="161" r="5" fill="#F4F6FA"/>
<circle cx="265" cy="161" r="5" fill="#F4F6FA"/>
<circle cx="291" cy="161" r="5" fill="#F4F6FA"/>
<circle cx="5" cy="187" r="5" fill="#F4F6FA"/>
<circle cx="31" cy="187" r="5" fill="#F4F6FA"/>
<circle cx="57" cy="187" r="5" fill="#F4F6FA"/>
<circle cx="83" cy="187" r="5" fill="#F4F6FA"/>
<circle cx="109" cy="187" r="5" fill="#F4F6FA"/>
<circle cx="135" cy="187" r="5" fill="#F4F6FA"/>
<circle cx="161" cy="187" r="5" fill="#F4F6FA"/>
<circle cx="187" cy="187" r="5" fill="#F4F6FA"/>
<circle cx="213" cy="187" r="5" fill="#F4F6FA"/>
<circle cx="239" cy="187" r="5" fill="#F4F6FA"/>
<circle cx="265" cy="187" r="5" fill="#F4F6FA"/>
<circle cx="291" cy="187" r="5" fill="#F4F6FA"/>
<circle cx="5" cy="213" r="5" fill="#F4F6FA"/>
<circle cx="31" cy="213" r="5" fill="#F4F6FA"/>
<circle cx="57" cy="213" r="5" fill="#F4F6FA"/>
<circle cx="83" cy="213" r="5" fill="#F4F6FA"/>
<circle cx="109" cy="213" r="5" fill="#F4F6FA"/>
<circle cx="135" cy="213" r="5" fill="#F4F6FA"/>
<circle cx="161" cy="213" r="5" fill="#F4F6FA"/>
<circle cx="187" cy="213" r="5" fill="#F4F6FA"/>
<circle cx="213" cy="213" r="5" fill="#F4F6FA"/>
<circle cx="239" cy="213" r="5" fill="#F4F6FA"/>
<circle cx="265" cy="213" r="5" fill="#F4F6FA"/>
<circle cx="291" cy="213" r="5" fill="#F4F6FA"/>
<circle cx="5" cy="239" r="5" fill="#F4F6FA"/>
<circle cx="31" cy="239" r="5" fill="#F4F6FA"/>
<circle cx="57" cy="239" r="5" fill="#F4F6FA"/>
<circle cx="83" cy="239" r="5" fill="#F4F6FA"/>
<circle cx="109" cy="239" r="5" fill="#F4F6FA"/>
<circle cx="135" cy="239" r="5" fill="#F4F6FA"/>
<circle cx="161" cy="239" r="5" fill="#F4F6FA"/>
<circle cx="187" cy="239" r="5" fill="#F4F6FA"/>
<circle cx="213" cy="239" r="5" fill="#F4F6FA"/>
<circle cx="239" cy="239" r="5" fill="#F4F6FA"/>
<circle cx="265" cy="239" r="5" fill="#F4F6FA"/>
<circle cx="291" cy="239" r="5" fill="#F4F6FA"/>
<circle cx="5" cy="265" r="5" fill="#F4F6FA"/>
<circle cx="31" cy="265" r="5" fill="#F4F6FA"/>
<circle cx="57" cy="265" r="5" fill="#F4F6FA"/>
<circle cx="83" cy="265" r="5" fill="#F4F6FA"/>
<circle cx="109" cy="265" r="5" fill="#F4F6FA"/>
<circle cx="135" cy="265" r="5" fill="#F4F6FA"/>
<circle cx="161" cy="265" r="5" fill="#F4F6FA"/>
<circle cx="187" cy="265" r="5" fill="#F4F6FA"/>
<circle cx="213" cy="265" r="5" fill="#F4F6FA"/>
<circle cx="239" cy="265" r="5" fill="#F4F6FA"/>
<circle cx="265" cy="265" r="5" fill="#F4F6FA"/>
<circle cx="291" cy="265" r="5" fill="#F4F6FA"/>
<circle cx="5" cy="291" r="5" fill="#F4F6FA"/>
<circle cx="31" cy="291" r="5" fill="#F4F6FA"/>
<circle cx="57" cy="291" r="5" fill="#F4F6FA"/>
<circle cx="83" cy="291" r="5" fill="#F4F6FA"/>
<circle cx="109" cy="291" r="5" fill="#F4F6FA"/>
<circle cx="135" cy="291" r="5" fill="#F4F6FA"/>
<circle cx="161" cy="291" r="5" fill="#F4F6FA"/>
<circle cx="187" cy="291" r="5" fill="#F4F6FA"/>
<circle cx="213" cy="291" r="5" fill="#F4F6FA"/>
<circle cx="239" cy="291" r="5" fill="#F4F6FA"/>
<circle cx="265" cy="291" r="5" fill="#F4F6FA"/>
<circle cx="291" cy="291" r="5" fill="#F4F6FA"/>
</svg>
