<svg width="24" height="24" viewBox="0 0 24 24" fill="none" xmlns="http://www.w3.org/2000/svg">
<path d="M10.4946 0.0397536C8.80988 0.259423 6.82272 1.00966 5.35755 1.99157C4.14558 2.78862 2.48122 4.41633 2.58682 4.69362C2.81841 5.29501 6.52273 11.4854 6.58273 11.3701C6.62833 11.2897 6.69672 11.0352 6.73032 10.7819C7.03032 9.11941 8.44029 7.53611 10.2066 6.8771C10.8882 6.61182 11.0262 6.61182 16.8005 6.553L22.7008 6.49658L22.2268 5.72114C20.5648 3.00829 18.0005 1.1369 14.7905 0.305037C13.9134 0.0733641 11.4186 -0.0766831 10.4946 0.0409539V0.0397536Z" fill="white"/>
<path d="M1.44343 6.25408C0.899841 7.21318 0.263855 9.15299 0.115058 10.2849C-0.590526 15.4142 1.99662 20.3681 6.56971 22.6668C7.64249 23.2094 9.17845 23.7292 9.84804 23.7868L10.2752 23.8216L12.284 20.4149C13.382 18.5435 14.2699 16.9951 14.2471 16.9723C14.2231 16.9494 13.9699 17.0191 13.67 17.1223C11.7872 17.7585 9.60565 17.2255 8.18608 15.7827C7.67729 15.2737 6.9837 14.1538 4.77815 10.3306C3.25539 7.68613 1.97382 5.51465 1.92702 5.51465C1.89342 5.51465 1.67382 5.84955 1.44343 6.25408Z" fill="white"/>
<path d="M15.7834 8.15935C17.2498 9.65022 17.7694 11.7641 17.1226 13.6691C17.0194 13.9812 15.6682 16.3951 14.1215 19.0528C12.5735 21.6972 11.3027 23.8915 11.3027 23.9263C11.3027 24.0644 12.8963 23.9947 13.9127 23.8219C19.0966 22.9336 23.0001 19.018 23.8305 13.8876C24.1424 12.0174 24.0272 10.3765 23.4621 8.48225L23.1621 7.47754H15.1138L15.7822 8.15935H15.7834Z" fill="white"/>
<path d="M10.334 7.86997C9.12203 8.37893 8.29045 9.2348 7.84046 10.4472C7.63286 10.991 7.59806 11.303 7.63286 12.1565C7.66886 13.0568 7.71446 13.3125 8.04925 13.9703C8.48844 14.8706 9.20363 15.5656 10.1504 16.0145C10.7048 16.2798 10.9352 16.3146 11.9984 16.3146C13.0723 16.3146 13.2907 16.2798 13.8691 16.0025C14.7235 15.6112 15.6235 14.7097 16.0171 13.8539C16.2931 13.2777 16.3279 13.058 16.3279 11.9837C16.3279 10.9201 16.2931 10.6897 16.0279 10.1351C15.5779 9.18918 14.8855 8.47136 13.9843 8.03442C13.3027 7.69831 13.0939 7.6527 12.1124 7.61669C11.1668 7.59388 10.9244 7.62869 10.3364 7.87117L10.334 7.86997Z" fill="white"/>
</svg>
