<svg width="24" height="24" viewBox="0 0 24 24" fill="none" xmlns="http://www.w3.org/2000/svg">
<path d="M11.9697 0.0021251C11.9697 0.0021251 19.043 -0.314145 22.7931 6.76991H11.3678C11.3678 6.76991 9.21169 6.70067 7.36984 9.30699C6.84075 10.4009 6.27204 11.5278 6.91025 13.7486C5.99087 12.1966 2.0293 5.3235 2.0293 5.3235C2.0293 5.3235 4.82358 0.282183 11.9696 0.0021251H11.9697Z" fill="#EF3F36"/>
<path d="M22.4257 17.9856C22.4257 17.9856 19.1618 24.2492 11.1328 23.9395C12.1249 22.2294 16.847 14.0811 16.847 14.0811C16.847 14.0811 17.9879 12.2557 16.642 9.36278C15.9574 8.35782 15.2597 7.30674 13.0111 6.74654C14.82 6.73016 22.773 6.74654 22.773 6.74654C22.773 6.74654 25.7524 11.6791 22.4257 17.9856Z" fill="#FCD900"/>
<path d="M1.56272 18.0352C1.56272 18.0352 -2.2501 12.0878 2.03555 5.31348C3.02433 7.02358 7.74647 15.1719 7.74647 15.1719C7.74647 15.1719 8.76502 17.0698 11.9495 17.353C13.1632 17.2642 14.4264 17.1884 16.0402 15.531C15.1505 17.0995 11.1591 23.9529 11.1591 23.9529C11.1591 23.9529 5.37873 24.0583 1.56263 18.0352H1.56272Z" fill="#61BC5B"/>
<path d="M11.1289 23.9989L12.736 17.3168C12.736 17.3168 14.5019 17.1783 15.9834 15.5605C15.064 17.1718 11.1289 23.9989 11.1289 23.9989Z" fill="#61BC5B"/>
<path d="M22.7696 6.75011L16.1526 8.68421C16.1526 8.68421 15.1539 7.22451 13.0078 6.75011C14.8696 6.74019 22.7696 6.75011 22.7696 6.75011Z" fill="#FCD900"/>
<path d="M6.78131 13.5045C5.85198 11.8999 2.0293 5.32324 2.0293 5.32324L6.93006 10.1536C6.93006 10.1536 6.42736 11.1849 6.61593 12.661L6.78121 13.5045H6.78131Z" fill="#EF3F36"/>
<path d="M6.39453 12.0225C6.39453 8.93289 8.89946 6.42725 11.9882 6.42725C15.0769 6.42725 17.5819 8.93289 17.5819 12.0225C17.5819 15.1122 15.0769 17.6178 11.9882 17.6178C8.89946 17.6143 6.39453 15.1122 6.39453 12.0225Z" fill="white"/>
<path d="M7.34766 12.0227C7.34766 9.46024 9.424 7.37988 11.9893 7.37988C14.551 7.37988 16.6308 9.45681 16.6308 12.0227C16.6308 14.5853 14.5545 16.6656 11.9893 16.6656C9.42742 16.6656 7.34766 14.5853 7.34766 12.0227Z" fill="#4285F4"/>
</svg>
