<svg width="20" height="20" viewBox="0 0 20 20" fill="none" xmlns="http://www.w3.org/2000/svg">
<path d="M17.9498 14.8508C17.6839 14.9893 17.4101 15.1124 17.1286 15.2124C16.2291 15.5433 15.2827 15.7126 14.3207 15.7126C10.6212 15.7126 7.39882 13.2118 7.39882 9.99542C7.40664 9.11823 7.89938 8.31029 8.68152 7.89478C5.33398 8.03328 4.47363 11.4651 4.47363 13.4734C4.47363 19.1598 9.79997 19.7369 10.9497 19.7369C11.5676 19.7369 12.4983 19.5599 13.0615 19.3829L13.1632 19.3521C15.3218 18.6212 17.152 17.1899 18.3722 15.2894C18.466 15.1432 18.4191 14.9585 18.2783 14.8662C18.1766 14.8046 18.0515 14.7969 17.9498 14.8508Z" fill="url(#paint0_linear_589_1340)"/>
<path opacity="0.35" d="M17.9498 14.8508C17.6839 14.9893 17.4101 15.1124 17.1286 15.2124C16.2291 15.5433 15.2827 15.7126 14.3207 15.7126C10.6212 15.7126 7.39882 13.2118 7.39882 9.99542C7.40664 9.11823 7.89938 8.31029 8.68152 7.89478C5.33398 8.03328 4.47363 11.4651 4.47363 13.4734C4.47363 19.1598 9.79997 19.7369 10.9497 19.7369C11.5676 19.7369 12.4983 19.5599 13.0615 19.3829L13.1632 19.3521C15.3218 18.6212 17.152 17.1899 18.3722 15.2894C18.466 15.1432 18.4191 14.9585 18.2783 14.8662C18.1766 14.8046 18.0515 14.7969 17.9498 14.8508Z" fill="url(#paint1_radial_589_1340)"/>
<path d="M8.24633 18.848C7.55137 18.4163 6.95012 17.8433 6.4738 17.1762C4.42016 14.3507 5.03703 10.3871 7.8481 8.32284C8.14482 8.11093 8.44935 7.91471 8.77731 7.75773C9.01938 7.64 9.43323 7.43594 9.98763 7.44378C10.7763 7.45163 11.5181 7.82837 11.9944 8.46412C12.3068 8.88795 12.4864 9.39812 12.4942 9.93183C12.4942 9.91613 14.4073 3.68425 6.24735 3.68425C2.81941 3.68425 0.000532859 6.95716 0.000532859 9.82195C-0.0150842 11.3368 0.312874 12.8437 0.945364 14.2172C3.10052 18.8323 8.34784 21.0927 13.1579 19.4837C11.5103 20.0017 9.71433 19.7741 8.24633 18.848Z" fill="url(#paint2_linear_589_1340)"/>
<path opacity="0.41" d="M8.24633 18.848C7.55137 18.4163 6.95012 17.8433 6.4738 17.1762C4.42016 14.3507 5.03703 10.3871 7.8481 8.32284C8.14482 8.11093 8.44935 7.91471 8.77731 7.75773C9.01938 7.64 9.43323 7.43594 9.98763 7.44378C10.7763 7.45163 11.5181 7.82837 11.9944 8.46412C12.3068 8.88795 12.4864 9.39812 12.4942 9.93183C12.4942 9.91613 14.4073 3.68425 6.24735 3.68425C2.81941 3.68425 0.000532859 6.95716 0.000532859 9.82195C-0.0150842 11.3368 0.312874 12.8437 0.945364 14.2172C3.10052 18.8323 8.34784 21.0927 13.1579 19.4837C11.5103 20.0017 9.71433 19.7741 8.24633 18.848Z" fill="url(#paint3_radial_589_1340)"/>
<path d="M11.8981 11.717C11.8356 11.7957 11.6403 11.9137 11.6403 12.1655C11.6403 12.3701 11.7731 12.5668 12.0074 12.7321C13.1324 13.519 15.2495 13.4167 15.2573 13.4167C16.0933 13.4167 16.9057 13.1885 17.6245 12.7636C19.0932 11.898 19.9994 10.3163 19.9994 8.60085C20.0228 6.83819 19.3744 5.6657 19.1166 5.14635C17.4604 1.8807 13.8824 0 9.99969 0C4.53111 0 0.0781226 4.42239 0 9.93072C0.0390613 7.05852 2.87491 4.73716 6.24981 4.73716C6.52324 4.73716 8.08569 4.76076 9.53095 5.53193C10.8044 6.20866 11.4762 7.01917 11.9371 7.82968C12.4215 8.67167 12.5074 9.72612 12.5074 10.151C12.5074 10.5681 12.2965 11.1976 11.8981 11.717Z" fill="url(#paint4_radial_589_1340)"/>
<path d="M11.8981 11.717C11.8356 11.7957 11.6403 11.9137 11.6403 12.1655C11.6403 12.3701 11.7731 12.5668 12.0074 12.7321C13.1324 13.519 15.2495 13.4167 15.2573 13.4167C16.0933 13.4167 16.9057 13.1885 17.6245 12.7636C19.0932 11.898 19.9994 10.3163 19.9994 8.60085C20.0228 6.83819 19.3744 5.6657 19.1166 5.14635C17.4604 1.8807 13.8824 0 9.99969 0C4.53111 0 0.0781226 4.42239 0 9.93072C0.0390613 7.05852 2.87491 4.73716 6.24981 4.73716C6.52324 4.73716 8.08569 4.76076 9.53095 5.53193C10.8044 6.20866 11.4762 7.01917 11.9371 7.82968C12.4215 8.67167 12.5074 9.72612 12.5074 10.151C12.5074 10.5681 12.2965 11.1976 11.8981 11.717Z" fill="url(#paint5_radial_589_1340)"/>
<defs>
<linearGradient id="paint0_linear_589_1340" x1="4.47395" y1="13.8135" x2="18.4181" y2="13.8135" gradientUnits="userSpaceOnUse">
<stop stop-color="#0C59A4"/>
<stop offset="1" stop-color="#114A8B"/>
</linearGradient>
<radialGradient id="paint1_radial_589_1340" cx="0" cy="0" r="1" gradientUnits="userSpaceOnUse" gradientTransform="translate(12.177 13.9225) scale(7.45926 6.97075)">
<stop offset="0.72" stop-opacity="0"/>
<stop offset="0.95" stop-opacity="0.53"/>
<stop offset="1"/>
</radialGradient>
<linearGradient id="paint2_linear_589_1340" x1="11.9219" y1="7.72995" x2="3.17681" y2="17.2066" gradientUnits="userSpaceOnUse">
<stop stop-color="#1B9DE2"/>
<stop offset="0.16" stop-color="#1595DF"/>
<stop offset="0.67" stop-color="#0680D7"/>
<stop offset="1" stop-color="#0078D4"/>
</linearGradient>
<radialGradient id="paint3_radial_589_1340" cx="0" cy="0" r="1" gradientUnits="userSpaceOnUse" gradientTransform="translate(5.50621 15.5209) rotate(-81.4261) scale(11.2536 9.04907)">
<stop offset="0.76" stop-opacity="0"/>
<stop offset="0.95" stop-opacity="0.5"/>
<stop offset="1"/>
</radialGradient>
<radialGradient id="paint4_radial_589_1340" cx="0" cy="0" r="1" gradientUnits="userSpaceOnUse" gradientTransform="translate(2.01959 3.72935) rotate(92.2746) scale(15.9386 33.707)">
<stop stop-color="#35C1F1"/>
<stop offset="0.11" stop-color="#34C1ED"/>
<stop offset="0.23" stop-color="#2FC2DF"/>
<stop offset="0.31" stop-color="#2BC3D2"/>
<stop offset="0.67" stop-color="#36C752"/>
</radialGradient>
<radialGradient id="paint5_radial_589_1340" cx="0" cy="0" r="1" gradientUnits="userSpaceOnUse" gradientTransform="translate(18.7541 6.09108) rotate(73.8478) scale(7.65392 6.18743)">
<stop stop-color="#66EB6E"/>
<stop offset="1" stop-color="#66EB6E" stop-opacity="0"/>
</radialGradient>
</defs>
</svg>
