<svg width="20" height="20" viewBox="0 0 20 20" fill="none" xmlns="http://www.w3.org/2000/svg">
<path opacity="0.25" d="M8.87944 13.4376C8.18994 12.6638 7.72027 11.7393 7.57038 10.7042C7.2706 11.1664 7.02077 11.6689 6.8409 12.2116C5.92156 14.9752 7.52042 18.4222 10.2385 19.4272C12.5768 20.211 15.2049 18.8142 16.9337 17.2866C17.1935 16.9349 19.242 15.1159 18.2227 14.9149C15.2049 16.4726 11.2078 16.0304 8.87944 13.4376ZM9.47901 7.59886C10.5183 7.58881 9.51898 7.16673 9.08929 6.84514C8.05004 6.27232 6.83091 5.99093 5.65176 5.99093C1.80452 6.03113 -0.978489 8.45307 0.325576 12.4628C1.2649 16.3621 4.63249 19.4975 8.60964 20C6.5611 18.7036 5.32199 16.2716 5.32199 13.8497C5.40194 11.3071 6.96082 8.32243 9.47901 7.59886ZM0.805232 6.27232C3.84305 4.02122 8.67958 4.20211 11.2977 7.03609C12.317 8.15159 13.0165 10.0509 12.0871 11.4277C10.3484 13.3171 15.1649 13.5683 16.1942 13.2869C19.9315 12.5633 20.9208 8.19178 19.1421 5.17692C17.4433 1.76007 13.676 -0.0287462 9.97865 0.0014024C5.92156 -0.0689444 2.27418 2.51379 0.805232 6.27232Z" fill="black"/>
</svg>
