<svg width="36" height="36" viewBox="0 0 36 36" fill="none" xmlns="http://www.w3.org/2000/svg">
<path d="M18 32.625C26.0772 32.625 32.625 26.0772 32.625 18C32.625 9.92284 26.0772 3.375 18 3.375C9.92284 3.375 3.375 9.92284 3.375 18C3.375 26.0772 9.92284 32.625 18 32.625Z" fill="#005A9B"/>
<mask id="mask0_615_105" style="mask-type:alpha" maskUnits="userSpaceOnUse" x="3" y="3" width="30" height="30">
<path d="M18 32.625C26.0772 32.625 32.625 26.0772 32.625 18C32.625 9.92284 26.0772 3.375 18 3.375C9.92284 3.375 3.375 9.92284 3.375 18C3.375 26.0772 9.92284 32.625 18 32.625Z" fill="white"/>
</mask>
<g mask="url(#mask0_615_105)">
<path d="M18 34.3125C26.3878 34.3125 33.1875 27.5128 33.1875 19.125C33.1875 10.7372 26.3878 3.9375 18 3.9375C9.61218 3.9375 2.8125 10.7372 2.8125 19.125C2.8125 27.5128 9.61218 34.3125 18 34.3125Z" fill="#0093FF"/>
</g>
<path d="M18 29.25C24.2132 29.25 29.25 24.2132 29.25 18C29.25 11.7868 24.2132 6.75 18 6.75C11.7868 6.75 6.75 11.7868 6.75 18C6.75 24.2132 11.7868 29.25 18 29.25Z" fill="#0077D1"/>
<path d="M18 25.875C22.3492 25.875 25.875 22.3492 25.875 18C25.875 13.6508 22.3492 10.125 18 10.125C13.6508 10.125 10.125 13.6508 10.125 18C10.125 22.3492 13.6508 25.875 18 25.875Z" fill="#0060A8"/>
<path d="M18 22.5C20.4853 22.5 22.5 20.4853 22.5 18C22.5 15.5147 20.4853 13.5 18 13.5C15.5147 13.5 13.5 15.5147 13.5 18C13.5 20.4853 15.5147 22.5 18 22.5Z" fill="#004C85"/>
<path opacity="0.4" fill-rule="evenodd" clip-rule="evenodd" d="M18 8.325C18 13.6125 13.6125 18 8.1 18C5.9625 18 3.9375 17.325 2.25 16.0875C2.3625 15.1875 2.5875 14.4 2.925 13.5C3.6 11.475 4.725 9.675 6.075 7.9875C7.425 6.4125 9.1125 5.0625 11.025 4.05C12.4875 3.2625 14.0625 2.7 15.75 2.25C17.1 3.9375 18 6.075 18 8.325Z" fill="url(#paint0_linear_615_105)"/>
<path fill-rule="evenodd" clip-rule="evenodd" d="M18 36C8.1 36 0 27.9 0 18C0 8.1 8.1 0 18 0C27.9 0 36 8.1 36 18C36 27.9 27.9 36 18 36ZM18 32.625C26.1 32.625 32.625 26.1 32.625 18C32.625 9.9 26.1 3.375 18 3.375C9.9 3.375 3.375 9.9 3.375 18C3.375 26.1 9.9 32.625 18 32.625Z" fill="#D8D8D8"/>
<mask id="mask1_615_105" style="mask-type:alpha" maskUnits="userSpaceOnUse" x="0" y="0" width="36" height="36">
<path fill-rule="evenodd" clip-rule="evenodd" d="M18 36C8.1 36 0 27.9 0 18C0 8.1 8.1 0 18 0C27.9 0 36 8.1 36 18C36 27.9 27.9 36 18 36ZM18 32.625C26.1 32.625 32.625 26.1 32.625 18C32.625 9.9 26.1 3.375 18 3.375C9.9 3.375 3.375 9.9 3.375 18C3.375 26.1 9.9 32.625 18 32.625Z" fill="white"/>
</mask>
<g mask="url(#mask1_615_105)">
<path d="M-2.891 22.8577L31.0977 -3.69775L25.1653 -11.4405L-8.82333 15.1149L-2.891 22.8577Z" fill="#CD2A9D"/>
<path fill-rule="evenodd" clip-rule="evenodd" d="M31.4098 -3.53523L35.0638 1.04612L1.82018 31.2847L-1.02822 18.2252L31.4098 -3.53523Z" fill="#FF4995"/>
<path fill-rule="evenodd" clip-rule="evenodd" d="M29.787 2.20157L38.0775 5.52531L9.77821 37.148L3.09918 30.4957L29.787 2.20157Z" fill="#FF5C43"/>
<path fill-rule="evenodd" clip-rule="evenodd" d="M35.0516 4.44153L47.1619 13.6608L16.2681 44.1391L10.8785 36.1744L35.0516 4.44153Z" fill="#FFA246"/>
<path fill-rule="evenodd" clip-rule="evenodd" d="M38.5976 15.3509L52.1855 22.2803L44.8381 39.1296L25.934 35.0919L38.5976 15.3509Z" fill="#FEE48E"/>
</g>
<defs>
<linearGradient id="paint0_linear_615_105" x1="6.43635" y1="6.38212" x2="15.039" y2="15.8195" gradientUnits="userSpaceOnUse">
<stop stop-color="white" stop-opacity="0.18"/>
<stop offset="1" stop-color="white"/>
</linearGradient>
</defs>
</svg>
