<svg width="220" height="180" viewBox="0 0 220 180" fill="none" xmlns="http://www.w3.org/2000/svg">
<g filter="url(#filter0_d_589_568)">
<rect x="30" y="30" width="140" height="100" rx="16" fill="white"/>
</g>
<path d="M106.256 38.3958L103.5 39.875V37.8333C103.5 37.6123 103.408 37.4004 103.244 37.2441C103.08 37.0878 102.857 37 102.625 37H94.75C94.2859 37 93.8408 37.1756 93.5126 37.4882C93.1844 37.8007 93 38.2246 93 38.6667V45.3333C93 45.7754 93.1844 46.1993 93.5126 46.5118C93.8408 46.8244 94.2859 47 94.75 47H102.625C102.857 47 103.08 46.9122 103.244 46.7559C103.408 46.5996 103.5 46.3877 103.5 46.1667V44.1167L106.256 45.5958C106.327 45.6398 106.409 45.6653 106.493 45.6698C106.577 45.6742 106.661 45.6574 106.737 45.6211C106.812 45.5848 106.876 45.5302 106.922 45.4629C106.969 45.3956 106.995 45.3178 107 45.2375V38.75C106.995 38.67 106.967 38.5928 106.921 38.526C106.874 38.4593 106.81 38.4053 106.735 38.3694C106.66 38.3336 106.576 38.3172 106.492 38.3218C106.408 38.3264 106.327 38.352 106.256 38.3958Z" fill="#0093FF"/>
<path opacity="0.15" d="M42 104V113C42 115.761 44.2386 118 47 118H56" stroke="#1B233D" stroke-width="2" stroke-linecap="round"/>
<path opacity="0.15" d="M42 56V47C42 44.2386 44.2386 42 47 42H56" stroke="#1B233D" stroke-width="2" stroke-linecap="round"/>
<path opacity="0.15" d="M158 104V113C158 115.761 155.761 118 153 118H144" stroke="#1B233D" stroke-width="2" stroke-linecap="round"/>
<path opacity="0.15" d="M158 56V47C158 44.2386 155.761 42 153 42H144" stroke="#1B233D" stroke-width="2" stroke-linecap="round"/>
<path d="M82.1376 83.5881L76.2661 90.9748C74.8246 92.7884 76.116 95.4647 78.4327 95.4647H122.265C124.582 95.4647 125.873 92.7884 124.432 90.9748L106.32 68.1887C105.212 66.7946 103.095 66.7946 101.987 68.1887L89.7462 83.5881C88.7734 84.8119 86.9147 84.8119 85.9419 83.5881C84.9691 82.3642 83.1104 82.3642 82.1376 83.5881Z" fill="#1B233D"/>
<circle cx="85.948" cy="70.9133" r="4.85029" fill="#1B233D"/>
<circle cx="91" cy="118" r="3" fill="#EF3F36"/>
<path d="M97.7404 121V115.4H99.8364C100.284 115.4 100.655 115.477 100.948 115.632C101.247 115.787 101.468 115.995 101.612 116.256C101.756 116.512 101.828 116.797 101.828 117.112C101.828 117.411 101.756 117.691 101.612 117.952C101.474 118.208 101.255 118.416 100.956 118.576C100.663 118.731 100.284 118.808 99.8204 118.808H98.8204V121H97.7404ZM100.644 121L99.4924 118.536H100.66L101.876 121H100.644ZM98.8204 118.024H99.7644C100.095 118.024 100.338 117.944 100.492 117.784C100.647 117.624 100.724 117.413 100.724 117.152C100.724 116.891 100.647 116.685 100.492 116.536C100.343 116.381 100.1 116.304 99.7644 116.304H98.8204V118.024ZM102.858 121V115.4H106.546V116.272H103.938V117.736H106.306V118.576H103.938V120.128H106.546V121H102.858ZM110.016 121.096C109.472 121.096 109.003 120.976 108.608 120.736C108.214 120.491 107.91 120.152 107.696 119.72C107.483 119.283 107.376 118.779 107.376 118.208C107.376 117.637 107.483 117.133 107.696 116.696C107.91 116.259 108.214 115.917 108.608 115.672C109.003 115.427 109.472 115.304 110.016 115.304C110.688 115.304 111.238 115.472 111.664 115.808C112.091 116.144 112.355 116.619 112.456 117.232H111.296C111.222 116.933 111.075 116.701 110.856 116.536C110.638 116.365 110.355 116.28 110.008 116.28C109.688 116.28 109.414 116.36 109.184 116.52C108.955 116.675 108.779 116.896 108.656 117.184C108.539 117.467 108.48 117.808 108.48 118.208C108.48 118.603 108.539 118.944 108.656 119.232C108.779 119.52 108.955 119.741 109.184 119.896C109.414 120.051 109.688 120.128 110.008 120.128C110.355 120.128 110.638 120.051 110.856 119.896C111.075 119.736 111.222 119.515 111.296 119.232H112.456C112.355 119.813 112.091 120.269 111.664 120.6C111.238 120.931 110.688 121.096 110.016 121.096Z" fill="#1B233D"/>
<defs>
<filter id="filter0_d_589_568" x="0" y="0" width="220" height="180" filterUnits="userSpaceOnUse" color-interpolation-filters="sRGB">
<feFlood flood-opacity="0" result="BackgroundImageFix"/>
<feColorMatrix in="SourceAlpha" type="matrix" values="0 0 0 0 0 0 0 0 0 0 0 0 0 0 0 0 0 0 127 0" result="hardAlpha"/>
<feOffset dx="10" dy="10"/>
<feGaussianBlur stdDeviation="20"/>
<feComposite in2="hardAlpha" operator="out"/>
<feColorMatrix type="matrix" values="0 0 0 0 0.105882 0 0 0 0 0.137255 0 0 0 0 0.239216 0 0 0 0.05 0"/>
<feBlend mode="normal" in2="BackgroundImageFix" result="effect1_dropShadow_589_568"/>
<feBlend mode="normal" in="SourceGraphic" in2="effect1_dropShadow_589_568" result="shape"/>
</filter>
</defs>
</svg>
