<svg width="220" height="170" viewBox="0 0 220 170" fill="none" xmlns="http://www.w3.org/2000/svg">
<g filter="url(#filter0_d_589_583)">
<rect x="30" y="30" width="140" height="90" rx="16" fill="white"/>
</g>
<g filter="url(#filter1_d_589_583)">
<rect x="35" y="35" width="130" height="80" rx="12" fill="white"/>
</g>
<g filter="url(#filter2_d_589_583)">
<rect x="134" y="62" width="26" height="26" rx="8" fill="#0093FF"/>
</g>
<rect x="44" y="20" width="85" height="85" rx="12" fill="#0093FF" fill-opacity="0.05" stroke="#0093FF" stroke-width="1.5" stroke-linecap="round" stroke-dasharray="4 6"/>
<g clip-path="url(#clip0_589_583)">
<path fill-rule="evenodd" clip-rule="evenodd" d="M145.21 101.5L143.574 96.5942L141.857 101.5H145.21ZM145.71 103L146.539 105.487C146.67 105.88 147.094 106.092 147.487 105.962C147.88 105.831 148.093 105.406 147.962 105.013L144.735 95.3315C144.569 94.835 144.104 94.5 143.581 94.5C143.064 94.5 142.604 94.8266 142.433 95.3144L139.042 105.002C138.905 105.393 139.111 105.821 139.502 105.958C139.893 106.095 140.321 105.889 140.458 105.498L141.332 103H145.71ZM148.841 98.6424C149.529 97.3741 150.869 97 152 97C153.5 97 155 97.9385 155 99.6011V105.25C155 105.664 154.664 106 154.25 106C153.933 106 153.662 105.803 153.552 105.525C152.995 105.82 152.3 106 151.5 106C150.73 106 149.986 105.769 149.422 105.291C148.845 104.803 148.5 104.092 148.5 103.25C148.5 102.556 148.765 101.839 149.387 101.306C150 100.78 150.881 100.5 152 100.5H153.5V99.6011C153.5 99.0615 153 98.5 152 98.5C151.131 98.5 150.472 98.7822 150.159 99.3576C149.962 99.7217 149.507 99.8568 149.143 99.6593C148.778 99.4618 148.643 99.0065 148.841 98.6424ZM153.5 102H152C151.119 102 150.625 102.22 150.363 102.444C150.11 102.661 150 102.944 150 103.25C150 103.658 150.155 103.947 150.391 104.146C150.639 104.356 151.02 104.5 151.5 104.5C152.232 104.5 152.76 104.292 153.088 104.051C153.439 103.794 153.5 103.556 153.5 103.5H153.5V102Z" fill="#DDDEE2"/>
</g>
<path d="M144.517 55.1875H141.375C141.226 55.1875 141.083 55.1283 140.977 55.0228C140.872 54.9173 140.812 54.7742 140.812 54.625V51.483C140.812 51.4092 140.827 51.336 140.855 51.2678C140.884 51.1995 140.925 51.1375 140.977 51.0853L149.415 42.6478C149.52 42.5423 149.663 42.483 149.812 42.483C149.962 42.483 150.105 42.5423 150.21 42.6478L153.352 45.7898C153.458 45.8953 153.517 46.0384 153.517 46.1875C153.517 46.3367 153.458 46.4798 153.352 46.5853L144.915 55.0228C144.863 55.075 144.801 55.1165 144.732 55.1447C144.664 55.173 144.591 55.1875 144.517 55.1875Z" stroke="#DDDEE2" stroke-width="1.5" stroke-linecap="round" stroke-linejoin="round"/>
<path d="M147.562 44.5L151.5 48.4375" stroke="#DDDEE2" stroke-width="1.5" stroke-linecap="round" stroke-linejoin="round"/>
<path d="M144.714 55.1517L140.849 51.2859" stroke="#DDDEE2" stroke-width="1.5" stroke-linecap="round" stroke-linejoin="round"/>
<path d="M142.499 70.5H140" stroke="white" stroke-width="1.5" stroke-linecap="round" stroke-linejoin="round"/>
<path d="M142.5 68V79.5001H154" stroke="white" stroke-width="1.5" stroke-linecap="round" stroke-linejoin="round"/>
<path d="M151.5 77.5001V70.5H144.5" stroke="white" stroke-width="1.5" stroke-linecap="round" stroke-linejoin="round"/>
<path d="M151.5 82V79.5" stroke="white" stroke-width="1.5" stroke-linecap="round" stroke-linejoin="round"/>
<path d="M67.7817 66.7807L61.5688 74.5969C60.1273 76.4105 61.4188 79.0868 63.7355 79.0868H109.568C111.885 79.0868 113.176 76.4105 111.734 74.5969L92.7602 50.7258C91.6521 49.3318 89.535 49.3318 88.4269 50.7258L75.6655 66.7807C74.6575 68.0488 72.7316 68.0488 71.7236 66.7807C70.7156 65.5125 68.7897 65.5125 67.7817 66.7807Z" fill="#1B233D"/>
<circle cx="71.7308" cy="53.6473" r="5.0257" fill="#1B233D"/>
<defs>
<filter id="filter0_d_589_583" x="0" y="0" width="220" height="170" filterUnits="userSpaceOnUse" color-interpolation-filters="sRGB">
<feFlood flood-opacity="0" result="BackgroundImageFix"/>
<feColorMatrix in="SourceAlpha" type="matrix" values="0 0 0 0 0 0 0 0 0 0 0 0 0 0 0 0 0 0 127 0" result="hardAlpha"/>
<feOffset dx="10" dy="10"/>
<feGaussianBlur stdDeviation="20"/>
<feComposite in2="hardAlpha" operator="out"/>
<feColorMatrix type="matrix" values="0 0 0 0 0.105882 0 0 0 0 0.137255 0 0 0 0 0.239216 0 0 0 0.05 0"/>
<feBlend mode="normal" in2="BackgroundImageFix" result="effect1_dropShadow_589_583"/>
<feBlend mode="normal" in="SourceGraphic" in2="effect1_dropShadow_589_583" result="shape"/>
</filter>
<filter id="filter1_d_589_583" x="5" y="5" width="210" height="160" filterUnits="userSpaceOnUse" color-interpolation-filters="sRGB">
<feFlood flood-opacity="0" result="BackgroundImageFix"/>
<feColorMatrix in="SourceAlpha" type="matrix" values="0 0 0 0 0 0 0 0 0 0 0 0 0 0 0 0 0 0 127 0" result="hardAlpha"/>
<feOffset dx="10" dy="10"/>
<feGaussianBlur stdDeviation="20"/>
<feComposite in2="hardAlpha" operator="out"/>
<feColorMatrix type="matrix" values="0 0 0 0 0.105882 0 0 0 0 0.137255 0 0 0 0 0.239216 0 0 0 0.05 0"/>
<feBlend mode="normal" in2="BackgroundImageFix" result="effect1_dropShadow_589_583"/>
<feBlend mode="normal" in="SourceGraphic" in2="effect1_dropShadow_589_583" result="shape"/>
</filter>
<filter id="filter2_d_589_583" x="104" y="32" width="106" height="106" filterUnits="userSpaceOnUse" color-interpolation-filters="sRGB">
<feFlood flood-opacity="0" result="BackgroundImageFix"/>
<feColorMatrix in="SourceAlpha" type="matrix" values="0 0 0 0 0 0 0 0 0 0 0 0 0 0 0 0 0 0 127 0" result="hardAlpha"/>
<feOffset dx="10" dy="10"/>
<feGaussianBlur stdDeviation="20"/>
<feComposite in2="hardAlpha" operator="out"/>
<feColorMatrix type="matrix" values="0 0 0 0 0.105882 0 0 0 0 0.137255 0 0 0 0 0.239216 0 0 0 0.05 0"/>
<feBlend mode="normal" in2="BackgroundImageFix" result="effect1_dropShadow_589_583"/>
<feBlend mode="normal" in="SourceGraphic" in2="effect1_dropShadow_589_583" result="shape"/>
</filter>
<clipPath id="clip0_589_583">
<rect width="16" height="16" fill="white" transform="translate(139 93)"/>
</clipPath>
</defs>
</svg>
