<svg width="20" height="20" viewBox="0 0 20 20" fill="none" xmlns="http://www.w3.org/2000/svg">
<path opacity="0.25" d="M19.9257 9.13812C19.9118 9.04167 19.8911 8.94624 19.8639 8.85249L19.6713 9.08819C19.6379 8.65743 19.5592 8.2311 19.4364 7.81584C19.2826 7.29546 19.0788 6.79024 18.8276 6.3068C18.6743 5.98327 18.488 5.67546 18.2713 5.388C18.1591 5.21822 18.0622 5.09238 18.0437 5.06641C17.6708 4.47818 17.2536 4.12064 16.7571 3.44752C16.4425 2.93057 16.2278 2.36233 16.1235 1.7707C15.9844 2.12565 15.8799 2.49244 15.8114 2.86627C15.3138 2.37791 14.8709 2.02137 14.6082 1.78768C13.303 0.606212 13.4617 0 13.4617 0C13.4617 0 11.0265 2.63158 12.0793 5.37002C12.4441 6.30223 13.0742 7.115 13.8964 7.71397C14.9152 8.52592 16.0102 9.16409 16.584 10.8109C16.1234 9.94578 15.4213 9.22355 14.5577 8.72666C14.8184 9.32787 14.9492 9.95706 14.9399 10.6082C14.9395 11.1946 14.8199 11.7752 14.5879 12.3167C14.3559 12.8583 14.0161 13.3502 13.5878 13.7644C13.1596 14.1785 12.6514 14.5067 12.0922 14.7303C11.5331 14.9539 10.9339 15.0685 10.3291 15.0674C9.98764 15.0693 9.64713 15.0328 9.3144 14.9586C8.91763 14.8857 8.53364 14.7582 8.17405 14.58C7.63334 14.2688 7.16535 13.8518 6.79986 13.3556V13.3486C6.82467 13.3593 6.85057 13.3673 6.87712 13.3726C7.06976 13.4395 7.26033 13.4905 7.4612 13.5254C8.24104 13.6839 9.0529 13.5917 9.77383 13.2628C10.5032 12.8673 10.9471 12.5786 11.3025 12.6895C11.661 12.7984 11.9289 12.4698 11.6868 12.1252C11.4738 11.8578 11.1893 11.6521 10.8643 11.5302C10.5392 11.4084 10.186 11.3752 9.84285 11.4341C9.11043 11.535 8.44188 12.0324 7.49417 11.551C7.42515 11.519 7.37364 11.4851 7.31287 11.4501C7.25106 11.4082 7.52095 11.501 7.4509 11.4591C7.24162 11.3597 7.04111 11.2438 6.85137 11.1126C6.8421 11.1036 7.00074 11.1555 6.98116 11.1455C6.73324 10.9826 6.52049 10.7743 6.35485 10.5323C6.27283 10.3838 6.22652 10.2193 6.21938 10.051C6.21225 9.88274 6.24447 9.71507 6.31364 9.56057C6.40255 9.40577 6.53952 9.28206 6.70509 9.20703L6.90287 9.3069C6.90287 9.3069 6.8421 9.20703 6.81531 9.1561C6.82562 9.14811 6.83489 9.1561 6.85137 9.14811C6.95644 9.19005 7.19028 9.3069 7.32008 9.3838C7.40706 9.42802 7.48193 9.4917 7.53846 9.56956C7.53846 9.56956 7.58276 9.55258 7.54773 9.4617C7.50539 9.3513 7.42495 9.2585 7.32008 9.19904H7.33862C7.43442 9.24998 7.52198 9.30091 7.60748 9.36583C7.68577 9.18007 7.73007 8.9983 7.72286 8.80356C7.729 8.69757 7.71396 8.59142 7.67856 8.49096C7.64251 8.42405 7.69607 8.39808 7.75582 8.46599C7.74612 8.41316 7.72842 8.36201 7.70328 8.31419C7.70328 8.31419 7.73831 8.26326 7.75582 8.25227C7.80011 8.21233 7.84235 8.17038 7.89592 8.14541C8.19774 7.96065 8.51296 7.79886 8.84363 7.67203C9.02377 7.60357 9.20077 7.5276 9.37415 7.44432C9.44316 7.40238 9.50497 7.36043 9.56575 7.3085C9.79238 7.12374 9.94071 6.87107 9.99119 6.59143C10.0015 6.55148 10.0015 6.51753 10.0015 6.48457V6.41566C9.96647 6.27185 9.71409 6.17098 8.40171 6.04414C8.17504 6.01057 7.96413 5.91135 7.79666 5.7595C7.62919 5.60765 7.51297 5.41027 7.46326 5.19325V5.20024C7.44385 5.24818 7.42633 5.29682 7.41073 5.34605C7.42721 5.29312 7.44472 5.25217 7.46326 5.20024V5.19325C7.71445 4.55862 8.16439 4.01622 8.74989 3.64227C8.78182 3.6173 8.62009 3.64926 8.65409 3.62529C8.75916 3.57435 8.87144 3.52242 8.993 3.48048C9.05378 3.4625 8.74062 3.34665 8.46248 3.37062C8.29511 3.38211 8.13066 3.41918 7.97524 3.48048C8.04425 3.43154 8.23483 3.36263 8.19156 3.36263C7.83837 3.42301 7.49965 3.5459 7.19234 3.72516C7.19234 3.6922 7.20264 3.66524 7.21088 3.64227C6.96669 3.74182 6.75361 3.90157 6.59281 4.10566V3.99381C6.48442 4.0795 6.38284 4.17297 6.28892 4.27345H6.28068C5.55745 4.002 4.76889 3.9382 4.00925 4.08968L4.00101 4.0807H4.00925C3.85099 3.95823 3.71607 3.80985 3.61059 3.64227L3.60029 3.64926L3.58484 3.63328C3.53024 3.56537 3.48904 3.48147 3.43341 3.3876C3.39221 3.32767 3.35718 3.25177 3.31392 3.17787C3.31392 3.17787 3.31392 3.16988 3.30568 3.16988C3.29538 3.16988 3.27889 3.24678 3.27168 3.21882C3.13773 2.8839 3.07501 2.52619 3.08729 2.16718H3.07905C2.86092 2.3069 2.6982 2.51431 2.61755 2.75542C2.57532 2.84131 2.54853 2.88325 2.52278 2.93419V2.90622L2.54751 2.78138C2.54132 2.79037 2.54132 2.79836 2.52999 2.80635C2.46843 2.8761 2.41649 2.95331 2.37547 3.03605C2.33034 3.1126 2.29472 3.19406 2.26937 3.27874V3.23679C2.26937 3.20284 2.27864 3.1519 2.26937 3.16988L2.2601 3.19285C1.97912 3.7937 1.80297 4.4356 1.73886 5.09238C1.72237 5.21023 1.72237 5.32008 1.72237 5.42894V5.44692C1.52357 5.65718 1.34625 5.88562 1.19289 6.12903C0.687602 6.95574 0.31196 7.85072 0.0782946 8.78458C0.244145 8.43104 0.442959 8.08449 0.678858 7.76491C0.229153 8.86265 -0.0012203 10.0333 4.86104e-06 11.2144C0.0782944 10.8689 0.174096 10.5313 0.28638 10.1937C0.217693 11.5894 0.495725 12.9807 1.09709 14.2505C1.90389 16.0076 3.24808 17.482 4.9477 18.474C5.63413 18.9295 6.38734 19.2823 7.18204 19.5206C7.28711 19.5536 7.40146 19.5945 7.50447 19.6295C7.46944 19.6115 7.44369 19.5945 7.4097 19.5875C8.3518 19.8598 9.32952 19.9987 10.3126 20C13.8016 20 14.9492 18.7097 15.0615 18.5838C15.2263 18.433 15.3736 18.2533 15.4694 18.0435C15.5394 18.0196 15.6002 17.9936 15.6703 17.9597L15.7125 17.9437C15.765 17.9177 15.7898 17.9097 15.7898 17.9097C16.3182 17.6697 16.8152 17.3693 17.2701 17.0149C17.9458 16.5397 18.429 15.8504 18.636 15.0664C18.7648 14.7808 18.7648 14.4672 18.6607 14.1736C18.7122 14.0897 18.7576 14.0128 18.7648 13.9958C19.5147 12.8307 19.9403 11.497 19.9999 10.1248V10.009C20.0019 9.71714 19.9771 9.4257 19.9257 9.13812Z" fill="black"/>
</svg>
