<svg width="20" height="20" viewBox="0 0 20 20" fill="none" xmlns="http://www.w3.org/2000/svg">
<path d="M16.1561 1.8616C15.6558 2.42913 15.4213 3.70041 15.9294 4.99439C16.4375 6.28837 17.2191 6.00838 17.7038 7.32506C18.3447 9.0655 18.0477 11.4037 18.0477 11.4037C18.0477 11.4037 18.8215 13.5679 19.3608 11.2675C20.5568 6.9467 16.1561 2.92856 16.1561 1.8616Z" fill="url(#paint0_radial_589_1325)"/>
<path d="M10.0282 19.8032C15.1793 19.8032 19.3455 15.7472 19.3455 10.7378C19.3455 5.72838 15.1715 1.67997 10.0282 1.67997C4.88496 1.67997 0.718761 5.73594 0.718761 10.7378C0.710944 15.7472 4.88496 19.8032 10.0282 19.8032Z" fill="url(#paint1_radial_589_1325)"/>
<path d="M17.0092 16.3298C16.806 16.466 16.5949 16.587 16.3761 16.7005C16.6653 16.2844 16.9388 15.8606 17.1812 15.4217C17.3766 15.2098 17.5642 15.0055 17.7127 14.7785C17.783 14.665 17.869 14.5364 17.955 14.3774C18.4787 13.4618 19.0571 11.9862 19.0728 10.4728V10.3593C19.0728 9.98094 19.0337 9.59502 18.9555 9.22423C18.9633 9.2545 18.9633 9.28477 18.9711 9.31504C18.9633 9.29234 18.9633 9.26964 18.9555 9.24693C18.9633 9.28477 18.9711 9.33017 18.979 9.36801C19.0884 10.2458 19.0102 11.1009 18.6272 11.7365C18.6194 11.7441 18.6116 11.7517 18.6116 11.7668C18.807 10.8058 18.8773 9.74636 18.6585 8.68697C18.6585 8.68697 18.5725 8.1724 17.9159 6.60601C17.5407 5.70552 16.8685 4.96394 16.2823 4.42668C15.7664 3.80617 15.2896 3.38998 15.0316 3.12513C14.4923 2.57273 14.2656 2.15654 14.1718 1.89169C14.0936 1.85386 13.054 0.877698 12.9759 0.839863C12.5225 1.5209 11.1077 3.6397 11.78 5.61472C12.0848 6.5152 12.8586 7.44596 13.6715 7.96809C13.7106 8.00593 14.1562 8.47509 14.3672 9.53448C14.5861 10.6317 14.4688 11.4792 14.0233 12.7429C13.4918 13.8477 12.1317 14.945 10.8576 15.0585C8.13746 15.3006 7.13695 13.7342 7.13695 13.7342C8.1062 14.1126 9.18487 14.0294 9.84146 13.6434C10.498 13.2499 10.8967 12.9548 11.225 13.0683C11.5455 13.1818 11.7956 12.8489 11.5689 12.5008C11.2093 11.9635 10.5528 11.6911 9.90399 11.7971C9.24741 11.903 8.63772 12.41 7.7779 11.9181C7.72319 11.8879 7.66847 11.85 7.61376 11.8122C7.55904 11.7744 7.80135 11.8652 7.73882 11.8273C7.57468 11.7365 7.26983 11.5473 7.19948 11.4792C7.18385 11.4641 7.33236 11.5246 7.31673 11.5095C6.51163 10.8663 6.61325 10.4274 6.63669 10.155C6.66014 9.93554 6.80084 9.65556 7.05097 9.54205C7.16822 9.60259 7.24638 9.65556 7.24638 9.65556C7.24638 9.65556 7.19167 9.55719 7.16822 9.50422C7.17603 9.49665 7.18385 9.50422 7.19948 9.49665C7.3011 9.54205 7.51214 9.66313 7.62939 9.73123C7.7779 9.8296 7.8248 9.92041 7.8248 9.92041C7.8248 9.92041 7.86389 9.89771 7.83262 9.81447C7.8248 9.77663 7.7779 9.66313 7.62939 9.54962H7.63721C7.72319 9.59502 7.80917 9.65556 7.88734 9.7161C7.92642 9.57232 8.00458 9.42098 7.98895 9.14856C7.98113 8.95938 7.98113 8.90641 7.94987 8.83074C7.9186 8.77021 7.9655 8.73994 8.02022 8.80804C8.0124 8.75507 7.99677 8.7021 7.97332 8.6567V8.64913C8.04366 8.42212 9.40374 7.82432 9.50535 7.75621C9.6695 7.6427 9.80238 7.49893 9.90399 7.33245C9.98216 7.21895 10.0369 7.05247 10.0525 6.80275C10.0603 6.62114 9.97434 6.50007 8.59082 6.36386C8.21563 6.32603 7.98895 6.06118 7.86389 5.81903C7.84044 5.76606 7.81699 5.72066 7.79354 5.66769C7.77009 5.61472 7.75445 5.55418 7.73882 5.49364C7.9655 4.86557 8.34069 4.33587 8.90348 3.93482C8.93475 3.90455 8.77842 3.94238 8.80968 3.91211C8.84877 3.88185 9.07544 3.79104 9.12234 3.76834C9.17706 3.74564 8.89566 3.62456 8.64554 3.65483C8.39541 3.6851 8.34069 3.71537 8.2 3.76834C8.25471 3.71537 8.43449 3.6397 8.39541 3.64726C8.12183 3.6851 7.78572 3.84401 7.49651 4.01805C7.49651 3.98779 7.50433 3.95752 7.51214 3.92725C7.37926 3.98022 7.04315 4.20723 6.94935 4.39641C6.95717 4.35857 6.95717 4.32074 6.95717 4.2829C6.85556 4.36614 6.76176 4.45695 6.68359 4.56289L6.63669 4.57802C5.85504 4.27534 5.15938 4.25263 4.58096 4.38884C4.45589 4.26777 4.39336 4.35857 4.09633 3.73807C4.07288 3.70023 4.11196 3.77591 4.09633 3.73807C4.04943 3.617 4.1276 3.89698 4.09633 3.73807C3.61171 4.11643 2.97076 4.54019 2.6581 4.8353C2.6581 4.85044 3.01765 4.73693 2.6581 4.8353C2.53303 4.87314 2.54085 4.94124 2.52521 5.59958C2.5174 5.65255 2.52521 5.70552 2.5174 5.75092C2.26727 6.05361 2.10312 6.31089 2.04059 6.4471C1.72011 6.9768 1.36837 7.80918 1.03226 9.11829C1.18078 8.76264 1.36056 8.42212 1.5716 8.09673C1.29021 8.79291 1.01663 9.89014 0.961914 11.57C1.03226 11.222 1.11824 10.8814 1.22768 10.5409C1.15733 11.9408 1.40745 13.3332 1.95461 14.6272C2.15002 15.0888 2.4705 15.7925 3.02547 16.5643C4.76073 18.3275 7.19948 19.4247 9.90399 19.4247C12.7257 19.4247 15.2661 18.2291 17.0092 16.3298Z" fill="url(#paint2_linear_589_1325)"/>
<path d="M14.9141 17.6086C18.3299 17.2227 19.8463 13.8175 17.9 13.7494C16.1491 13.6964 13.296 17.7903 14.9141 17.6086Z" fill="url(#paint3_radial_589_1325)"/>
<path d="M18.1503 13.0532C20.503 11.729 19.8855 8.8686 19.8855 8.8686C19.8855 8.8686 18.9788 9.89016 18.3613 11.5171C17.7594 13.1289 16.7355 13.8553 18.1503 13.0532Z" fill="url(#paint4_radial_589_1325)"/>
<path d="M10.6849 19.3036C13.9678 20.3176 16.7818 17.8129 15.0465 16.9805C13.4676 16.2314 9.12943 18.8269 10.6849 19.3036Z" fill="url(#paint5_radial_589_1325)"/>
<path d="M18.4 14.2717C18.4782 14.1657 18.5876 13.8177 18.6814 13.6588C19.2599 12.7507 19.2677 12.0318 19.2677 12.0167C19.6194 10.3292 19.5881 9.63304 19.3693 8.36176C19.1973 7.33264 18.4391 5.85705 17.7825 5.1533C17.1103 4.41929 17.5793 4.66144 16.9305 4.12418C16.3599 3.51124 15.7971 2.8983 15.5001 2.65615C13.3115 0.885447 13.3584 0.507091 13.4053 0.446554L13.374 0.476823C13.3506 0.37845 13.3271 0.295212 13.3271 0.295212C13.3271 0.295212 12.1234 1.44541 11.8733 3.37503C11.7091 4.63117 12.1937 5.94785 12.905 6.7878C13.2724 7.2267 13.6867 7.62019 14.14 7.96828C14.6716 8.70985 14.9686 9.62547 14.9686 10.6092C14.9686 13.0761 12.905 15.0662 10.3569 15.0662C10.0129 15.0662 9.66119 15.0284 9.32508 14.9527C8.12134 14.7333 7.43349 14.143 7.08175 13.742C6.88634 13.515 6.80035 13.3485 6.80035 13.3485C7.87903 13.7193 9.06714 13.6436 9.79408 13.2577C10.521 12.8642 10.9665 12.5767 11.3261 12.6902C11.6779 12.8037 11.9592 12.4707 11.7091 12.1302C11.459 11.7897 10.818 11.2978 9.86442 11.434C9.13749 11.54 8.46527 12.0394 7.51166 11.5551C7.44912 11.5248 7.38659 11.487 7.33188 11.4567C7.26935 11.4189 7.53511 11.5097 7.47257 11.4719C7.28498 11.381 6.95669 11.1919 6.8707 11.1238C6.85507 11.1086 7.0114 11.1692 7.00358 11.154C6.1125 10.5184 6.22193 10.0871 6.24538 9.81465C6.26883 9.59521 6.43298 9.32279 6.70656 9.20928C6.83944 9.26982 6.9176 9.32279 6.9176 9.32279C6.9176 9.32279 6.86289 9.22442 6.83162 9.17145C6.83944 9.16388 6.85507 9.17145 6.86289 9.16388C6.97232 9.20928 7.21463 9.32279 7.33969 9.39846C7.50384 9.49683 7.55856 9.58764 7.55856 9.58764C7.55856 9.58764 7.60545 9.56494 7.56637 9.4817C7.55074 9.44386 7.50384 9.33036 7.33969 9.21685H7.34751C7.44131 9.26225 7.53511 9.32279 7.62109 9.38333C7.66799 9.23955 7.74615 9.08821 7.73052 8.81579C7.7227 8.62661 7.7227 8.57364 7.68362 8.50554C7.65235 8.445 7.69925 8.41473 7.76179 8.48284C7.75397 8.42987 7.73052 8.38447 7.70707 8.3315V8.32393C7.78523 8.09692 9.29382 7.50668 9.40325 7.43858C9.58303 7.33264 9.73154 7.18886 9.84879 7.02238C9.93477 6.90888 9.9973 6.7424 10.0129 6.49269C10.0208 6.37918 9.98167 6.29594 9.58303 6.20513C9.34072 6.15216 8.97334 6.10676 8.39492 6.05379C7.98065 6.01596 7.73052 5.75867 7.58982 5.51653C7.56637 5.46356 7.53511 5.41815 7.51166 5.37275C7.48821 5.31978 7.46476 5.25924 7.44912 5.20627C7.69925 4.57064 8.15261 4.03337 8.73885 3.66258C8.77011 3.63231 8.60597 3.67015 8.63723 3.63988C8.67632 3.60961 8.93426 3.51881 8.98116 3.4961C9.04369 3.4734 8.73103 3.3599 8.44964 3.3826C8.16824 3.41287 8.11353 3.43557 7.9572 3.4961C8.01973 3.44314 8.21514 3.37503 8.16824 3.37503C7.88685 3.4053 7.51166 3.55664 7.19118 3.73069C7.19118 3.70042 7.199 3.67015 7.20681 3.63988C7.0583 3.69285 6.69092 3.91986 6.58149 4.10904C6.58931 4.07121 6.58931 4.03337 6.58931 4.0031C6.47988 4.08634 6.37045 4.17715 6.28447 4.28309L6.27665 4.29065C5.40902 3.98797 4.643 3.96527 4.00205 4.10147C3.86135 3.9804 3.63467 3.79122 3.3142 3.17829C3.29075 3.14045 3.28293 3.25396 3.2673 3.21612C3.14223 2.93614 3.06407 2.47454 3.0797 2.15672C3.0797 2.15672 2.82176 2.27023 2.61071 2.74696C2.57163 2.8302 2.54818 2.88317 2.51691 2.92857C2.50128 2.9437 2.54036 2.76966 2.54036 2.7848C2.50128 2.84533 2.40748 2.92857 2.3684 3.04208C2.33713 3.12532 2.29805 3.17072 2.2746 3.26909L2.26679 3.27666C2.26679 3.24639 2.2746 3.15558 2.26679 3.17072C2.16517 3.36746 2.07919 3.57178 2.00884 3.77609C1.89159 4.13931 1.75871 4.63874 1.73526 5.28951C1.72745 5.33492 1.73526 5.39545 1.72745 5.44086C1.45387 5.74354 1.26627 6.00082 1.19592 6.12946C0.844182 6.65916 0.453357 7.47641 0.078165 8.77796C0.242311 8.4223 0.44554 8.08178 0.680036 7.76396C0.367375 8.45257 0.062532 9.54224 0 11.207C0.078165 10.8589 0.171963 10.5184 0.28921 10.1854C0.234495 11.2978 0.367375 12.6826 1.09431 14.2414C1.52422 15.157 2.51691 17.0186 4.94784 18.4714C4.94784 18.4714 5.77639 19.0692 7.19118 19.5157C7.29279 19.5535 7.40223 19.5914 7.51166 19.6216C7.48039 19.6065 7.44131 19.5914 7.41004 19.5838C8.35584 19.8562 9.3329 20 10.3256 20C13.9994 20 15.0858 18.5698 15.0858 18.5698L15.078 18.5774C15.1327 18.532 15.1796 18.479 15.2265 18.4336C14.6481 18.9633 13.3193 19.0011 12.8269 18.9633C13.6711 18.7212 14.226 18.5168 15.3047 18.1234C15.4298 18.078 15.5627 18.025 15.6955 17.9644L15.7346 17.9417C15.7581 17.9266 15.7893 17.919 15.8128 17.9039C16.3365 17.6618 16.8367 17.3666 17.2901 17.011C18.3766 16.171 18.6111 15.3538 18.7362 14.8165C18.7205 14.8695 18.6658 14.9906 18.6267 15.0662C18.3453 15.6413 17.7278 16.0046 17.0556 16.3072C17.3761 15.8986 17.6731 15.4749 17.9467 15.036C18.1655 14.8241 18.2281 14.4911 18.4 14.2717Z" fill="url(#paint6_radial_589_1325)"/>
<path d="M17.0789 16.2769C17.5244 15.8077 17.9153 15.2629 18.2201 14.65C18.994 13.076 20.1899 10.4502 19.2519 7.71847C18.5093 5.55427 17.4854 4.3738 16.1878 3.21603C14.0774 1.33938 13.4911 0.49943 13.4911 0C13.4911 0 11.0524 2.62579 12.1076 5.37266C13.1628 8.11952 15.328 8.01358 16.7584 10.874C18.4468 14.2413 15.3984 17.9189 12.8736 18.9481C13.03 18.9178 18.4781 17.7222 18.7673 14.7029C18.7516 14.7559 18.6266 15.5958 17.0789 16.2769Z" fill="url(#paint7_radial_589_1325)"/>
<path d="M10.0132 6.4925C10.0211 6.31089 9.92725 6.19738 8.40304 6.05361C7.77772 6.00064 7.53541 5.44067 7.46506 5.19852C7.2462 5.75849 7.1524 6.34873 7.1993 7.06004C7.23056 7.5292 7.55886 8.02863 7.70737 8.31618C7.70737 8.31618 7.73864 8.27078 7.75427 8.25564C8.04348 7.96052 9.26285 7.51406 9.3801 7.45353C9.51298 7.37786 9.9976 7.03734 10.0132 6.4925Z" fill="url(#paint8_linear_589_1325)"/>
<path d="M3.31441 3.17813C3.29096 3.14029 3.28315 3.2538 3.26751 3.21596C3.14245 2.93598 3.06428 2.48195 3.08773 2.15657C3.08773 2.15657 2.82979 2.27007 2.61874 2.7468C2.57966 2.83004 2.55621 2.88301 2.52494 2.92841C2.50931 2.94355 2.54839 2.7695 2.54839 2.78464C2.50931 2.84517 2.41551 2.92841 2.37643 3.03435C2.34517 3.11759 2.30608 3.17056 2.28263 3.2765C2.27482 3.30677 2.29045 3.14786 2.28263 3.17056C1.78238 4.10132 1.68858 5.5088 1.74329 5.44827C2.80634 4.35103 4.0179 4.09375 4.0179 4.09375C3.86938 4.00294 3.58799 3.73053 3.31441 3.17813Z" fill="url(#paint9_linear_589_1325)"/>
<path d="M7.3314 14.6348C5.86972 14.0294 4.2048 13.1744 4.26733 11.2372C4.35332 8.68705 6.72953 9.18648 6.72953 9.18648C6.64355 9.20918 6.40124 9.37566 6.31526 9.5497C6.22928 9.76915 6.06513 10.2686 6.55757 10.7907C7.33922 11.608 4.95519 12.7279 8.62894 14.8467C8.72274 14.8921 7.76913 14.8164 7.3314 14.6348Z" fill="url(#paint10_linear_589_1325)"/>
<path d="M6.81634 13.3637C7.85594 13.7117 9.05968 13.6512 9.78661 13.2653C10.2712 13.0004 10.8966 12.5842 11.2717 12.6902C10.9435 12.5615 10.6933 12.501 10.3885 12.4934C10.3338 12.4934 10.2791 12.4934 10.2243 12.4859C10.1149 12.4859 10.0055 12.4934 9.89604 12.501C9.70845 12.5161 9.50522 12.6296 9.31762 12.6145C9.30981 12.6145 9.4974 12.5388 9.48177 12.5388C9.38016 12.5615 9.27072 12.5615 9.16129 12.5767C9.09095 12.5842 9.02841 12.5918 8.95025 12.5994C6.78508 12.7734 4.96383 11.4643 4.96383 11.4643C4.8075 11.9637 5.6595 12.9702 6.81634 13.3637Z" fill="url(#paint11_linear_589_1325)"/>
<path d="M17.072 16.2921C19.2606 14.2112 20.3627 11.6913 19.8937 8.85363C19.8937 8.85363 20.0813 10.3065 19.37 11.7897C19.714 10.3368 19.7531 8.53581 18.8463 6.66673C17.6426 4.17714 15.6572 2.86046 14.899 2.31563C13.75 1.48325 13.2732 0.643297 13.2654 0.469254C12.9214 1.15029 11.8818 3.48097 13.1559 5.48626C14.344 7.37047 16.22 7.92287 17.5253 9.64817C19.9485 12.8339 17.072 16.2921 17.072 16.2921Z" fill="url(#paint12_linear_589_1325)"/>
<path d="M16.759 10.8816C15.993 9.35306 15.0394 8.68715 14.1405 7.96828C14.2421 8.11205 14.2734 8.15745 14.3281 8.25583C15.1254 9.07308 16.29 11.0708 15.4458 13.5831C13.8435 18.305 7.44956 16.0802 6.77734 15.4597C7.05092 18.1915 11.7721 19.5006 14.8518 17.7299C16.5949 16.1105 18.0097 13.3863 16.759 10.8816Z" fill="url(#paint13_linear_589_1325)"/>
<defs>
<radialGradient id="paint0_radial_589_1325" cx="0" cy="0" r="1" gradientUnits="userSpaceOnUse" gradientTransform="translate(19.6299 6.17737) rotate(2.18826) scale(7.19782 10.2717)">
<stop offset="0.1" stop-color="#FFEA00"/>
<stop offset="0.17" stop-color="#FFDE00"/>
<stop offset="0.28" stop-color="#FFBF00"/>
<stop offset="0.43" stop-color="#FF8E00"/>
<stop offset="0.77" stop-color="#FF272D"/>
<stop offset="0.87" stop-color="#E0255A"/>
<stop offset="0.95" stop-color="#CC2477"/>
<stop offset="1" stop-color="#C42482"/>
</radialGradient>
<radialGradient id="paint1_radial_589_1325" cx="0" cy="0" r="1" gradientUnits="userSpaceOnUse" gradientTransform="translate(13.093 3.09319) scale(20.4275 19.7758)">
<stop stop-color="#00CCDA"/>
<stop offset="0.22" stop-color="#0083FF"/>
<stop offset="0.26" stop-color="#007AF9"/>
<stop offset="0.33" stop-color="#005FE7"/>
<stop offset="0.44" stop-color="#2639AD"/>
<stop offset="0.52" stop-color="#401E84"/>
<stop offset="0.57" stop-color="#4A1475"/>
</radialGradient>
<linearGradient id="paint2_linear_589_1325" x1="11.3456" y1="14.8153" x2="7.55943" y2="2.02198" gradientUnits="userSpaceOnUse">
<stop stop-color="#000F43" stop-opacity="0.4"/>
<stop offset="0.48" stop-color="#001962" stop-opacity="0.17"/>
<stop offset="1" stop-color="#002079" stop-opacity="0"/>
</linearGradient>
<radialGradient id="paint3_radial_589_1325" cx="0" cy="0" r="1" gradientUnits="userSpaceOnUse" gradientTransform="translate(20.261 13.3043) rotate(5.43929) scale(6.86495 6.64992)">
<stop stop-color="#FFEA00"/>
<stop offset="0.5" stop-color="#FF272D"/>
<stop offset="1" stop-color="#C42482"/>
</radialGradient>
<radialGradient id="paint4_radial_589_1325" cx="0" cy="0" r="1" gradientUnits="userSpaceOnUse" gradientTransform="translate(20.2873 6.90154) rotate(5.43929) scale(11.4638 11.1047)">
<stop stop-color="#FFE900"/>
<stop offset="0.16" stop-color="#FFAF0E"/>
<stop offset="0.32" stop-color="#FF7A1B"/>
<stop offset="0.47" stop-color="#FF4E26"/>
<stop offset="0.62" stop-color="#FF2C2E"/>
<stop offset="0.76" stop-color="#FF1434"/>
<stop offset="0.89" stop-color="#FF0538"/>
<stop offset="1" stop-color="#FF0039"/>
</radialGradient>
<radialGradient id="paint5_radial_589_1325" cx="0" cy="0" r="1" gradientUnits="userSpaceOnUse" gradientTransform="translate(20.8605 17.2966) rotate(5.4393) scale(10.5192 10.1898)">
<stop stop-color="#FF272D"/>
<stop offset="0.5" stop-color="#C42482"/>
<stop offset="0.99" stop-color="#620700"/>
</radialGradient>
<radialGradient id="paint6_radial_589_1325" cx="0" cy="0" r="1" gradientUnits="userSpaceOnUse" gradientTransform="translate(15.0036 8.00657) scale(16.4175 15.8937)">
<stop offset="0.16" stop-color="#FFEA00"/>
<stop offset="0.23" stop-color="#FFDE00"/>
<stop offset="0.37" stop-color="#FFBF00"/>
<stop offset="0.54" stop-color="#FF8E00"/>
<stop offset="0.76" stop-color="#FF272D"/>
<stop offset="0.8" stop-color="#F92433"/>
<stop offset="0.84" stop-color="#E91C45"/>
<stop offset="0.89" stop-color="#CF0E62"/>
<stop offset="0.94" stop-color="#B5007F"/>
</radialGradient>
<radialGradient id="paint7_radial_589_1325" cx="0" cy="0" r="1" gradientUnits="userSpaceOnUse" gradientTransform="translate(14.0621 0.635479) scale(18.711 18.1141)">
<stop offset="0.28" stop-color="#FFEA00"/>
<stop offset="0.4" stop-color="#FFDD00"/>
<stop offset="0.63" stop-color="#FFBA00"/>
<stop offset="0.86" stop-color="#FF9100"/>
<stop offset="0.93" stop-color="#FF6711"/>
<stop offset="0.99" stop-color="#FF4A1D"/>
</radialGradient>
<linearGradient id="paint8_linear_589_1325" x1="3.11093" y1="7.41901" x2="11.1578" y2="6.14969" gradientUnits="userSpaceOnUse">
<stop stop-color="#C42482" stop-opacity="0.5"/>
<stop offset="0.47" stop-color="#FF272D" stop-opacity="0.5"/>
<stop offset="0.49" stop-color="#FF2C2C" stop-opacity="0.51"/>
<stop offset="0.68" stop-color="#FF7A1A" stop-opacity="0.72"/>
<stop offset="0.83" stop-color="#FFB20D" stop-opacity="0.87"/>
<stop offset="0.94" stop-color="#FFD605" stop-opacity="0.96"/>
<stop offset="1" stop-color="#FFE302"/>
</linearGradient>
<linearGradient id="paint9_linear_589_1325" x1="3.05015" y1="5.37305" x2="2.25898" y2="2.43565" gradientUnits="userSpaceOnUse">
<stop stop-color="#891551" stop-opacity="0.6"/>
<stop offset="1" stop-color="#C42482" stop-opacity="0"/>
</linearGradient>
<linearGradient id="paint10_linear_589_1325" x1="4.5836" y1="9.48215" x2="6.24131" y2="11.8743" gradientUnits="userSpaceOnUse">
<stop offset="0.01" stop-color="#891551" stop-opacity="0.5"/>
<stop offset="0.48" stop-color="#FF272D" stop-opacity="0.5"/>
<stop offset="1" stop-color="#FF272D" stop-opacity="0"/>
</linearGradient>
<linearGradient id="paint11_linear_589_1325" x1="7.95795" y1="13.5583" x2="8.10654" y2="12.0531" gradientUnits="userSpaceOnUse">
<stop stop-color="#C42482"/>
<stop offset="0.08" stop-color="#C42482" stop-opacity="0.81"/>
<stop offset="0.21" stop-color="#C42482" stop-opacity="0.57"/>
<stop offset="0.33" stop-color="#C42482" stop-opacity="0.36"/>
<stop offset="0.45" stop-color="#C42482" stop-opacity="0.2"/>
<stop offset="0.56" stop-color="#C42482" stop-opacity="0.09"/>
<stop offset="0.67" stop-color="#C42482" stop-opacity="0.02"/>
<stop offset="0.77" stop-color="#C42482" stop-opacity="0"/>
</linearGradient>
<linearGradient id="paint12_linear_589_1325" x1="13.0145" y1="0.735162" x2="19.0908" y2="14.7701" gradientUnits="userSpaceOnUse">
<stop stop-color="#FFF14F"/>
<stop offset="0.27" stop-color="#FFEE4C"/>
<stop offset="0.45" stop-color="#FFE643"/>
<stop offset="0.61" stop-color="#FFD834"/>
<stop offset="0.76" stop-color="#FFC41E"/>
<stop offset="0.89" stop-color="#FFAB02"/>
<stop offset="0.9" stop-color="#FFA900"/>
<stop offset="0.95" stop-color="#FFA000"/>
<stop offset="1" stop-color="#FF9100"/>
</linearGradient>
<linearGradient id="paint13_linear_589_1325" x1="14.2881" y1="8.72302" x2="11.4181" y2="16.6831" gradientUnits="userSpaceOnUse">
<stop stop-color="#FF8E00"/>
<stop offset="0.04" stop-color="#FF8E00" stop-opacity="0.86"/>
<stop offset="0.08" stop-color="#FF8E00" stop-opacity="0.73"/>
<stop offset="0.13" stop-color="#FF8E00" stop-opacity="0.63"/>
<stop offset="0.18" stop-color="#FF8E00" stop-opacity="0.56"/>
<stop offset="0.23" stop-color="#FF8E00" stop-opacity="0.51"/>
<stop offset="0.28" stop-color="#FF8E00" stop-opacity="0.5"/>
<stop offset="0.39" stop-color="#FF8E00" stop-opacity="0.48"/>
<stop offset="0.52" stop-color="#FF8E00" stop-opacity="0.42"/>
<stop offset="0.68" stop-color="#FF8E00" stop-opacity="0.31"/>
<stop offset="0.84" stop-color="#FF8E00" stop-opacity="0.17"/>
<stop offset="1" stop-color="#FF8E00" stop-opacity="0"/>
</linearGradient>
</defs>
</svg>
