<svg width="139" height="39" viewBox="0 0 139 39" fill="none" xmlns="http://www.w3.org/2000/svg">
<path d="M68.1437 18.797C68.1244 18.2392 67.9321 17.7776 67.5667 17.4122C67.2012 17.0275 66.6146 16.8352 65.8068 16.8352C64.9605 16.8352 64.3547 17.0372 63.9893 17.4411C63.6431 17.8257 63.47 18.2681 63.47 18.7682C63.47 19.3067 63.7008 19.6914 64.1624 19.9222C64.624 20.1337 65.201 20.3164 65.8934 20.4703C66.5858 20.6049 67.3359 20.7492 68.1437 20.9031C68.9515 21.0569 69.7016 21.3262 70.394 21.7109C71.0864 22.0955 71.6634 22.6533 72.125 23.3842C72.5866 24.0958 72.8174 25.0767 72.8174 26.3269C72.8174 27.2693 72.6443 28.1156 72.2981 28.8657C71.9711 29.6158 71.4903 30.2601 70.8556 30.7986C70.2401 31.3179 69.49 31.7218 68.6053 32.0103C67.7398 32.2988 66.7781 32.4431 65.7203 32.4431C64.6624 32.4431 63.7008 32.2988 62.8353 32.0103C61.989 31.741 61.2485 31.3564 60.6138 30.8563C59.9983 30.337 59.5175 29.7119 59.1713 28.9811C58.8251 28.2502 58.6424 27.4232 58.6232 26.5H63.1815C63.1815 27.0962 63.3738 27.5674 63.7585 27.9136C64.1431 28.2598 64.7971 28.4329 65.7203 28.4329C66.6435 28.4329 67.2974 28.2598 67.6821 27.9136C68.0667 27.5674 68.2591 27.0962 68.2591 26.5C68.2591 26.0961 68.1244 25.7883 67.8552 25.5768C67.5859 25.346 67.2301 25.1729 66.7877 25.0575C66.3646 24.9228 65.8741 24.8074 65.3164 24.7113C64.7586 24.6151 64.1912 24.4997 63.6142 24.3651C63.0372 24.2304 62.4698 24.0477 61.9121 23.8169C61.3543 23.5861 60.8542 23.2688 60.4119 22.8649C59.9887 22.461 59.6425 21.9417 59.3733 21.307C59.104 20.6723 58.9694 19.8837 58.9694 18.9413C58.9694 18.0565 59.1328 17.2391 59.4598 16.489C59.7868 15.7389 60.2388 15.0946 60.8158 14.5561C61.412 13.9983 62.1236 13.5752 62.9507 13.2867C63.7969 12.9789 64.7297 12.8251 65.7491 12.8251C66.73 12.8251 67.6244 12.9693 68.4322 13.2578C69.2592 13.5463 69.9708 13.9502 70.5671 14.4695C71.1633 14.9888 71.6249 15.6235 71.9519 16.3736C72.2981 17.1045 72.4904 17.9123 72.5289 18.797H68.1437ZM85.2997 23.3553C85.0497 22.7591 84.6554 22.2879 84.1169 21.9417C83.5976 21.5955 82.9725 21.4224 82.2416 21.4224C81.2607 21.4224 80.4625 21.7397 79.8471 22.3744C79.2508 23.0091 78.9527 23.8458 78.9527 24.8844C78.9527 25.923 79.2508 26.7596 79.8471 27.3943C80.4625 28.029 81.2607 28.3464 82.2416 28.3464C82.9725 28.3464 83.5976 28.1733 84.1169 27.8271C84.6554 27.4809 85.0497 27.0096 85.2997 26.4134H89.6849C89.531 27.2981 89.2425 28.1059 88.8194 28.8368C88.3963 29.5677 87.8577 30.2024 87.2038 30.7409C86.5691 31.2602 85.8286 31.6641 84.9824 31.9526C84.1361 32.2411 83.2225 32.3854 82.2416 32.3854C81.1068 32.3854 80.0682 32.2026 79.1258 31.8372C78.2026 31.4525 77.3948 30.9332 76.7024 30.2793C76.0292 29.6061 75.5003 28.808 75.1157 27.8848C74.7502 26.9616 74.5675 25.9614 74.5675 24.8844C74.5675 23.8073 74.7502 22.8072 75.1157 21.884C75.5003 20.9608 76.0292 20.1722 76.7024 19.5183C77.3948 18.8451 78.2026 18.3258 79.1258 17.9604C80.0682 17.5757 81.1068 17.3834 82.2416 17.3834C83.2225 17.3834 84.1361 17.5276 84.9824 17.8161C85.8286 18.1046 86.5691 18.5181 87.2038 19.0567C87.8577 19.576 88.3963 20.201 88.8194 20.9319C89.2425 21.6628 89.531 22.4706 89.6849 23.3553H85.2997ZM100.362 24.0189V23.9035C100.362 22.9418 100.169 22.2879 99.7847 21.9417C99.4 21.5955 98.8999 21.4224 98.2845 21.4224C97.669 21.4224 97.1689 21.5955 96.7843 21.9417C96.3996 22.2879 96.2073 22.9418 96.2073 23.9035V32.0103H91.8798V23.9035C91.8798 22.7879 92.0336 21.8263 92.3414 21.0185C92.6491 20.1914 93.0818 19.5086 93.6396 18.9701C94.2166 18.4316 94.8898 18.0373 95.6591 17.7873C96.4477 17.518 97.3228 17.3834 98.2845 17.3834C99.2461 17.3834 100.121 17.518 100.91 17.7873C101.698 18.0373 102.372 18.4412 102.929 18.999C103.487 19.5375 103.92 20.2299 104.228 21.0762C104.535 21.9032 104.689 22.8841 104.689 24.0189H100.362ZM116.197 32.0103V24.6247C116.197 23.4899 115.947 22.6725 115.447 22.1725C114.947 21.6724 114.293 21.4224 113.485 21.4224C112.677 21.4224 112.023 21.6724 111.523 22.1725C111.023 22.6725 110.773 23.4899 110.773 24.6247V32.0103H106.446V24.6247C106.446 23.4322 106.609 22.384 106.936 21.4801C107.282 20.5761 107.763 19.826 108.379 19.2298C108.994 18.6143 109.735 18.1527 110.6 17.845C111.466 17.5372 112.427 17.3834 113.485 17.3834C114.543 17.3834 115.505 17.5372 116.37 17.845C117.236 18.1335 117.976 18.5854 118.591 19.2009C119.207 19.7971 119.678 20.5472 120.005 21.4512C120.351 22.3552 120.524 23.413 120.524 24.6247V32.0103H116.197ZM123.812 32.0103V11.5268H128.139V32.0103H123.812ZM134.061 16.4602C133.273 16.4602 132.609 16.2005 132.071 15.6812C131.551 15.1427 131.292 14.4791 131.292 13.6906C131.292 12.902 131.551 12.2481 132.071 11.7288C132.609 11.1902 133.273 10.921 134.061 10.921C134.85 10.921 135.504 11.1902 136.023 11.7288C136.562 12.2481 136.831 12.902 136.831 13.6906C136.831 14.4791 136.562 15.1427 136.023 15.6812C135.504 16.2005 134.85 16.4602 134.061 16.4602ZM131.897 32.0103V17.7584H136.225V32.0103H131.897Z" fill="#1B233D"/>
<path d="M18 32.625C26.0772 32.625 32.625 26.0772 32.625 18C32.625 9.92284 26.0772 3.375 18 3.375C9.92284 3.375 3.375 9.92284 3.375 18C3.375 26.0772 9.92284 32.625 18 32.625Z" fill="#005A9B"/>
<mask id="mask0_615_103" style="mask-type:alpha" maskUnits="userSpaceOnUse" x="3" y="3" width="30" height="30">
<path d="M18 32.625C26.0772 32.625 32.625 26.0772 32.625 18C32.625 9.92284 26.0772 3.375 18 3.375C9.92284 3.375 3.375 9.92284 3.375 18C3.375 26.0772 9.92284 32.625 18 32.625Z" fill="white"/>
</mask>
<g mask="url(#mask0_615_103)">
<path d="M18 34.3125C26.3878 34.3125 33.1875 27.5128 33.1875 19.125C33.1875 10.7372 26.3878 3.9375 18 3.9375C9.61218 3.9375 2.8125 10.7372 2.8125 19.125C2.8125 27.5128 9.61218 34.3125 18 34.3125Z" fill="#0093FF"/>
</g>
<path d="M18 29.25C24.2132 29.25 29.25 24.2132 29.25 18C29.25 11.7868 24.2132 6.75 18 6.75C11.7868 6.75 6.75 11.7868 6.75 18C6.75 24.2132 11.7868 29.25 18 29.25Z" fill="#0077D1"/>
<path d="M18 25.875C22.3492 25.875 25.875 22.3492 25.875 18C25.875 13.6508 22.3492 10.125 18 10.125C13.6508 10.125 10.125 13.6508 10.125 18C10.125 22.3492 13.6508 25.875 18 25.875Z" fill="#0060A8"/>
<path d="M18 22.5C20.4853 22.5 22.5 20.4853 22.5 18C22.5 15.5147 20.4853 13.5 18 13.5C15.5147 13.5 13.5 15.5147 13.5 18C13.5 20.4853 15.5147 22.5 18 22.5Z" fill="#004C85"/>
<path opacity="0.4" fill-rule="evenodd" clip-rule="evenodd" d="M18 8.325C18 13.6125 13.6125 18 8.1 18C5.9625 18 3.9375 17.325 2.25 16.0875C2.3625 15.1875 2.5875 14.4 2.925 13.5C3.6 11.475 4.725 9.675 6.075 7.9875C7.425 6.4125 9.1125 5.0625 11.025 4.05C12.4875 3.2625 14.0625 2.7 15.75 2.25C17.1 3.9375 18 6.075 18 8.325Z" fill="url(#paint0_linear_615_103)"/>
<path fill-rule="evenodd" clip-rule="evenodd" d="M18 36C8.1 36 0 27.9 0 18C0 8.1 8.1 0 18 0C27.9 0 36 8.1 36 18C36 27.9 27.9 36 18 36ZM18 32.625C26.1 32.625 32.625 26.1 32.625 18C32.625 9.9 26.1 3.375 18 3.375C9.9 3.375 3.375 9.9 3.375 18C3.375 26.1 9.9 32.625 18 32.625Z" fill="#D8D8D8"/>
<mask id="mask1_615_103" style="mask-type:alpha" maskUnits="userSpaceOnUse" x="0" y="0" width="36" height="36">
<path fill-rule="evenodd" clip-rule="evenodd" d="M18 36C8.1 36 0 27.9 0 18C0 8.1 8.1 0 18 0C27.9 0 36 8.1 36 18C36 27.9 27.9 36 18 36ZM18 32.625C26.1 32.625 32.625 26.1 32.625 18C32.625 9.9 26.1 3.375 18 3.375C9.9 3.375 3.375 9.9 3.375 18C3.375 26.1 9.9 32.625 18 32.625Z" fill="white"/>
</mask>
<g mask="url(#mask1_615_103)">
<path d="M-2.891 22.8577L31.0977 -3.69775L25.1653 -11.4405L-8.82333 15.1149L-2.891 22.8577Z" fill="#CD2A9D"/>
<path fill-rule="evenodd" clip-rule="evenodd" d="M31.4098 -3.53523L35.0638 1.04612L1.82018 31.2847L-1.02822 18.2252L31.4098 -3.53523Z" fill="#FF4995"/>
<path fill-rule="evenodd" clip-rule="evenodd" d="M29.787 2.20157L38.0775 5.52531L9.77821 37.148L3.09918 30.4957L29.787 2.20157Z" fill="#FF5C43"/>
<path fill-rule="evenodd" clip-rule="evenodd" d="M35.0516 4.44153L47.1619 13.6608L16.2681 44.1391L10.8785 36.1744L35.0516 4.44153Z" fill="#FFA246"/>
<path fill-rule="evenodd" clip-rule="evenodd" d="M38.5976 15.3509L52.1855 22.2803L44.8381 39.1296L25.934 35.0919L38.5976 15.3509Z" fill="#FEE48E"/>
</g>
<defs>
<linearGradient id="paint0_linear_615_103" x1="6.43635" y1="6.38212" x2="15.039" y2="15.8195" gradientUnits="userSpaceOnUse">
<stop stop-color="white" stop-opacity="0.18"/>
<stop offset="1" stop-color="white"/>
</linearGradient>
</defs>
</svg>
