<svg width="20" height="20" viewBox="0 0 20 20" fill="none" xmlns="http://www.w3.org/2000/svg">
<path opacity="0.25" d="M6.70896 4.36638C5.60205 5.67204 4.88578 7.6021 4.83702 9.76716V10.2353C4.8889 12.4004 5.60205 14.3304 6.70896 15.6361C8.144 17.498 10.2734 18.6793 12.6591 18.6793C14.1211 18.6793 15.4917 18.2337 16.6636 17.4549C14.7121 19.2087 12.1458 20.1192 9.52529 19.9875C4.21826 19.7406 0 15.3655 0 10.0003C0 4.47576 4.47576 0 10.0003 0H10.0397C12.4857 0.00541996 14.8441 0.911683 16.6643 2.5457C15.4924 1.77068 14.1217 1.32129 12.6573 1.32129C10.2741 1.32129 8.14213 2.5032 6.70646 4.3645L6.70896 4.36638ZM20 10.0015C20.0012 11.4092 19.7045 12.8012 19.1294 14.086C18.5543 15.3708 17.7137 16.5194 16.663 17.4561C14.1011 18.7062 11.7085 17.8312 10.9178 17.2836C13.4373 16.7305 15.3411 13.6867 15.3411 10.0015C15.3411 6.31644 13.4367 3.27322 10.9178 2.71946C11.7085 2.17194 14.1011 1.30004 16.663 2.54695C17.714 3.48349 18.5547 4.63199 19.1299 5.91685C19.7051 7.20172 20.0016 8.59382 20 10.0015Z" fill="black"/>
</svg>
