<svg width="20" height="20" viewBox="0 0 20 20" fill="none" xmlns="http://www.w3.org/2000/svg">
<path d="M6.44351 15.6328C5.37834 14.3281 4.69573 12.3984 4.65073 10.2344V9.76562C4.69573 7.60156 5.38584 5.67188 6.44351 4.36719C7.82372 2.50781 9.84904 1.67188 12.1369 1.67188C13.5471 1.67188 14.8748 1.77344 16 2.55469C14.3122 0.96875 12.0844 0.0078125 9.63901 0H9.6015C4.29817 0 0 4.47656 0 10C0 15.3594 4.05063 19.7422 9.14393 19.9922C9.29395 20 9.45148 20 9.6015 20C12.0619 20 14.3047 19.0391 16 17.4531C14.8748 18.2344 13.6221 18.2656 12.2119 18.2656C9.93155 18.2734 7.81622 17.5 6.44351 15.6328Z" fill="url(#paint0_linear_589_1347)"/>
<path d="M6 4.15647C6.96296 3.03147 8.21399 2.35971 9.58025 2.35971C12.6502 2.35971 15.1358 5.77518 15.1358 10C15.1358 14.2248 12.6502 17.6403 9.58025 17.6403C8.21399 17.6403 6.97119 16.9604 6 15.8435C7.5144 17.7698 9.76132 19 12.2634 19C13.8025 19 15.251 18.5387 16.4856 17.7293C18.642 15.8192 20 13.0594 20 9.99191C20 6.92446 18.642 4.16457 16.4856 2.27068C15.251 1.46133 13.8107 1 12.2634 1C9.75309 1 7.50617 2.22212 6 4.15647Z" fill="url(#paint1_linear_589_1347)"/>
<defs>
<linearGradient id="paint0_linear_589_1347" x1="8.00048" y1="0.326" x2="8.00048" y2="19.709" gradientUnits="userSpaceOnUse">
<stop offset="0.3" stop-color="#FF1B2D"/>
<stop offset="0.4381" stop-color="#FA1A2C"/>
<stop offset="0.5939" stop-color="#ED1528"/>
<stop offset="0.7581" stop-color="#D60E21"/>
<stop offset="0.9272" stop-color="#B70519"/>
<stop offset="1" stop-color="#A70014"/>
</linearGradient>
<linearGradient id="paint1_linear_589_1347" x1="12.9986" y1="1.15354" x2="12.9986" y2="18.9134" gradientUnits="userSpaceOnUse">
<stop stop-color="#9C0000"/>
<stop offset="0.7" stop-color="#FF4B4B"/>
</linearGradient>
</defs>
</svg>
