<svg width="465" height="368" viewBox="0 0 465 368" fill="none" xmlns="http://www.w3.org/2000/svg">
<g filter="url(#filter0_d_589_325)">
<rect x="72" y="69.1416" width="287" height="228.858" rx="24.5059" fill="white"/>
<rect x="72.5" y="69.6416" width="286" height="227.858" rx="24.0059" stroke="#1B233D" stroke-opacity="0.03"/>
</g>
<g filter="url(#filter1_d_589_325)">
<rect x="52" y="52" width="327" height="230" rx="22.4657" fill="white"/>
<rect x="52.5" y="52.5" width="326" height="229" rx="21.9657" stroke="#1B233D" stroke-opacity="0.03"/>
</g>
<rect opacity="0.1" x="325" y="103" width="37.5246" height="15.3162" rx="4" fill="#1B233D"/>
<rect opacity="0.1" x="288.211" y="108.22" width="15.3162" height="4.59485" rx="2.29742" fill="#1B233D"/>
<rect opacity="0.1" x="265.238" y="108.22" width="15.3162" height="4.59485" rx="2.29742" fill="#1B233D"/>
<rect opacity="0.1" x="242.262" y="108.22" width="15.3162" height="4.59485" rx="2.29742" fill="#1B233D"/>
<rect opacity="0.1" x="219.287" y="108.22" width="15.3162" height="4.59485" rx="2.29742" fill="#1B233D"/>
<g filter="url(#filter2_d_589_325)">
<rect x="105" y="166" width="221" height="92" rx="12" fill="white"/>
</g>
<g filter="url(#filter3_d_589_325)">
<rect x="87" y="138" width="257" height="108" rx="12" fill="white"/>
</g>
<path d="M269.329 200L271.257 195.32H268.545V194.4H272.369V195.16L270.449 200H269.329ZM275.003 200.096C274.64 200.096 274.307 200.029 274.003 199.896C273.699 199.763 273.456 199.56 273.275 199.288C273.094 199.016 272.998 198.672 272.987 198.256H274.043C274.048 198.432 274.088 198.592 274.163 198.736C274.238 198.875 274.347 198.987 274.491 199.072C274.635 199.152 274.806 199.192 275.003 199.192C275.19 199.192 275.35 199.155 275.483 199.08C275.616 199.005 275.718 198.907 275.787 198.784C275.856 198.661 275.891 198.52 275.891 198.36C275.891 198.179 275.843 198.029 275.747 197.912C275.656 197.789 275.528 197.699 275.363 197.64C275.203 197.576 275.019 197.544 274.811 197.544H274.395V196.656H274.811C275.088 196.656 275.318 196.592 275.499 196.464C275.686 196.336 275.779 196.144 275.779 195.888C275.779 195.685 275.71 195.523 275.571 195.4C275.432 195.277 275.24 195.216 274.995 195.216C274.723 195.216 274.51 195.291 274.355 195.44C274.206 195.589 274.123 195.773 274.107 195.992H273.051C273.067 195.64 273.158 195.339 273.323 195.088C273.488 194.832 273.715 194.637 274.003 194.504C274.291 194.371 274.622 194.304 274.995 194.304C275.395 194.304 275.731 194.373 276.003 194.512C276.28 194.651 276.491 194.835 276.635 195.064C276.779 195.288 276.851 195.536 276.851 195.808C276.851 196.027 276.806 196.224 276.715 196.4C276.63 196.576 276.515 196.723 276.371 196.84C276.227 196.952 276.067 197.035 275.891 197.088C276.099 197.125 276.28 197.205 276.435 197.328C276.595 197.445 276.72 197.595 276.811 197.776C276.902 197.957 276.947 198.165 276.947 198.4C276.947 198.704 276.872 198.987 276.723 199.248C276.574 199.504 276.355 199.709 276.067 199.864C275.779 200.019 275.424 200.096 275.003 200.096ZM279.11 200L282.246 194.4H283.302L280.158 200H279.11ZM283.23 200.096C282.974 200.096 282.739 200.04 282.526 199.928C282.318 199.811 282.15 199.645 282.022 199.432C281.899 199.213 281.838 198.957 281.838 198.664C281.838 198.365 281.899 198.109 282.022 197.896C282.15 197.683 282.318 197.52 282.526 197.408C282.739 197.291 282.974 197.232 283.23 197.232C283.496 197.232 283.731 197.291 283.934 197.408C284.142 197.52 284.307 197.683 284.43 197.896C284.552 198.109 284.614 198.365 284.614 198.664C284.614 198.957 284.552 199.213 284.43 199.432C284.307 199.645 284.142 199.811 283.934 199.928C283.726 200.04 283.491 200.096 283.23 200.096ZM283.222 199.352C283.328 199.352 283.422 199.325 283.502 199.272C283.587 199.219 283.654 199.141 283.702 199.04C283.75 198.939 283.774 198.813 283.774 198.664C283.774 198.509 283.75 198.381 283.702 198.28C283.654 198.173 283.587 198.093 283.502 198.04C283.422 197.987 283.331 197.96 283.23 197.96C283.128 197.96 283.035 197.987 282.95 198.04C282.87 198.093 282.806 198.173 282.758 198.28C282.71 198.381 282.686 198.509 282.686 198.664C282.686 198.813 282.71 198.939 282.758 199.04C282.806 199.141 282.87 199.219 282.95 199.272C283.03 199.325 283.12 199.352 283.222 199.352ZM279.214 197.176C278.952 197.176 278.715 197.117 278.502 197C278.294 196.883 278.128 196.717 278.006 196.504C277.883 196.291 277.822 196.037 277.822 195.744C277.822 195.44 277.883 195.184 278.006 194.976C278.134 194.763 278.302 194.597 278.51 194.48C278.723 194.363 278.96 194.304 279.222 194.304C279.483 194.304 279.715 194.363 279.918 194.48C280.126 194.597 280.291 194.763 280.414 194.976C280.536 195.184 280.598 195.44 280.598 195.744C280.598 196.037 280.536 196.291 280.414 196.504C280.291 196.717 280.126 196.883 279.918 197C279.71 197.117 279.475 197.176 279.214 197.176ZM279.214 196.432C279.315 196.432 279.406 196.405 279.486 196.352C279.571 196.299 279.635 196.221 279.678 196.12C279.726 196.019 279.75 195.893 279.75 195.744C279.75 195.584 279.726 195.453 279.678 195.352C279.635 195.251 279.571 195.173 279.486 195.12C279.406 195.067 279.315 195.04 279.214 195.04C279.112 195.04 279.019 195.067 278.934 195.12C278.848 195.173 278.782 195.253 278.734 195.36C278.691 195.461 278.67 195.589 278.67 195.744C278.67 195.893 278.691 196.019 278.734 196.12C278.782 196.221 278.848 196.299 278.934 196.352C279.019 196.405 279.112 196.432 279.214 196.432Z" fill="#61BC5B"/>
<path d="M174.08 225.154H176M176 225.154C176 225.154 174.4 223 172 223C169.791 223 168 224.538 168 226.385M176 225.154V223" stroke="#0093FF" stroke-width="1.25" stroke-linecap="round" stroke-linejoin="round"/>
<path d="M169.92 228.846H168M168 228.846C168 228.846 169.6 231 172 231C174.209 231 176 229.461 176 227.615M168 228.846V231" stroke="#0093FF" stroke-width="1.25" stroke-linecap="round" stroke-linejoin="round"/>
<path opacity="0.5" d="M185.539 230.12C184.872 230.12 184.292 229.97 183.799 229.67C183.312 229.363 182.936 228.94 182.669 228.4C182.402 227.853 182.269 227.22 182.269 226.5C182.269 225.787 182.402 225.157 182.669 224.61C182.936 224.063 183.312 223.64 183.799 223.34C184.292 223.033 184.872 222.88 185.539 222.88C186.352 222.88 187.012 223.077 187.519 223.47C188.026 223.863 188.346 224.417 188.479 225.13H187.399C187.292 224.717 187.086 224.387 186.779 224.14C186.472 223.893 186.059 223.77 185.539 223.77C185.079 223.77 184.679 223.88 184.339 224.1C184.006 224.32 183.749 224.633 183.569 225.04C183.389 225.447 183.299 225.933 183.299 226.5C183.299 227.067 183.389 227.557 183.569 227.97C183.749 228.377 184.006 228.69 184.339 228.91C184.679 229.123 185.079 229.23 185.539 229.23C186.059 229.23 186.472 229.113 186.779 228.88C187.086 228.64 187.292 228.317 187.399 227.91H188.479C188.346 228.603 188.026 229.147 187.519 229.54C187.012 229.927 186.352 230.12 185.539 230.12ZM191.967 230.12C191.48 230.12 191.047 230.007 190.667 229.78C190.293 229.553 190 229.237 189.787 228.83C189.573 228.417 189.467 227.937 189.467 227.39C189.467 226.843 189.573 226.367 189.787 225.96C190 225.547 190.297 225.227 190.677 225C191.057 224.773 191.49 224.66 191.977 224.66C192.47 224.66 192.903 224.773 193.277 225C193.657 225.227 193.95 225.547 194.157 225.96C194.37 226.367 194.477 226.843 194.477 227.39C194.477 227.937 194.37 228.417 194.157 228.83C193.943 229.237 193.647 229.553 193.267 229.78C192.893 230.007 192.46 230.12 191.967 230.12ZM191.967 229.26C192.247 229.26 192.497 229.19 192.717 229.05C192.943 228.91 193.123 228.703 193.257 228.43C193.39 228.15 193.457 227.803 193.457 227.39C193.457 226.977 193.39 226.633 193.257 226.36C193.13 226.08 192.957 225.87 192.737 225.73C192.517 225.59 192.263 225.52 191.977 225.52C191.703 225.52 191.453 225.59 191.227 225.73C191 225.87 190.82 226.08 190.687 226.36C190.56 226.633 190.497 226.977 190.497 227.39C190.497 227.803 190.56 228.15 190.687 228.43C190.82 228.703 190.997 228.91 191.217 229.05C191.437 229.19 191.687 229.26 191.967 229.26ZM195.682 230V224.78H196.572L196.632 225.61C196.786 225.317 197.006 225.087 197.292 224.92C197.579 224.747 197.916 224.66 198.302 224.66C198.696 224.66 199.036 224.737 199.322 224.89C199.609 225.043 199.829 225.277 199.982 225.59C200.142 225.897 200.222 226.28 200.222 226.74V230H199.232V226.84C199.232 226.407 199.126 226.08 198.912 225.86C198.699 225.633 198.406 225.52 198.032 225.52C197.786 225.52 197.559 225.577 197.352 225.69C197.146 225.803 196.982 225.973 196.862 226.2C196.742 226.42 196.682 226.693 196.682 227.02V230H195.682ZM203.002 230L201.042 224.78H202.102L203.602 229.04L205.102 224.78H206.132L204.182 230H203.002ZM209.055 230.12C208.575 230.12 208.152 230.007 207.785 229.78C207.419 229.553 207.129 229.237 206.915 228.83C206.709 228.423 206.605 227.95 206.605 227.41C206.605 226.863 206.709 226.383 206.915 225.97C207.122 225.557 207.409 225.237 207.775 225.01C208.149 224.777 208.579 224.66 209.065 224.66C209.572 224.66 209.999 224.773 210.345 225C210.699 225.227 210.965 225.53 211.145 225.91C211.332 226.29 211.425 226.71 211.425 227.17C211.425 227.237 211.425 227.307 211.425 227.38C211.425 227.453 211.419 227.537 211.405 227.63H207.345V226.92H210.435C210.422 226.46 210.285 226.107 210.025 225.86C209.765 225.613 209.442 225.49 209.055 225.49C208.789 225.49 208.545 225.557 208.325 225.69C208.105 225.817 207.925 226.007 207.785 226.26C207.652 226.507 207.585 226.82 207.585 227.2V227.48C207.585 227.873 207.652 228.207 207.785 228.48C207.919 228.747 208.095 228.95 208.315 229.09C208.535 229.223 208.779 229.29 209.045 229.29C209.385 229.29 209.652 229.227 209.845 229.1C210.039 228.967 210.185 228.783 210.285 228.55H211.285C211.199 228.843 211.052 229.11 210.845 229.35C210.645 229.59 210.392 229.78 210.085 229.92C209.785 230.053 209.442 230.12 209.055 230.12ZM212.577 230V224.78H213.477L213.557 225.73C213.677 225.497 213.834 225.303 214.027 225.15C214.22 224.99 214.45 224.87 214.717 224.79C214.984 224.703 215.284 224.66 215.617 224.66V225.72H215.077C214.877 225.72 214.687 225.747 214.507 225.8C214.327 225.847 214.167 225.927 214.027 226.04C213.887 226.153 213.777 226.31 213.697 226.51C213.617 226.703 213.577 226.95 213.577 227.25V230H212.577ZM218.691 230C218.378 230 218.104 229.95 217.871 229.85C217.638 229.75 217.458 229.583 217.331 229.35C217.204 229.117 217.141 228.8 217.141 228.4V225.63H216.231V224.78H217.141L217.261 223.44H218.141V224.78H219.581V225.63H218.141V228.41C218.141 228.697 218.198 228.893 218.311 229C218.431 229.1 218.641 229.15 218.941 229.15H219.571V230H218.691ZM220.811 230V224.78H221.811V230H220.811ZM221.311 223.89C221.118 223.89 220.958 223.83 220.831 223.71C220.711 223.59 220.651 223.437 220.651 223.25C220.651 223.07 220.711 222.923 220.831 222.81C220.958 222.69 221.118 222.63 221.311 222.63C221.498 222.63 221.654 222.69 221.781 222.81C221.908 222.923 221.971 223.07 221.971 223.25C221.971 223.437 221.908 223.59 221.781 223.71C221.654 223.83 221.498 223.89 221.311 223.89ZM223.261 230V224.78H224.151L224.211 225.61C224.364 225.317 224.584 225.087 224.871 224.92C225.157 224.747 225.494 224.66 225.881 224.66C226.274 224.66 226.614 224.737 226.901 224.89C227.187 225.043 227.407 225.277 227.561 225.59C227.721 225.897 227.801 226.28 227.801 226.74V230H226.811V226.84C226.811 226.407 226.704 226.08 226.491 225.86C226.277 225.633 225.984 225.52 225.611 225.52C225.364 225.52 225.137 225.577 224.931 225.69C224.724 225.803 224.561 225.973 224.441 226.2C224.321 226.42 224.261 226.693 224.261 227.02V230H223.261ZM231.269 232.32C230.789 232.32 230.369 232.26 230.009 232.14C229.655 232.027 229.379 231.85 229.179 231.61C228.985 231.37 228.889 231.077 228.889 230.73C228.889 230.537 228.929 230.343 229.009 230.15C229.089 229.963 229.219 229.787 229.399 229.62C229.579 229.453 229.819 229.307 230.119 229.18L230.729 229.62C230.369 229.753 230.129 229.91 230.009 230.09C229.889 230.27 229.829 230.447 229.829 230.62C229.829 230.827 229.889 230.997 230.009 231.13C230.129 231.263 230.295 231.363 230.509 231.43C230.729 231.497 230.979 231.53 231.259 231.53C231.532 231.53 231.769 231.493 231.969 231.42C232.169 231.353 232.322 231.253 232.429 231.12C232.542 230.987 232.599 230.83 232.599 230.65C232.599 230.403 232.515 230.207 232.349 230.06C232.189 229.92 231.869 229.837 231.389 229.81C231.002 229.783 230.672 229.747 230.399 229.7C230.125 229.653 229.895 229.597 229.709 229.53C229.529 229.463 229.375 229.39 229.249 229.31C229.129 229.23 229.025 229.147 228.939 229.06V228.83L229.949 227.82L230.799 228.09L229.659 229.09L229.869 228.62C229.942 228.667 230.012 228.713 230.079 228.76C230.145 228.807 230.235 228.847 230.349 228.88C230.469 228.913 230.629 228.947 230.829 228.98C231.029 229.007 231.292 229.033 231.619 229.06C232.085 229.1 232.459 229.183 232.739 229.31C233.025 229.43 233.232 229.6 233.359 229.82C233.492 230.04 233.559 230.307 233.559 230.62C233.559 230.907 233.479 231.18 233.319 231.44C233.159 231.7 232.909 231.91 232.569 232.07C232.235 232.237 231.802 232.32 231.269 232.32ZM231.259 228.4C230.832 228.4 230.469 228.32 230.169 228.16C229.875 227.993 229.649 227.77 229.489 227.49C229.335 227.203 229.259 226.883 229.259 226.53C229.259 226.183 229.335 225.87 229.489 225.59C229.649 225.31 229.879 225.087 230.179 224.92C230.479 224.747 230.839 224.66 231.259 224.66C231.692 224.66 232.055 224.747 232.349 224.92C232.649 225.087 232.875 225.31 233.029 225.59C233.189 225.87 233.269 226.183 233.269 226.53C233.269 226.883 233.189 227.203 233.029 227.49C232.875 227.77 232.649 227.993 232.349 228.16C232.055 228.32 231.692 228.4 231.259 228.4ZM231.259 227.6C231.599 227.6 231.865 227.513 232.059 227.34C232.252 227.16 232.349 226.893 232.349 226.54C232.349 226.18 232.252 225.913 232.059 225.74C231.865 225.56 231.599 225.47 231.259 225.47C230.939 225.47 230.675 225.56 230.469 225.74C230.262 225.913 230.159 226.18 230.159 226.54C230.159 226.893 230.259 227.16 230.459 227.34C230.659 227.513 230.925 227.6 231.259 227.6ZM232.129 225.57L231.889 224.78H233.959V225.47L232.129 225.57ZM239.037 230L237.077 224.78H238.137L239.637 229.04L241.137 224.78H242.167L240.217 230H239.037ZM243.155 230V224.78H244.155V230H243.155ZM243.655 223.89C243.461 223.89 243.301 223.83 243.175 223.71C243.055 223.59 242.995 223.437 242.995 223.25C242.995 223.07 243.055 222.923 243.175 222.81C243.301 222.69 243.461 222.63 243.655 222.63C243.841 222.63 243.998 222.69 244.125 222.81C244.251 222.923 244.315 223.07 244.315 223.25C244.315 223.437 244.251 223.59 244.125 223.71C243.998 223.83 243.841 223.89 243.655 223.89ZM247.774 230.12C247.308 230.12 246.894 230.003 246.534 229.77C246.181 229.53 245.904 229.207 245.704 228.8C245.504 228.387 245.404 227.92 245.404 227.4C245.404 226.867 245.504 226.397 245.704 225.99C245.911 225.577 246.194 225.253 246.554 225.02C246.921 224.78 247.341 224.66 247.814 224.66C248.208 224.66 248.548 224.74 248.834 224.9C249.121 225.053 249.348 225.27 249.514 225.55V222.8H250.514V230H249.624L249.524 229.21C249.424 229.37 249.294 229.52 249.134 229.66C248.974 229.793 248.781 229.903 248.554 229.99C248.334 230.077 248.074 230.12 247.774 230.12ZM247.964 229.25C248.278 229.25 248.551 229.177 248.784 229.03C249.018 228.877 249.198 228.66 249.324 228.38C249.451 228.1 249.514 227.77 249.514 227.39C249.514 227.01 249.451 226.683 249.324 226.41C249.198 226.13 249.018 225.913 248.784 225.76C248.551 225.607 248.278 225.53 247.964 225.53C247.671 225.53 247.408 225.607 247.174 225.76C246.941 225.913 246.758 226.13 246.624 226.41C246.491 226.683 246.424 227.01 246.424 227.39C246.424 227.77 246.491 228.1 246.624 228.38C246.758 228.66 246.941 228.877 247.174 229.03C247.408 229.177 247.671 229.25 247.964 229.25ZM254.163 230.12C253.683 230.12 253.26 230.007 252.893 229.78C252.526 229.553 252.236 229.237 252.023 228.83C251.816 228.423 251.713 227.95 251.713 227.41C251.713 226.863 251.816 226.383 252.023 225.97C252.23 225.557 252.516 225.237 252.883 225.01C253.256 224.777 253.686 224.66 254.173 224.66C254.68 224.66 255.106 224.773 255.453 225C255.806 225.227 256.073 225.53 256.253 225.91C256.44 226.29 256.533 226.71 256.533 227.17C256.533 227.237 256.533 227.307 256.533 227.38C256.533 227.453 256.526 227.537 256.513 227.63H252.453V226.92H255.543C255.53 226.46 255.393 226.107 255.133 225.86C254.873 225.613 254.55 225.49 254.163 225.49C253.896 225.49 253.653 225.557 253.433 225.69C253.213 225.817 253.033 226.007 252.893 226.26C252.76 226.507 252.693 226.82 252.693 227.2V227.48C252.693 227.873 252.76 228.207 252.893 228.48C253.026 228.747 253.203 228.95 253.423 229.09C253.643 229.223 253.886 229.29 254.153 229.29C254.493 229.29 254.76 229.227 254.953 229.1C255.146 228.967 255.293 228.783 255.393 228.55H256.393C256.306 228.843 256.16 229.11 255.953 229.35C255.753 229.59 255.5 229.78 255.193 229.92C254.893 230.053 254.55 230.12 254.163 230.12ZM259.984 230.12C259.498 230.12 259.064 230.007 258.684 229.78C258.311 229.553 258.018 229.237 257.804 228.83C257.591 228.417 257.484 227.937 257.484 227.39C257.484 226.843 257.591 226.367 257.804 225.96C258.018 225.547 258.314 225.227 258.694 225C259.074 224.773 259.508 224.66 259.994 224.66C260.488 224.66 260.921 224.773 261.294 225C261.674 225.227 261.968 225.547 262.174 225.96C262.388 226.367 262.494 226.843 262.494 227.39C262.494 227.937 262.388 228.417 262.174 228.83C261.961 229.237 261.664 229.553 261.284 229.78C260.911 230.007 260.478 230.12 259.984 230.12ZM259.984 229.26C260.264 229.26 260.514 229.19 260.734 229.05C260.961 228.91 261.141 228.703 261.274 228.43C261.408 228.15 261.474 227.803 261.474 227.39C261.474 226.977 261.408 226.633 261.274 226.36C261.148 226.08 260.974 225.87 260.754 225.73C260.534 225.59 260.281 225.52 259.994 225.52C259.721 225.52 259.471 225.59 259.244 225.73C259.018 225.87 258.838 226.08 258.704 226.36C258.578 226.633 258.514 226.977 258.514 227.39C258.514 227.803 258.578 228.15 258.704 228.43C258.838 228.703 259.014 228.91 259.234 229.05C259.454 229.19 259.704 229.26 259.984 229.26Z" fill="#1B233D"/>
<rect opacity="0.05" x="105" y="204" width="221" height="8" rx="4" fill="#1B233D"/>
<rect x="105" y="204" width="172" height="8" rx="4" fill="url(#paint0_linear_589_325)"/>
<path d="M292 161L294 163L292 165" stroke="#1B233D" stroke-width="1.5" stroke-linecap="round" stroke-linejoin="round"/>
<rect x="299" y="156" width="27" height="14" rx="4" fill="#FF8E00"/>
<path d="M303.664 166V159.7H305.113L306.949 163.651L308.758 159.7H310.207V166H308.992V161.788L307.417 165.172H306.463L304.879 161.806V166H303.664ZM311.539 166V159.7H313.861C314.383 159.7 314.812 159.79 315.148 159.97C315.49 160.144 315.745 160.384 315.913 160.69C316.081 160.99 316.165 161.332 316.165 161.716C316.165 162.07 316.084 162.4 315.922 162.706C315.76 163.012 315.511 163.258 315.175 163.444C314.839 163.63 314.401 163.723 313.861 163.723H312.754V166H311.539ZM312.754 162.742H313.789C314.203 162.742 314.494 162.649 314.662 162.463C314.836 162.271 314.923 162.022 314.923 161.716C314.923 161.398 314.836 161.149 314.662 160.969C314.494 160.783 314.203 160.69 313.789 160.69H312.754V162.742ZM319.605 166V164.857H316.509V163.894L319.443 159.7H320.82V163.804H321.639V164.857H320.82V166H319.605ZM317.805 163.804H319.686V161.041L317.805 163.804Z" fill="white"/>
<rect opacity="0.25" x="257" y="156" width="30" height="14" rx="4" fill="#1B233D"/>
<path d="M262.792 166V159.7H264.241L266.077 163.651L267.886 159.7H269.335V166H268.12V161.788L266.545 165.172H265.591L264.007 161.806V166H262.792ZM273.412 166.108C272.83 166.108 272.314 165.97 271.864 165.694C271.42 165.418 271.069 165.037 270.811 164.551C270.559 164.059 270.433 163.492 270.433 162.85C270.433 162.208 270.559 161.644 270.811 161.158C271.069 160.666 271.42 160.282 271.864 160.006C272.314 159.73 272.83 159.592 273.412 159.592C274.006 159.592 274.525 159.73 274.969 160.006C275.419 160.282 275.767 160.666 276.013 161.158C276.265 161.644 276.391 162.208 276.391 162.85C276.391 163.492 276.265 164.059 276.013 164.551C275.767 165.037 275.419 165.418 274.969 165.694C274.525 165.97 274.006 166.108 273.412 166.108ZM273.412 165.019C273.772 165.019 274.081 164.932 274.339 164.758C274.597 164.578 274.795 164.326 274.933 164.002C275.077 163.678 275.149 163.294 275.149 162.85C275.149 162.4 275.077 162.016 274.933 161.698C274.795 161.374 274.597 161.125 274.339 160.951C274.081 160.777 273.772 160.69 273.412 160.69C273.064 160.69 272.758 160.777 272.494 160.951C272.236 161.125 272.035 161.374 271.891 161.698C271.747 162.016 271.675 162.4 271.675 162.85C271.675 163.294 271.747 163.678 271.891 164.002C272.035 164.326 272.236 164.578 272.494 164.758C272.758 164.932 273.064 165.019 273.412 165.019ZM279.058 166L276.763 159.7H278.059L279.805 164.758L281.56 159.7H282.847L280.552 166H279.058Z" fill="white"/>
<rect opacity="0.07" x="149" y="159" width="96" height="8" rx="3" fill="#1B233D"/>
<rect opacity="0.07" x="149" y="172" width="61" height="8" rx="3" fill="#1B233D"/>
<rect x="105" y="156" width="36" height="27" rx="7" fill="url(#paint1_linear_589_325)"/>
<path d="M120 173.548V165.948C120 164.807 121.272 164.126 122.221 164.759L127.921 168.559C128.769 169.125 128.769 170.371 127.921 170.936L122.221 174.737C121.272 175.37 120 174.689 120 173.548Z" fill="white"/>
<path d="M95.6186 110.186C95.6111 109.968 95.536 109.788 95.3933 109.645C95.2505 109.495 95.0214 109.42 94.7058 109.42C94.3752 109.42 94.1386 109.499 93.9958 109.657C93.8606 109.807 93.793 109.98 93.793 110.175C93.793 110.385 93.8831 110.536 94.0634 110.626C94.2438 110.708 94.4691 110.78 94.7396 110.84C95.0101 110.892 95.3031 110.949 95.6186 111.009C95.9342 111.069 96.2272 111.174 96.4977 111.324C96.7681 111.475 96.9935 111.693 97.1738 111.978C97.3542 112.256 97.4443 112.639 97.4443 113.128C97.4443 113.496 97.3767 113.826 97.2415 114.119C97.1137 114.412 96.9259 114.664 96.678 114.874C96.4376 115.077 96.1446 115.235 95.799 115.348C95.4609 115.46 95.0852 115.517 94.672 115.517C94.2588 115.517 93.8831 115.46 93.545 115.348C93.2145 115.242 92.9252 115.092 92.6773 114.897C92.4369 114.694 92.249 114.45 92.1138 114.164C91.9786 113.879 91.9072 113.556 91.8997 113.195H93.6803C93.6803 113.428 93.7554 113.612 93.9057 113.747C94.0559 113.883 94.3114 113.95 94.672 113.95C95.0326 113.95 95.2881 113.883 95.4383 113.747C95.5886 113.612 95.6637 113.428 95.6637 113.195C95.6637 113.037 95.6111 112.917 95.5059 112.835C95.4008 112.744 95.2618 112.677 95.089 112.632C94.9237 112.579 94.7321 112.534 94.5142 112.496C94.2963 112.459 94.0747 112.414 93.8493 112.361C93.6239 112.309 93.4023 112.237 93.1844 112.147C92.9665 112.057 92.7712 111.933 92.5984 111.775C92.4331 111.617 92.2979 111.415 92.1927 111.167C92.0875 110.919 92.0349 110.611 92.0349 110.243C92.0349 109.897 92.0988 109.578 92.2265 109.285C92.3542 108.992 92.5308 108.74 92.7562 108.53C92.9891 108.312 93.2671 108.146 93.5901 108.034C93.9207 107.913 94.2851 107.853 94.6833 107.853C95.0664 107.853 95.4158 107.91 95.7313 108.022C96.0544 108.135 96.3324 108.293 96.5653 108.496C96.7982 108.699 96.9785 108.947 97.1062 109.24C97.2415 109.525 97.3166 109.841 97.3316 110.186H95.6186ZM102.32 111.967C102.223 111.734 102.069 111.55 101.858 111.415C101.655 111.279 101.411 111.212 101.126 111.212C100.743 111.212 100.431 111.336 100.19 111.584C99.9574 111.832 99.8409 112.158 99.8409 112.564C99.8409 112.97 99.9574 113.297 100.19 113.545C100.431 113.792 100.743 113.916 101.126 113.916C101.411 113.916 101.655 113.849 101.858 113.714C102.069 113.578 102.223 113.394 102.32 113.161H104.033C103.973 113.507 103.86 113.823 103.695 114.108C103.53 114.393 103.319 114.641 103.064 114.852C102.816 115.055 102.527 115.212 102.196 115.325C101.866 115.438 101.509 115.494 101.126 115.494C100.682 115.494 100.277 115.423 99.9086 115.28C99.5479 115.13 99.2324 114.927 98.9619 114.671C98.699 114.409 98.4924 114.097 98.3421 113.736C98.1993 113.375 98.128 112.985 98.128 112.564C98.128 112.143 98.1993 111.753 98.3421 111.392C98.4924 111.031 98.699 110.723 98.9619 110.468C99.2324 110.205 99.5479 110.002 99.9086 109.859C100.277 109.709 100.682 109.634 101.126 109.634C101.509 109.634 101.866 109.69 102.196 109.803C102.527 109.916 102.816 110.077 103.064 110.288C103.319 110.49 103.53 110.735 103.695 111.02C103.86 111.306 103.973 111.621 104.033 111.967H102.32ZM108.204 112.226V112.181C108.204 111.805 108.129 111.55 107.978 111.415C107.828 111.279 107.633 111.212 107.392 111.212C107.152 111.212 106.957 111.279 106.806 111.415C106.656 111.55 106.581 111.805 106.581 112.181V115.348H104.891V112.181C104.891 111.745 104.951 111.369 105.071 111.054C105.191 110.731 105.36 110.464 105.578 110.254C105.803 110.043 106.066 109.889 106.367 109.792C106.675 109.687 107.017 109.634 107.392 109.634C107.768 109.634 108.11 109.687 108.418 109.792C108.726 109.889 108.989 110.047 109.207 110.265C109.425 110.475 109.594 110.746 109.714 111.076C109.834 111.4 109.894 111.783 109.894 112.226H108.204ZM114.39 115.348V112.463C114.39 112.019 114.292 111.7 114.097 111.505C113.901 111.309 113.646 111.212 113.33 111.212C113.015 111.212 112.759 111.309 112.564 111.505C112.369 111.7 112.271 112.019 112.271 112.463V115.348H110.58V112.463C110.58 111.997 110.644 111.587 110.772 111.234C110.907 110.881 111.095 110.588 111.335 110.355C111.576 110.115 111.865 109.935 112.203 109.814C112.541 109.694 112.917 109.634 113.33 109.634C113.743 109.634 114.119 109.694 114.457 109.814C114.795 109.927 115.084 110.104 115.325 110.344C115.565 110.577 115.749 110.87 115.877 111.223C116.012 111.576 116.08 111.989 116.08 112.463V115.348H114.39ZM117.364 115.348V107.346H119.054V115.348H117.364ZM121.368 109.273C121.06 109.273 120.801 109.172 120.59 108.969C120.387 108.759 120.286 108.5 120.286 108.191C120.286 107.883 120.387 107.628 120.59 107.425C120.801 107.215 121.06 107.11 121.368 107.11C121.676 107.11 121.931 107.215 122.134 107.425C122.344 107.628 122.45 107.883 122.45 108.191C122.45 108.5 122.344 108.759 122.134 108.969C121.931 109.172 121.676 109.273 121.368 109.273ZM120.523 115.348V109.78H122.213V115.348H120.523Z" fill="#1B233D"/>
<path d="M77.4514 118.32C81.2441 118.32 84.3188 115.245 84.3188 111.452C84.3188 107.66 81.2441 104.585 77.4514 104.585C73.6586 104.585 70.584 107.66 70.584 111.452C70.584 115.245 73.6586 118.32 77.4514 118.32Z" fill="#005A9B"/>
<mask id="mask0_589_325" style="mask-type:alpha" maskUnits="userSpaceOnUse" x="70" y="104" width="15" height="15">
<path d="M77.4514 118.32C81.2441 118.32 84.3188 115.245 84.3188 111.452C84.3188 107.66 81.2441 104.585 77.4514 104.585C73.6586 104.585 70.584 107.66 70.584 111.452C70.584 115.245 73.6586 118.32 77.4514 118.32Z" fill="white"/>
</mask>
<g mask="url(#mask0_589_325)">
<path d="M77.4518 119.112C81.3905 119.112 84.5834 115.919 84.5834 111.981C84.5834 108.042 81.3905 104.849 77.4518 104.849C73.5132 104.849 70.3203 108.042 70.3203 111.981C70.3203 115.919 73.5132 119.112 77.4518 119.112Z" fill="#0093FF"/>
</g>
<path d="M77.4525 116.735C80.37 116.735 82.7351 114.37 82.7351 111.452C82.7351 108.535 80.37 106.169 77.4525 106.169C74.535 106.169 72.1699 108.535 72.1699 111.452C72.1699 114.37 74.535 116.735 77.4525 116.735Z" fill="#0077D1"/>
<path d="M77.4517 115.15C79.494 115.15 81.1496 113.494 81.1496 111.452C81.1496 109.41 79.494 107.754 77.4517 107.754C75.4095 107.754 73.7539 109.41 73.7539 111.452C73.7539 113.494 75.4095 115.15 77.4517 115.15Z" fill="#0060A8"/>
<path d="M77.4529 113.565C78.6199 113.565 79.5659 112.619 79.5659 111.452C79.5659 110.285 78.6199 109.339 77.4529 109.339C76.2859 109.339 75.3398 110.285 75.3398 111.452C75.3398 112.619 76.2859 113.565 77.4529 113.565Z" fill="#004C85"/>
<path opacity="0.4" fill-rule="evenodd" clip-rule="evenodd" d="M77.4523 106.909C77.4523 109.392 75.3921 111.452 72.8036 111.452C71.7999 111.452 70.849 111.135 70.0566 110.554C70.1095 110.132 70.2151 109.762 70.3736 109.339C70.6906 108.388 71.2188 107.543 71.8527 106.751C72.4866 106.011 73.279 105.377 74.1771 104.902C74.8638 104.532 75.6034 104.268 76.3958 104.057C77.0297 104.849 77.4523 105.853 77.4523 106.909Z" fill="url(#paint2_linear_589_325)"/>
<path fill-rule="evenodd" clip-rule="evenodd" d="M77.4522 119.904C72.8035 119.904 69 116.101 69 111.452C69 106.803 72.8035 103 77.4522 103C82.1009 103 85.9043 106.803 85.9043 111.452C85.9043 116.101 82.1009 119.904 77.4522 119.904ZM77.4522 118.32C81.2557 118.32 84.3196 115.256 84.3196 111.452C84.3196 107.649 81.2557 104.585 77.4522 104.585C73.6487 104.585 70.5848 107.649 70.5848 111.452C70.5848 115.256 73.6487 118.32 77.4522 118.32Z" fill="#D8D8D8"/>
<mask id="mask1_589_325" style="mask-type:alpha" maskUnits="userSpaceOnUse" x="69" y="103" width="17" height="17">
<path fill-rule="evenodd" clip-rule="evenodd" d="M77.4522 119.904C72.8035 119.904 69 116.101 69 111.452C69 106.803 72.8035 103 77.4522 103C82.1009 103 85.9043 106.803 85.9043 111.452C85.9043 116.101 82.1009 119.904 77.4522 119.904ZM77.4522 118.32C81.2557 118.32 84.3196 115.256 84.3196 111.452C84.3196 107.649 81.2557 104.585 77.4522 104.585C73.6487 104.585 70.5848 107.649 70.5848 111.452C70.5848 115.256 73.6487 118.32 77.4522 118.32Z" fill="white"/>
</mask>
<g mask="url(#mask1_589_325)">
<path d="M67.6397 113.733L83.5996 101.263L80.814 97.6274L64.8541 110.097L67.6397 113.733Z" fill="#CD2A9D"/>
<path fill-rule="evenodd" clip-rule="evenodd" d="M83.7462 101.339L85.462 103.491L69.852 117.69L68.5145 111.557L83.7462 101.339Z" fill="#FF4995"/>
<path fill-rule="evenodd" clip-rule="evenodd" d="M82.9833 104.033L86.8762 105.594L73.5879 120.443L70.4516 117.319L82.9833 104.033Z" fill="#FF5C43"/>
<path fill-rule="evenodd" clip-rule="evenodd" d="M85.4557 105.085L91.1423 109.414L76.6356 123.725L74.1049 119.986L85.4557 105.085Z" fill="#FFA246"/>
<path fill-rule="evenodd" clip-rule="evenodd" d="M87.1221 110.208L93.5025 113.461L90.0524 121.373L81.1757 119.477L87.1221 110.208Z" fill="#FEE48E"/>
</g>
<path opacity="0.1" d="M68.8516 85.3936L362.661 85.3935" stroke="#1B233D" stroke-width="1.14871" stroke-linecap="round"/>
<path d="M72.582 68.6465C74.2931 68.6465 75.6797 70.033 75.6797 71.7422C75.6795 73.4512 74.293 74.8369 72.582 74.8369C70.8711 74.8369 69.4845 73.4512 69.4844 71.7422C69.4844 70.0331 70.871 68.6465 72.582 68.6465Z" stroke="#1B233D" stroke-opacity="0.25" stroke-width="1.14871"/>
<path d="M98.2852 68.6465C99.9962 68.6465 101.383 70.033 101.383 71.7422C101.383 73.4512 99.9961 74.8369 98.2852 74.8369C96.5742 74.8369 95.1877 73.4512 95.1875 71.7422C95.1875 70.0331 96.5741 68.6465 98.2852 68.6465Z" stroke="#0093FF" stroke-width="1.14871"/>
<ellipse cx="85.4356" cy="71.7419" rx="3.67192" ry="3.66964" fill="#0093FF"/>
<path d="M300.283 222.63C300.368 222.641 300.447 222.669 300.518 222.711L300.585 222.757L301.603 223.58V223.579L309.17 229.703H309.171C309.546 230.006 309.373 230.662 308.792 230.662H304.919C304.575 230.662 304.234 230.733 303.92 230.871C303.684 230.975 303.466 231.115 303.275 231.286L303.094 231.467L303.093 231.468L300.649 234.18C300.273 234.597 299.625 234.296 299.625 233.826V223.17C299.625 223.095 299.642 223.021 299.674 222.952L299.712 222.885C299.755 222.82 299.812 222.763 299.881 222.719L299.953 222.68C300.055 222.633 300.17 222.616 300.283 222.63Z" fill="white" stroke="#1B233D" stroke-width="1.25"/>
<defs>
<filter id="filter0_d_589_325" x="72" y="69.1416" width="287" height="274.807" filterUnits="userSpaceOnUse" color-interpolation-filters="sRGB">
<feFlood flood-opacity="0" result="BackgroundImageFix"/>
<feColorMatrix in="SourceAlpha" type="matrix" values="0 0 0 0 0 0 0 0 0 0 0 0 0 0 0 0 0 0 127 0" result="hardAlpha"/>
<feMorphology radius="30.6323" operator="erode" in="SourceAlpha" result="effect1_dropShadow_589_325"/>
<feOffset dy="45.9485"/>
<feGaussianBlur stdDeviation="15.3162"/>
<feComposite in2="hardAlpha" operator="out"/>
<feColorMatrix type="matrix" values="0 0 0 0 0.105882 0 0 0 0 0.137255 0 0 0 0 0.239216 0 0 0 0.05 0"/>
<feBlend mode="normal" in2="BackgroundImageFix" result="effect1_dropShadow_589_325"/>
<feBlend mode="normal" in="SourceGraphic" in2="effect1_dropShadow_589_325" result="shape"/>
</filter>
<filter id="filter1_d_589_325" x="0.800278" y="0.800278" width="463.533" height="366.533" filterUnits="userSpaceOnUse" color-interpolation-filters="sRGB">
<feFlood flood-opacity="0" result="BackgroundImageFix"/>
<feColorMatrix in="SourceAlpha" type="matrix" values="0 0 0 0 0 0 0 0 0 0 0 0 0 0 0 0 0 0 127 0" result="hardAlpha"/>
<feOffset dx="17.0666" dy="17.0666"/>
<feGaussianBlur stdDeviation="34.1331"/>
<feComposite in2="hardAlpha" operator="out"/>
<feColorMatrix type="matrix" values="0 0 0 0 0.105882 0 0 0 0 0.137255 0 0 0 0 0.239216 0 0 0 0.05 0"/>
<feBlend mode="normal" in2="BackgroundImageFix" result="effect1_dropShadow_589_325"/>
<feBlend mode="normal" in="SourceGraphic" in2="effect1_dropShadow_589_325" result="shape"/>
</filter>
<filter id="filter2_d_589_325" x="64.7605" y="125.76" width="328.305" height="199.305" filterUnits="userSpaceOnUse" color-interpolation-filters="sRGB">
<feFlood flood-opacity="0" result="BackgroundImageFix"/>
<feColorMatrix in="SourceAlpha" type="matrix" values="0 0 0 0 0 0 0 0 0 0 0 0 0 0 0 0 0 0 127 0" result="hardAlpha"/>
<feOffset dx="13.4132" dy="13.4132"/>
<feGaussianBlur stdDeviation="26.8264"/>
<feComposite in2="hardAlpha" operator="out"/>
<feColorMatrix type="matrix" values="0 0 0 0 0.105882 0 0 0 0 0.137255 0 0 0 0 0.239216 0 0 0 0.05 0"/>
<feBlend mode="normal" in2="BackgroundImageFix" result="effect1_dropShadow_589_325"/>
<feBlend mode="normal" in="SourceGraphic" in2="effect1_dropShadow_589_325" result="shape"/>
</filter>
<filter id="filter3_d_589_325" x="46.7605" y="97.7605" width="364.305" height="215.305" filterUnits="userSpaceOnUse" color-interpolation-filters="sRGB">
<feFlood flood-opacity="0" result="BackgroundImageFix"/>
<feColorMatrix in="SourceAlpha" type="matrix" values="0 0 0 0 0 0 0 0 0 0 0 0 0 0 0 0 0 0 127 0" result="hardAlpha"/>
<feOffset dx="13.4132" dy="13.4132"/>
<feGaussianBlur stdDeviation="26.8264"/>
<feComposite in2="hardAlpha" operator="out"/>
<feColorMatrix type="matrix" values="0 0 0 0 0.105882 0 0 0 0 0.137255 0 0 0 0 0.239216 0 0 0 0.05 0"/>
<feBlend mode="normal" in2="BackgroundImageFix" result="effect1_dropShadow_589_325"/>
<feBlend mode="normal" in="SourceGraphic" in2="effect1_dropShadow_589_325" result="shape"/>
</filter>
<linearGradient id="paint0_linear_589_325" x1="277" y1="208" x2="105" y2="208" gradientUnits="userSpaceOnUse">
<stop stop-color="#61BC5B"/>
<stop offset="1" stop-color="#61BC5B" stop-opacity="0.25"/>
</linearGradient>
<linearGradient id="paint1_linear_589_325" x1="141" y1="170" x2="105" y2="169.5" gradientUnits="userSpaceOnUse">
<stop stop-color="#0093FF"/>
<stop offset="0.515625" stop-color="#209FFF"/>
<stop offset="1" stop-color="#0093FF"/>
</linearGradient>
<linearGradient id="paint2_linear_589_325" x1="72.0224" y1="105.997" x2="76.0619" y2="110.428" gradientUnits="userSpaceOnUse">
<stop stop-color="white" stop-opacity="0.18"/>
<stop offset="1" stop-color="white"/>
</linearGradient>
</defs>
</svg>
