<svg width="465" height="368" viewBox="0 0 465 368" fill="none" xmlns="http://www.w3.org/2000/svg">
<g filter="url(#filter0_d_589_141)">
<rect x="72" y="69.1416" width="287" height="228.858" rx="24.5059" fill="white"/>
<rect x="72.5" y="69.6416" width="286" height="227.858" rx="24.0059" stroke="#1B233D" stroke-opacity="0.03"/>
</g>
<g filter="url(#filter1_d_589_141)">
<rect x="52" y="52" width="327" height="230" rx="22.4657" fill="white"/>
<rect x="52.5" y="52.5" width="326" height="229" rx="21.9657" stroke="#1B233D" stroke-opacity="0.03"/>
</g>
<path opacity="0.75" d="M340.42 76.12C339.813 76.12 339.29 75.9667 338.85 75.66C338.41 75.3533 338.07 74.93 337.83 74.39C337.597 73.8433 337.48 73.2133 337.48 72.5C337.48 71.7867 337.597 71.16 337.83 70.62C338.07 70.0733 338.41 69.6467 338.85 69.34C339.29 69.0333 339.813 68.88 340.42 68.88C341.033 68.88 341.557 69.0333 341.99 69.34C342.43 69.6467 342.767 70.0733 343 70.62C343.24 71.16 343.36 71.7867 343.36 72.5C343.36 73.2133 343.24 73.8433 343 74.39C342.767 74.93 342.43 75.3533 341.99 75.66C341.557 75.9667 341.033 76.12 340.42 76.12ZM340.42 74.91C340.733 74.91 341.007 74.8133 341.24 74.62C341.473 74.42 341.653 74.14 341.78 73.78C341.913 73.42 341.98 72.9933 341.98 72.5C341.98 72 341.913 71.5733 341.78 71.22C341.653 70.86 341.473 70.5833 341.24 70.39C341.007 70.1967 340.733 70.1 340.42 70.1C340.113 70.1 339.84 70.1967 339.6 70.39C339.367 70.5833 339.183 70.86 339.05 71.22C338.917 71.5733 338.85 72 338.85 72.5C338.85 72.9933 338.917 73.42 339.05 73.78C339.183 74.14 339.367 74.42 339.6 74.62C339.84 74.8133 340.113 74.91 340.42 74.91ZM346.886 76.12C346.426 76.12 346.006 76.0367 345.626 75.87C345.253 75.7033 344.953 75.45 344.726 75.11C344.5 74.77 344.38 74.34 344.366 73.82H345.686C345.693 74.04 345.743 74.24 345.836 74.42C345.93 74.5933 346.063 74.7333 346.236 74.84C346.416 74.94 346.633 74.99 346.886 74.99C347.12 74.99 347.32 74.9433 347.486 74.85C347.653 74.7567 347.776 74.6333 347.856 74.48C347.943 74.3267 347.986 74.15 347.986 73.95C347.986 73.7233 347.93 73.5367 347.816 73.39C347.703 73.2367 347.543 73.12 347.336 73.04C347.136 72.96 346.906 72.92 346.646 72.92H346.126V71.82H346.646C346.986 71.82 347.27 71.74 347.496 71.58C347.73 71.42 347.846 71.18 347.846 70.86C347.846 70.6067 347.76 70.4033 347.586 70.25C347.413 70.0967 347.176 70.02 346.876 70.02C346.536 70.02 346.273 70.1133 346.086 70.3C345.9 70.4867 345.793 70.7167 345.766 70.99H344.456C344.476 70.55 344.59 70.1733 344.796 69.86C345.003 69.54 345.283 69.2967 345.636 69.13C345.996 68.9633 346.41 68.88 346.876 68.88C347.37 68.88 347.786 68.9667 348.126 69.14C348.473 69.3067 348.733 69.5333 348.906 69.82C349.086 70.1067 349.176 70.42 349.176 70.76C349.176 71.0333 349.123 71.28 349.016 71.5C348.91 71.7133 348.766 71.8933 348.586 72.04C348.413 72.18 348.216 72.2833 347.996 72.35C348.256 72.3967 348.483 72.4967 348.676 72.65C348.876 72.7967 349.03 72.9833 349.136 73.21C349.25 73.4367 349.306 73.7 349.306 74C349.306 74.38 349.213 74.7333 349.026 75.06C348.84 75.38 348.566 75.6367 348.206 75.83C347.846 76.0233 347.406 76.12 346.886 76.12ZM351.309 76.05C351.062 76.05 350.862 75.9767 350.709 75.83C350.555 75.6767 350.479 75.49 350.479 75.27C350.479 75.05 350.555 74.8667 350.709 74.72C350.862 74.5667 351.062 74.49 351.309 74.49C351.555 74.49 351.755 74.5667 351.909 74.72C352.062 74.8667 352.139 75.05 352.139 75.27C352.139 75.49 352.062 75.6767 351.909 75.83C351.755 75.9767 351.555 76.05 351.309 76.05ZM351.309 72.21C351.062 72.21 350.862 72.1367 350.709 71.99C350.555 71.8367 350.479 71.65 350.479 71.43C350.479 71.21 350.555 71.0267 350.709 70.88C350.862 70.7267 351.062 70.65 351.309 70.65C351.555 70.65 351.755 70.7267 351.909 70.88C352.062 71.0267 352.139 71.21 352.139 71.43C352.139 71.65 352.062 71.8367 351.909 71.99C351.755 72.1367 351.555 72.21 351.309 72.21ZM355.844 76.12C355.338 76.12 354.901 76.0333 354.534 75.86C354.174 75.6867 353.894 75.45 353.694 75.15C353.494 74.8433 353.381 74.4967 353.354 74.11H354.664C354.711 74.35 354.838 74.5533 355.044 74.72C355.251 74.8867 355.518 74.97 355.844 74.97C356.084 74.97 356.291 74.9133 356.464 74.8C356.644 74.6867 356.781 74.53 356.874 74.33C356.974 74.1233 357.024 73.8933 357.024 73.64C357.024 73.38 356.974 73.1567 356.874 72.97C356.774 72.7767 356.638 72.63 356.464 72.53C356.298 72.4233 356.101 72.37 355.874 72.37C355.608 72.37 355.378 72.43 355.184 72.55C354.991 72.67 354.844 72.8067 354.744 72.96H353.424L353.964 69H357.944V70.18H354.964L354.704 71.78C354.851 71.6267 355.044 71.5067 355.284 71.42C355.531 71.3267 355.808 71.28 356.114 71.28C356.488 71.28 356.811 71.3433 357.084 71.47C357.358 71.5967 357.588 71.77 357.774 71.99C357.961 72.21 358.098 72.4633 358.184 72.75C358.278 73.03 358.324 73.32 358.324 73.62C358.324 73.9867 358.261 74.3233 358.134 74.63C358.014 74.93 357.844 75.1933 357.624 75.42C357.404 75.64 357.141 75.8133 356.834 75.94C356.534 76.06 356.204 76.12 355.844 76.12ZM360.695 76V70.55L359.265 71.03V69.88L361.265 69H362.085V76H360.695Z" fill="black"/>
<rect opacity="0.25" x="224" y="137" width="115" height="14" rx="6.12646" fill="#FF8E00"/>
<rect opacity="0.25" x="224" y="161" width="81" height="14" rx="6.12646" fill="#FF8E00"/>
<rect opacity="0.5" x="92" y="207" width="50" height="10" rx="5" fill="#61BC5B"/>
<rect opacity="0.1" x="92" y="227" width="115" height="5" rx="2.5" fill="#1B233D"/>
<rect opacity="0.03" x="92" y="116" width="121" height="79" rx="10" fill="#1B233D"/>
<rect opacity="0.07" x="224" y="227" width="105" height="5" rx="2.5" fill="#1B233D"/>
<rect opacity="0.07" x="92" y="238" width="94" height="5" rx="2.5" fill="#1B233D"/>
<rect opacity="0.1" x="224" y="238" width="115" height="5" rx="2.5" fill="#1B233D"/>
<rect opacity="0.1" x="92" y="249" width="101" height="5" rx="2.5" fill="#1B233D"/>
<rect opacity="0.07" x="224" y="249" width="91" height="5" rx="2.5" fill="#1B233D"/>
<path d="M330.097 67.675L326.75 69.45V67C326.75 66.7348 326.638 66.4804 326.439 66.2929C326.24 66.1054 325.969 66 325.688 66H316.125C315.561 66 315.021 66.2107 314.622 66.5858C314.224 66.9609 314 67.4696 314 68V76C314 76.5304 314.224 77.0391 314.622 77.4142C315.021 77.7893 315.561 78 316.125 78H325.688C325.969 78 326.24 77.8946 326.439 77.7071C326.638 77.5196 326.75 77.2652 326.75 77V74.54L330.097 76.315C330.183 76.3678 330.282 76.3984 330.384 76.4037C330.487 76.4091 330.589 76.3889 330.68 76.3453C330.772 76.3018 330.85 76.2363 330.906 76.1555C330.962 76.0747 330.994 75.9814 331 75.885V68.1C330.993 68.004 330.96 67.9114 330.904 67.8312C330.847 67.7511 330.77 67.6863 330.678 67.6433C330.587 67.6003 330.485 67.5806 330.383 67.5862C330.281 67.5917 330.182 67.6224 330.097 67.675Z" fill="#0093FF"/>
<path opacity="0.25" d="M66 244V258C66 263.523 70.4772 268 76 268H90" stroke="#1B233D" stroke-width="2" stroke-linecap="round"/>
<path opacity="0.25" d="M66 123V109C66 103.477 70.4772 99 76 99H90" stroke="#1B233D" stroke-width="2" stroke-linecap="round"/>
<path opacity="0.25" d="M365 244V257.684C365 263.381 360.381 268 354.684 268H341" stroke="#1B233D" stroke-width="2" stroke-linecap="round"/>
<path opacity="0.25" d="M365 123V109C365 103.477 360.523 99 355 99H341" stroke="#1B233D" stroke-width="2" stroke-linecap="round"/>
<path d="M124.68 160.603L116.068 171.983C113.575 175.276 115.924 180 120.055 180H185.945C190.076 180 192.425 175.276 189.932 171.983L162.903 136.268C160.902 133.624 156.93 133.624 154.929 136.268L136.512 160.603C135.028 162.564 132.08 162.564 130.596 160.603C129.112 158.641 126.165 158.641 124.68 160.603Z" fill="#1B233D"/>
<circle cx="130.5" cy="140.5" r="7.5" fill="#FF8E00"/>
<circle cx="310.714" cy="118.524" r="5.71415" fill="#EF3F36"/>
<path d="M323.192 124V113.334H327.169C328.033 113.334 328.744 113.481 329.302 113.775C329.861 114.07 330.278 114.466 330.552 114.964C330.826 115.452 330.963 115.995 330.963 116.594C330.963 117.163 330.826 117.697 330.552 118.194C330.288 118.682 329.876 119.078 329.318 119.383C328.759 119.678 328.038 119.825 327.154 119.825H325.249V124H323.192ZM328.708 124L326.514 119.307H328.754L331.07 124H328.708ZM325.249 118.332H327.047C327.667 118.332 328.124 118.179 328.419 117.874C328.713 117.57 328.86 117.168 328.86 116.671C328.86 116.173 328.713 115.782 328.419 115.497C328.134 115.203 327.677 115.055 327.047 115.055H325.249V118.332ZM332.79 124V113.334H339.799V114.995H334.847V117.783H339.342V119.383H334.847V122.339H339.799V124H332.79ZM346.458 124.183C345.402 124.183 344.488 123.954 343.716 123.497C342.944 123.03 342.349 122.385 341.933 121.562C341.516 120.729 341.308 119.769 341.308 118.682C341.308 117.595 341.516 116.635 341.933 115.802C342.349 114.969 342.944 114.319 343.716 113.852C344.488 113.384 345.402 113.151 346.458 113.151C347.759 113.151 348.82 113.471 349.643 114.111C350.466 114.751 350.979 115.655 351.182 116.823H348.927C348.795 116.254 348.521 115.812 348.104 115.497C347.688 115.172 347.134 115.01 346.443 115.01C345.813 115.01 345.27 115.162 344.813 115.467C344.366 115.761 344.02 116.183 343.777 116.732C343.533 117.27 343.411 117.92 343.411 118.682C343.411 119.434 343.533 120.084 343.777 120.632C344.02 121.181 344.366 121.603 344.813 121.897C345.27 122.192 345.813 122.339 346.443 122.339C347.134 122.339 347.688 122.192 348.104 121.897C348.521 121.592 348.795 121.171 348.927 120.632H351.182C350.979 121.74 350.466 122.608 349.643 123.238C348.82 123.868 347.759 124.183 346.458 124.183Z" fill="#1B233D"/>
<path opacity="0.1" d="M68.8516 85.3936L362.661 85.3935" stroke="#1B233D" stroke-width="1.14871" stroke-linecap="round"/>
<path d="M72.582 68.6465C74.2931 68.6465 75.6797 70.033 75.6797 71.7422C75.6795 73.4512 74.293 74.8369 72.582 74.8369C70.8711 74.8369 69.4845 73.4512 69.4844 71.7422C69.4844 70.0331 70.871 68.6465 72.582 68.6465Z" stroke="#1B233D" stroke-opacity="0.25" stroke-width="1.14871"/>
<path d="M98.2852 68.6465C99.9962 68.6465 101.383 70.033 101.383 71.7422C101.383 73.4512 99.9961 74.8369 98.2852 74.8369C96.5742 74.8369 95.1877 73.4512 95.1875 71.7422C95.1875 70.0331 96.5741 68.6465 98.2852 68.6465Z" stroke="#0093FF" stroke-width="1.14871"/>
<ellipse cx="85.4356" cy="71.7419" rx="3.67192" ry="3.66964" fill="#0093FF"/>
<path d="M207.283 187.63C207.396 187.644 207.501 187.689 207.585 187.757L208.603 188.58V188.579L216.17 194.703H216.171C216.546 195.006 216.373 195.662 215.792 195.662H211.919C211.575 195.662 211.234 195.733 210.92 195.871C210.684 195.975 210.466 196.115 210.275 196.286L210.094 196.467L210.093 196.468L207.649 199.18C207.273 199.597 206.625 199.296 206.625 198.826V188.17C206.625 188.095 206.642 188.021 206.674 187.952L206.712 187.885C206.755 187.82 206.812 187.763 206.881 187.719L206.953 187.68C207.03 187.645 207.113 187.626 207.198 187.625L207.283 187.63Z" fill="white" stroke="#1B233D" stroke-width="1.25"/>
<defs>
<filter id="filter0_d_589_141" x="72" y="69.1416" width="287" height="274.807" filterUnits="userSpaceOnUse" color-interpolation-filters="sRGB">
<feFlood flood-opacity="0" result="BackgroundImageFix"/>
<feColorMatrix in="SourceAlpha" type="matrix" values="0 0 0 0 0 0 0 0 0 0 0 0 0 0 0 0 0 0 127 0" result="hardAlpha"/>
<feMorphology radius="30.6323" operator="erode" in="SourceAlpha" result="effect1_dropShadow_589_141"/>
<feOffset dy="45.9485"/>
<feGaussianBlur stdDeviation="15.3162"/>
<feComposite in2="hardAlpha" operator="out"/>
<feColorMatrix type="matrix" values="0 0 0 0 0.105882 0 0 0 0 0.137255 0 0 0 0 0.239216 0 0 0 0.05 0"/>
<feBlend mode="normal" in2="BackgroundImageFix" result="effect1_dropShadow_589_141"/>
<feBlend mode="normal" in="SourceGraphic" in2="effect1_dropShadow_589_141" result="shape"/>
</filter>
<filter id="filter1_d_589_141" x="0.800278" y="0.800278" width="463.533" height="366.533" filterUnits="userSpaceOnUse" color-interpolation-filters="sRGB">
<feFlood flood-opacity="0" result="BackgroundImageFix"/>
<feColorMatrix in="SourceAlpha" type="matrix" values="0 0 0 0 0 0 0 0 0 0 0 0 0 0 0 0 0 0 127 0" result="hardAlpha"/>
<feOffset dx="17.0666" dy="17.0666"/>
<feGaussianBlur stdDeviation="34.1331"/>
<feComposite in2="hardAlpha" operator="out"/>
<feColorMatrix type="matrix" values="0 0 0 0 0.105882 0 0 0 0 0.137255 0 0 0 0 0.239216 0 0 0 0.05 0"/>
<feBlend mode="normal" in2="BackgroundImageFix" result="effect1_dropShadow_589_141"/>
<feBlend mode="normal" in="SourceGraphic" in2="effect1_dropShadow_589_141" result="shape"/>
</filter>
</defs>
</svg>
