<svg width="465" height="368" viewBox="0 0 465 368" fill="none" xmlns="http://www.w3.org/2000/svg">
<g filter="url(#filter0_d_589_170)">
<rect x="72" y="69.1416" width="287" height="228.858" rx="24.5059" fill="white"/>
<rect x="72.5" y="69.6416" width="286" height="227.858" rx="24.0059" stroke="#1B233D" stroke-opacity="0.03"/>
</g>
<g filter="url(#filter1_d_589_170)">
<rect x="52" y="52" width="327" height="230" rx="22.4657" fill="white"/>
<rect x="52.5" y="52.5" width="326" height="229" rx="21.9657" stroke="#1B233D" stroke-opacity="0.03"/>
</g>
<g filter="url(#filter2_d_589_170)">
<rect x="72" y="140" width="175" height="112" rx="10" fill="white" shape-rendering="crispEdges"/>
<rect x="72" y="140" width="175" height="112" rx="10" stroke="#1B233D" stroke-opacity="0.03" stroke-linecap="round" shape-rendering="crispEdges"/>
</g>
<rect opacity="0.02" x="263" y="140" width="96" height="112" rx="10" fill="#1B233D"/>
<rect opacity="0.8" x="285" y="220" width="52" height="16" rx="4" fill="#61BC5B"/>
<path d="M313.283 230.63C313.368 230.641 313.447 230.669 313.518 230.711L313.585 230.757L314.603 231.58V231.579L322.17 237.703H322.171C322.546 238.006 322.373 238.662 321.792 238.662H317.919C317.575 238.662 317.234 238.733 316.92 238.871C316.684 238.975 316.466 239.115 316.275 239.286L316.094 239.467L316.093 239.468L313.649 242.18C313.273 242.597 312.625 242.296 312.625 241.826V231.17C312.625 231.095 312.642 231.021 312.674 230.952L312.712 230.885C312.755 230.82 312.812 230.763 312.881 230.719L312.953 230.68C313.055 230.633 313.17 230.616 313.283 230.63Z" fill="white" stroke="#1B233D" stroke-width="1.25"/>
<path opacity="0.5" d="M287.292 196V189H289.432C290.238 189 290.905 189.147 291.432 189.44C291.965 189.727 292.358 190.133 292.612 190.66C292.872 191.18 293.002 191.793 293.002 192.5C293.002 193.207 292.872 193.823 292.612 194.35C292.358 194.87 291.965 195.277 291.432 195.57C290.905 195.857 290.238 196 289.432 196H287.292ZM288.642 194.84H289.362C289.928 194.84 290.375 194.747 290.702 194.56C291.028 194.373 291.262 194.107 291.402 193.76C291.548 193.407 291.622 192.987 291.622 192.5C291.622 192.007 291.548 191.587 291.402 191.24C291.262 190.887 291.028 190.617 290.702 190.43C290.375 190.243 289.928 190.15 289.362 190.15H288.642V194.84ZM296.536 196.12C296.042 196.12 295.602 196.007 295.216 195.78C294.836 195.547 294.536 195.223 294.316 194.81C294.102 194.397 293.996 193.923 293.996 193.39C293.996 192.85 294.102 192.377 294.316 191.97C294.536 191.563 294.839 191.243 295.226 191.01C295.612 190.777 296.052 190.66 296.546 190.66C297.046 190.66 297.486 190.777 297.866 191.01C298.252 191.243 298.552 191.563 298.766 191.97C298.986 192.377 299.096 192.85 299.096 193.39C299.096 193.923 298.986 194.397 298.766 194.81C298.552 195.223 298.252 195.547 297.866 195.78C297.486 196.007 297.042 196.12 296.536 196.12ZM296.536 194.95C296.769 194.95 296.972 194.893 297.146 194.78C297.326 194.66 297.466 194.487 297.566 194.26C297.666 194.027 297.716 193.737 297.716 193.39C297.716 193.043 297.666 192.757 297.566 192.53C297.472 192.297 297.339 192.123 297.166 192.01C296.992 191.89 296.786 191.83 296.546 191.83C296.319 191.83 296.116 191.89 295.936 192.01C295.762 192.123 295.622 192.297 295.516 192.53C295.416 192.757 295.366 193.043 295.366 193.39C295.366 193.737 295.416 194.027 295.516 194.26C295.616 194.487 295.752 194.66 295.926 194.78C296.106 194.893 296.309 194.95 296.536 194.95ZM301.182 196L299.642 190.78H300.972L301.922 194.64H301.872L302.922 190.78H304.412L305.462 194.63L305.412 194.64L306.362 190.78H307.702L306.152 196H304.762L303.642 192.02H303.692L302.582 196H301.182ZM308.57 196V190.78H309.75L309.85 191.57C309.997 191.29 310.21 191.07 310.49 190.91C310.77 190.743 311.107 190.66 311.5 190.66C311.907 190.66 312.253 190.743 312.54 190.91C312.827 191.077 313.047 191.317 313.2 191.63C313.353 191.943 313.43 192.327 313.43 192.78V196H312.08V192.91C312.08 192.557 311.99 192.283 311.81 192.09C311.637 191.897 311.383 191.8 311.05 191.8C310.843 191.8 310.653 191.847 310.48 191.94C310.307 192.033 310.17 192.17 310.07 192.35C309.97 192.53 309.92 192.747 309.92 193V196H308.57ZM314.81 196V188.8H316.16V196H314.81ZM319.905 196.12C319.411 196.12 318.971 196.007 318.585 195.78C318.205 195.547 317.905 195.223 317.685 194.81C317.471 194.397 317.365 193.923 317.365 193.39C317.365 192.85 317.471 192.377 317.685 191.97C317.905 191.563 318.208 191.243 318.595 191.01C318.981 190.777 319.421 190.66 319.915 190.66C320.415 190.66 320.855 190.777 321.235 191.01C321.621 191.243 321.921 191.563 322.135 191.97C322.355 192.377 322.465 192.85 322.465 193.39C322.465 193.923 322.355 194.397 322.135 194.81C321.921 195.223 321.621 195.547 321.235 195.78C320.855 196.007 320.411 196.12 319.905 196.12ZM319.905 194.95C320.138 194.95 320.341 194.893 320.515 194.78C320.695 194.66 320.835 194.487 320.935 194.26C321.035 194.027 321.085 193.737 321.085 193.39C321.085 193.043 321.035 192.757 320.935 192.53C320.841 192.297 320.708 192.123 320.535 192.01C320.361 191.89 320.155 191.83 319.915 191.83C319.688 191.83 319.485 191.89 319.305 192.01C319.131 192.123 318.991 192.297 318.885 192.53C318.785 192.757 318.735 193.043 318.735 193.39C318.735 193.737 318.785 194.027 318.885 194.26C318.985 194.487 319.121 194.66 319.295 194.78C319.475 194.893 319.678 194.95 319.905 194.95ZM325.357 196.12C324.951 196.12 324.611 196.05 324.337 195.91C324.071 195.763 323.871 195.57 323.737 195.33C323.604 195.09 323.537 194.827 323.537 194.54C323.537 194.227 323.614 193.953 323.767 193.72C323.927 193.48 324.164 193.293 324.477 193.16C324.797 193.02 325.194 192.95 325.667 192.95H326.887C326.887 192.683 326.861 192.463 326.807 192.29C326.761 192.11 326.667 191.977 326.527 191.89C326.394 191.803 326.201 191.76 325.947 191.76C325.701 191.76 325.497 191.813 325.337 191.92C325.184 192.02 325.087 192.17 325.047 192.37H323.727C323.767 192.023 323.881 191.723 324.067 191.47C324.261 191.217 324.517 191.02 324.837 190.88C325.164 190.733 325.534 190.66 325.947 190.66C326.434 190.66 326.847 190.74 327.187 190.9C327.527 191.06 327.787 191.29 327.967 191.59C328.147 191.89 328.237 192.26 328.237 192.7V196H327.107L326.957 195.22C326.884 195.353 326.794 195.477 326.687 195.59C326.587 195.697 326.471 195.79 326.337 195.87C326.204 195.95 326.054 196.01 325.887 196.05C325.727 196.097 325.551 196.12 325.357 196.12ZM325.677 195.08C325.837 195.08 325.984 195.047 326.117 194.98C326.251 194.913 326.367 194.823 326.467 194.71C326.567 194.597 326.647 194.463 326.707 194.31C326.774 194.157 326.817 193.99 326.837 193.81V193.78H325.817C325.624 193.78 325.464 193.807 325.337 193.86C325.211 193.913 325.117 193.99 325.057 194.09C324.997 194.183 324.967 194.293 324.967 194.42C324.967 194.56 324.994 194.68 325.047 194.78C325.107 194.873 325.191 194.947 325.297 195C325.411 195.053 325.537 195.08 325.677 195.08ZM331.755 196.12C331.301 196.12 330.898 196.007 330.545 195.78C330.198 195.547 329.928 195.23 329.735 194.83C329.541 194.423 329.445 193.957 329.445 193.43C329.445 192.89 329.545 192.413 329.745 192C329.945 191.58 330.228 191.253 330.595 191.02C330.961 190.78 331.385 190.66 331.865 190.66C332.205 190.66 332.505 190.727 332.765 190.86C333.031 190.987 333.245 191.17 333.405 191.41V188.8H334.755V196H333.555L333.405 195.3C333.305 195.447 333.181 195.583 333.035 195.71C332.888 195.837 332.711 195.937 332.505 196.01C332.298 196.083 332.048 196.12 331.755 196.12ZM332.135 194.94C332.395 194.94 332.621 194.877 332.815 194.75C333.015 194.623 333.168 194.443 333.275 194.21C333.388 193.977 333.445 193.703 333.445 193.39C333.445 193.077 333.388 192.803 333.275 192.57C333.168 192.337 333.015 192.157 332.815 192.03C332.621 191.903 332.391 191.84 332.125 191.84C331.878 191.84 331.655 191.903 331.455 192.03C331.255 192.157 331.098 192.337 330.985 192.57C330.871 192.797 330.815 193.067 330.815 193.38C330.815 193.7 330.871 193.977 330.985 194.21C331.098 194.443 331.255 194.623 331.455 194.75C331.655 194.877 331.881 194.94 332.135 194.94ZM299.457 209L297.547 203.78H298.967L300.277 207.73L301.597 203.78H303.007L301.097 209H299.457ZM303.898 209V203.78H305.248V209H303.898ZM304.578 203.15C304.338 203.15 304.138 203.08 303.978 202.94C303.824 202.793 303.748 202.61 303.748 202.39C303.748 202.17 303.824 201.99 303.978 201.85C304.138 201.703 304.338 201.63 304.578 201.63C304.824 201.63 305.024 201.703 305.178 201.85C305.338 201.99 305.418 202.17 305.418 202.39C305.418 202.61 305.338 202.793 305.178 202.94C305.024 203.08 304.824 203.15 304.578 203.15ZM308.801 209.12C308.347 209.12 307.944 209.007 307.591 208.78C307.244 208.547 306.974 208.23 306.781 207.83C306.587 207.423 306.491 206.957 306.491 206.43C306.491 205.89 306.591 205.413 306.791 205C306.991 204.58 307.274 204.253 307.641 204.02C308.007 203.78 308.431 203.66 308.911 203.66C309.251 203.66 309.551 203.727 309.811 203.86C310.077 203.987 310.291 204.17 310.451 204.41V201.8H311.801V209H310.601L310.451 208.3C310.351 208.447 310.227 208.583 310.081 208.71C309.934 208.837 309.757 208.937 309.551 209.01C309.344 209.083 309.094 209.12 308.801 209.12ZM309.181 207.94C309.441 207.94 309.667 207.877 309.861 207.75C310.061 207.623 310.214 207.443 310.321 207.21C310.434 206.977 310.491 206.703 310.491 206.39C310.491 206.077 310.434 205.803 310.321 205.57C310.214 205.337 310.061 205.157 309.861 205.03C309.667 204.903 309.437 204.84 309.171 204.84C308.924 204.84 308.701 204.903 308.501 205.03C308.301 205.157 308.144 205.337 308.031 205.57C307.917 205.797 307.861 206.067 307.861 206.38C307.861 206.7 307.917 206.977 308.031 207.21C308.144 207.443 308.301 207.623 308.501 207.75C308.701 207.877 308.927 207.94 309.181 207.94ZM315.544 209.12C315.044 209.12 314.601 209.01 314.214 208.79C313.834 208.563 313.538 208.247 313.324 207.84C313.111 207.433 313.004 206.967 313.004 206.44C313.004 205.9 313.108 205.42 313.314 205C313.528 204.58 313.824 204.253 314.204 204.02C314.591 203.78 315.041 203.66 315.554 203.66C316.068 203.66 316.508 203.773 316.874 204C317.241 204.227 317.521 204.537 317.714 204.93C317.914 205.317 318.014 205.757 318.014 206.25C318.014 206.317 318.014 206.39 318.014 206.47C318.014 206.55 318.008 206.633 317.994 206.72H313.964V205.9H316.664C316.651 205.54 316.541 205.26 316.334 205.06C316.128 204.86 315.868 204.76 315.554 204.76C315.328 204.76 315.121 204.817 314.934 204.93C314.748 205.043 314.601 205.213 314.494 205.44C314.388 205.66 314.334 205.943 314.334 206.29V206.58C314.334 206.873 314.381 207.127 314.474 207.34C314.574 207.553 314.714 207.72 314.894 207.84C315.074 207.96 315.288 208.02 315.534 208.02C315.801 208.02 316.008 207.973 316.154 207.88C316.301 207.787 316.418 207.66 316.504 207.5H317.874C317.781 207.8 317.624 208.073 317.404 208.32C317.191 208.567 316.928 208.763 316.614 208.91C316.301 209.05 315.944 209.12 315.544 209.12ZM321.55 209.12C321.057 209.12 320.617 209.007 320.23 208.78C319.85 208.547 319.55 208.223 319.33 207.81C319.117 207.397 319.01 206.923 319.01 206.39C319.01 205.85 319.117 205.377 319.33 204.97C319.55 204.563 319.854 204.243 320.24 204.01C320.627 203.777 321.067 203.66 321.56 203.66C322.06 203.66 322.5 203.777 322.88 204.01C323.267 204.243 323.567 204.563 323.78 204.97C324 205.377 324.11 205.85 324.11 206.39C324.11 206.923 324 207.397 323.78 207.81C323.567 208.223 323.267 208.547 322.88 208.78C322.5 209.007 322.057 209.12 321.55 209.12ZM321.55 207.95C321.784 207.95 321.987 207.893 322.16 207.78C322.34 207.66 322.48 207.487 322.58 207.26C322.68 207.027 322.73 206.737 322.73 206.39C322.73 206.043 322.68 205.757 322.58 205.53C322.487 205.297 322.354 205.123 322.18 205.01C322.007 204.89 321.8 204.83 321.56 204.83C321.334 204.83 321.13 204.89 320.95 205.01C320.777 205.123 320.637 205.297 320.53 205.53C320.43 205.757 320.38 206.043 320.38 206.39C320.38 206.737 320.43 207.027 320.53 207.26C320.63 207.487 320.767 207.66 320.94 207.78C321.12 207.893 321.324 207.95 321.55 207.95Z" fill="#1B233D"/>
<path d="M311 171V159M311 171L307 167M311 171L315 167" stroke="#FF8E00" stroke-width="2" stroke-linecap="round" stroke-linejoin="round"/>
<path d="M301 172V173C301 175.209 302.791 177 305 177H317C319.209 177 321 175.209 321 173V172" stroke="#FF8E00" stroke-width="2" stroke-linecap="round"/>
<rect opacity="0.05" x="100" y="234" width="106" height="4" rx="2" fill="#1B233D"/>
<path opacity="0.5" d="M216.72 239.096C216.235 239.096 215.819 238.973 215.472 238.728C215.125 238.483 214.856 238.144 214.664 237.712C214.477 237.275 214.384 236.771 214.384 236.2C214.384 235.629 214.477 235.128 214.664 234.696C214.856 234.259 215.125 233.917 215.472 233.672C215.819 233.427 216.235 233.304 216.72 233.304C217.205 233.304 217.619 233.427 217.96 233.672C218.307 233.917 218.573 234.259 218.76 234.696C218.947 235.128 219.04 235.629 219.04 236.2C219.04 236.771 218.947 237.275 218.76 237.712C218.573 238.144 218.307 238.483 217.96 238.728C217.619 238.973 217.205 239.096 216.72 239.096ZM216.72 238.128C216.96 238.128 217.171 238.051 217.352 237.896C217.539 237.736 217.683 237.512 217.784 237.224C217.891 236.936 217.944 236.595 217.944 236.2C217.944 235.8 217.891 235.459 217.784 235.176C217.683 234.888 217.539 234.667 217.352 234.512C217.171 234.357 216.96 234.28 216.72 234.28C216.475 234.28 216.259 234.357 216.072 234.512C215.885 234.667 215.741 234.888 215.64 235.176C215.539 235.459 215.488 235.8 215.488 236.2C215.488 236.595 215.539 236.936 215.64 237.224C215.741 237.512 215.885 237.736 216.072 237.896C216.259 238.051 216.475 238.128 216.72 238.128ZM221.878 239.096C221.515 239.096 221.182 239.029 220.878 238.896C220.574 238.763 220.331 238.56 220.15 238.288C219.969 238.016 219.873 237.672 219.862 237.256H220.918C220.923 237.432 220.963 237.592 221.038 237.736C221.113 237.875 221.222 237.987 221.366 238.072C221.51 238.152 221.681 238.192 221.878 238.192C222.065 238.192 222.225 238.155 222.358 238.08C222.491 238.005 222.593 237.907 222.662 237.784C222.731 237.661 222.766 237.52 222.766 237.36C222.766 237.179 222.718 237.029 222.622 236.912C222.531 236.789 222.403 236.699 222.238 236.64C222.078 236.576 221.894 236.544 221.686 236.544H221.27V235.656H221.686C221.963 235.656 222.193 235.592 222.374 235.464C222.561 235.336 222.654 235.144 222.654 234.888C222.654 234.685 222.585 234.523 222.446 234.4C222.307 234.277 222.115 234.216 221.87 234.216C221.598 234.216 221.385 234.291 221.23 234.44C221.081 234.589 220.998 234.773 220.982 234.992H219.926C219.942 234.64 220.033 234.339 220.198 234.088C220.363 233.832 220.59 233.637 220.878 233.504C221.166 233.371 221.497 233.304 221.87 233.304C222.27 233.304 222.606 233.373 222.878 233.512C223.155 233.651 223.366 233.835 223.51 234.064C223.654 234.288 223.726 234.536 223.726 234.808C223.726 235.027 223.681 235.224 223.59 235.4C223.505 235.576 223.39 235.723 223.246 235.84C223.102 235.952 222.942 236.035 222.766 236.088C222.974 236.125 223.155 236.205 223.31 236.328C223.47 236.445 223.595 236.595 223.686 236.776C223.777 236.957 223.822 237.165 223.822 237.4C223.822 237.704 223.747 237.987 223.598 238.248C223.449 238.504 223.23 238.709 222.942 238.864C222.654 239.019 222.299 239.096 221.878 239.096ZM225.447 239.04C225.25 239.04 225.09 238.981 224.967 238.864C224.845 238.741 224.783 238.592 224.783 238.416C224.783 238.24 224.845 238.093 224.967 237.976C225.09 237.853 225.25 237.792 225.447 237.792C225.645 237.792 225.805 237.853 225.927 237.976C226.05 238.093 226.111 238.24 226.111 238.416C226.111 238.592 226.05 238.741 225.927 238.864C225.805 238.981 225.645 239.04 225.447 239.04ZM225.447 235.928C225.25 235.928 225.09 235.869 224.967 235.752C224.845 235.629 224.783 235.48 224.783 235.304C224.783 235.128 224.845 234.981 224.967 234.864C225.09 234.741 225.25 234.68 225.447 234.68C225.645 234.68 225.805 234.741 225.927 234.864C226.05 234.981 226.111 235.128 226.111 235.304C226.111 235.48 226.05 235.629 225.927 235.752C225.805 235.869 225.645 235.928 225.447 235.928ZM229.091 239.096C228.686 239.096 228.339 239.027 228.051 238.888C227.763 238.749 227.539 238.563 227.379 238.328C227.219 238.088 227.128 237.813 227.107 237.504H228.163C228.195 237.691 228.291 237.851 228.451 237.984C228.616 238.112 228.83 238.176 229.091 238.176C229.283 238.176 229.448 238.131 229.587 238.04C229.726 237.949 229.832 237.824 229.907 237.664C229.987 237.504 230.027 237.323 230.027 237.12C230.027 236.912 229.987 236.733 229.907 236.584C229.832 236.429 229.726 236.312 229.587 236.232C229.454 236.152 229.296 236.112 229.115 236.112C228.902 236.112 228.718 236.157 228.563 236.248C228.414 236.339 228.299 236.443 228.219 236.56H227.163L227.579 233.4H230.779V234.344H228.387L228.187 235.632C228.304 235.509 228.459 235.413 228.651 235.344C228.843 235.269 229.062 235.232 229.307 235.232C229.606 235.232 229.864 235.283 230.083 235.384C230.302 235.485 230.483 235.627 230.627 235.808C230.776 235.984 230.886 236.184 230.955 236.408C231.03 236.632 231.067 236.864 231.067 237.104C231.067 237.397 231.016 237.667 230.915 237.912C230.819 238.152 230.683 238.36 230.507 238.536C230.331 238.712 230.123 238.851 229.883 238.952C229.643 239.048 229.379 239.096 229.091 239.096ZM233.027 239V234.64L231.843 235.056V234.12L233.475 233.4H234.139V239H233.027Z" fill="black"/>
<rect x="100" y="234" width="57" height="4" rx="2" fill="#0093FF"/>
<g filter="url(#filter3_d_589_170)">
<rect x="142.5" y="178" width="34" height="34" rx="17" fill="white"/>
</g>
<path d="M155.5 199.263V190.737C155.5 189.14 157.28 188.187 158.609 189.073L165.004 193.336C166.191 194.128 166.191 195.872 165.004 196.664L158.609 200.927C157.28 201.813 155.5 200.86 155.5 199.263Z" fill="#1B233D"/>
<path opacity="0.75" d="M84 239.175V233.491C84 232.426 85.1869 231.791 86.0729 232.382L90.3359 235.224C91.1275 235.752 91.1275 236.915 90.3359 237.443L86.0729 240.285C85.1869 240.875 84 240.24 84 239.175Z" fill="#1B233D"/>
<rect opacity="0.1" x="325" y="103" width="37.5246" height="15.3162" rx="4" fill="#1B233D"/>
<rect opacity="0.1" x="288.211" y="108.22" width="15.3162" height="4.59485" rx="2.29742" fill="#1B233D"/>
<rect opacity="0.1" x="265.238" y="108.22" width="15.3162" height="4.59485" rx="2.29742" fill="#1B233D"/>
<rect opacity="0.1" x="242.262" y="108.22" width="15.3162" height="4.59485" rx="2.29742" fill="#1B233D"/>
<rect opacity="0.1" x="219.287" y="108.22" width="15.3162" height="4.59485" rx="2.29742" fill="#1B233D"/>
<path d="M95.6186 110.186C95.6111 109.968 95.536 109.788 95.3933 109.645C95.2505 109.495 95.0214 109.42 94.7058 109.42C94.3752 109.42 94.1386 109.499 93.9958 109.657C93.8606 109.807 93.793 109.98 93.793 110.175C93.793 110.385 93.8831 110.536 94.0634 110.626C94.2438 110.708 94.4691 110.78 94.7396 110.84C95.0101 110.892 95.3031 110.949 95.6186 111.009C95.9342 111.069 96.2272 111.174 96.4977 111.324C96.7681 111.475 96.9935 111.693 97.1738 111.978C97.3542 112.256 97.4443 112.639 97.4443 113.128C97.4443 113.496 97.3767 113.826 97.2415 114.119C97.1137 114.412 96.9259 114.664 96.678 114.874C96.4376 115.077 96.1446 115.235 95.799 115.348C95.4609 115.46 95.0852 115.517 94.672 115.517C94.2588 115.517 93.8831 115.46 93.545 115.348C93.2145 115.242 92.9252 115.092 92.6773 114.897C92.4369 114.694 92.249 114.45 92.1138 114.164C91.9786 113.879 91.9072 113.556 91.8997 113.195H93.6803C93.6803 113.428 93.7554 113.612 93.9057 113.747C94.0559 113.883 94.3114 113.95 94.672 113.95C95.0326 113.95 95.2881 113.883 95.4383 113.747C95.5886 113.612 95.6637 113.428 95.6637 113.195C95.6637 113.037 95.6111 112.917 95.5059 112.835C95.4008 112.744 95.2618 112.677 95.089 112.632C94.9237 112.579 94.7321 112.534 94.5142 112.496C94.2963 112.459 94.0747 112.414 93.8493 112.361C93.6239 112.309 93.4023 112.237 93.1844 112.147C92.9665 112.057 92.7712 111.933 92.5984 111.775C92.4331 111.617 92.2979 111.415 92.1927 111.167C92.0875 110.919 92.0349 110.611 92.0349 110.243C92.0349 109.897 92.0988 109.578 92.2265 109.285C92.3542 108.992 92.5308 108.74 92.7562 108.53C92.9891 108.312 93.2671 108.146 93.5901 108.034C93.9207 107.913 94.2851 107.853 94.6833 107.853C95.0664 107.853 95.4158 107.91 95.7313 108.022C96.0544 108.135 96.3324 108.293 96.5653 108.496C96.7982 108.699 96.9785 108.947 97.1062 109.24C97.2415 109.525 97.3166 109.841 97.3316 110.186H95.6186ZM102.32 111.967C102.223 111.734 102.069 111.55 101.858 111.415C101.655 111.279 101.411 111.212 101.126 111.212C100.743 111.212 100.431 111.336 100.19 111.584C99.9574 111.832 99.8409 112.158 99.8409 112.564C99.8409 112.97 99.9574 113.297 100.19 113.545C100.431 113.792 100.743 113.916 101.126 113.916C101.411 113.916 101.655 113.849 101.858 113.714C102.069 113.578 102.223 113.394 102.32 113.161H104.033C103.973 113.507 103.86 113.823 103.695 114.108C103.53 114.393 103.319 114.641 103.064 114.852C102.816 115.055 102.527 115.212 102.196 115.325C101.866 115.438 101.509 115.494 101.126 115.494C100.682 115.494 100.277 115.423 99.9086 115.28C99.5479 115.13 99.2324 114.927 98.9619 114.671C98.699 114.409 98.4924 114.097 98.3421 113.736C98.1993 113.375 98.128 112.985 98.128 112.564C98.128 112.143 98.1993 111.753 98.3421 111.392C98.4924 111.031 98.699 110.723 98.9619 110.468C99.2324 110.205 99.5479 110.002 99.9086 109.859C100.277 109.709 100.682 109.634 101.126 109.634C101.509 109.634 101.866 109.69 102.196 109.803C102.527 109.916 102.816 110.077 103.064 110.288C103.319 110.49 103.53 110.735 103.695 111.02C103.86 111.306 103.973 111.621 104.033 111.967H102.32ZM108.204 112.226V112.181C108.204 111.805 108.129 111.55 107.978 111.415C107.828 111.279 107.633 111.212 107.392 111.212C107.152 111.212 106.957 111.279 106.806 111.415C106.656 111.55 106.581 111.805 106.581 112.181V115.348H104.891V112.181C104.891 111.745 104.951 111.369 105.071 111.054C105.191 110.731 105.36 110.464 105.578 110.254C105.803 110.043 106.066 109.889 106.367 109.792C106.675 109.687 107.017 109.634 107.392 109.634C107.768 109.634 108.11 109.687 108.418 109.792C108.726 109.889 108.989 110.047 109.207 110.265C109.425 110.475 109.594 110.746 109.714 111.076C109.834 111.4 109.894 111.783 109.894 112.226H108.204ZM114.39 115.348V112.463C114.39 112.019 114.292 111.7 114.097 111.505C113.901 111.309 113.646 111.212 113.33 111.212C113.015 111.212 112.759 111.309 112.564 111.505C112.369 111.7 112.271 112.019 112.271 112.463V115.348H110.58V112.463C110.58 111.997 110.644 111.587 110.772 111.234C110.907 110.881 111.095 110.588 111.335 110.355C111.576 110.115 111.865 109.935 112.203 109.814C112.541 109.694 112.917 109.634 113.33 109.634C113.743 109.634 114.119 109.694 114.457 109.814C114.795 109.927 115.084 110.104 115.325 110.344C115.565 110.577 115.749 110.87 115.877 111.223C116.012 111.576 116.08 111.989 116.08 112.463V115.348H114.39ZM117.364 115.348V107.346H119.054V115.348H117.364ZM121.368 109.273C121.06 109.273 120.801 109.172 120.59 108.969C120.387 108.759 120.286 108.5 120.286 108.191C120.286 107.883 120.387 107.628 120.59 107.425C120.801 107.215 121.06 107.11 121.368 107.11C121.676 107.11 121.931 107.215 122.134 107.425C122.344 107.628 122.45 107.883 122.45 108.191C122.45 108.5 122.344 108.759 122.134 108.969C121.931 109.172 121.676 109.273 121.368 109.273ZM120.523 115.348V109.78H122.213V115.348H120.523Z" fill="#1B233D"/>
<path d="M77.4514 118.32C81.2441 118.32 84.3188 115.245 84.3188 111.452C84.3188 107.66 81.2441 104.585 77.4514 104.585C73.6586 104.585 70.584 107.66 70.584 111.452C70.584 115.245 73.6586 118.32 77.4514 118.32Z" fill="#005A9B"/>
<mask id="mask0_589_170" style="mask-type:alpha" maskUnits="userSpaceOnUse" x="70" y="104" width="15" height="15">
<path d="M77.4514 118.32C81.2441 118.32 84.3188 115.245 84.3188 111.452C84.3188 107.66 81.2441 104.585 77.4514 104.585C73.6586 104.585 70.584 107.66 70.584 111.452C70.584 115.245 73.6586 118.32 77.4514 118.32Z" fill="white"/>
</mask>
<g mask="url(#mask0_589_170)">
<path d="M77.4518 119.112C81.3905 119.112 84.5834 115.919 84.5834 111.981C84.5834 108.042 81.3905 104.849 77.4518 104.849C73.5132 104.849 70.3203 108.042 70.3203 111.981C70.3203 115.919 73.5132 119.112 77.4518 119.112Z" fill="#0093FF"/>
</g>
<path d="M77.4525 116.735C80.37 116.735 82.7351 114.37 82.7351 111.452C82.7351 108.535 80.37 106.169 77.4525 106.169C74.535 106.169 72.1699 108.535 72.1699 111.452C72.1699 114.37 74.535 116.735 77.4525 116.735Z" fill="#0077D1"/>
<path d="M77.4517 115.15C79.494 115.15 81.1496 113.494 81.1496 111.452C81.1496 109.41 79.494 107.754 77.4517 107.754C75.4095 107.754 73.7539 109.41 73.7539 111.452C73.7539 113.494 75.4095 115.15 77.4517 115.15Z" fill="#0060A8"/>
<path d="M77.4529 113.565C78.6199 113.565 79.5659 112.619 79.5659 111.452C79.5659 110.285 78.6199 109.339 77.4529 109.339C76.2859 109.339 75.3398 110.285 75.3398 111.452C75.3398 112.619 76.2859 113.565 77.4529 113.565Z" fill="#004C85"/>
<path opacity="0.4" fill-rule="evenodd" clip-rule="evenodd" d="M77.4523 106.909C77.4523 109.392 75.3921 111.452 72.8036 111.452C71.7999 111.452 70.849 111.135 70.0566 110.554C70.1095 110.132 70.2151 109.762 70.3736 109.339C70.6906 108.388 71.2188 107.543 71.8527 106.751C72.4866 106.011 73.279 105.377 74.1771 104.902C74.8638 104.532 75.6034 104.268 76.3958 104.057C77.0297 104.849 77.4523 105.853 77.4523 106.909Z" fill="url(#paint0_linear_589_170)"/>
<path fill-rule="evenodd" clip-rule="evenodd" d="M77.4522 119.904C72.8035 119.904 69 116.101 69 111.452C69 106.803 72.8035 103 77.4522 103C82.1009 103 85.9043 106.803 85.9043 111.452C85.9043 116.101 82.1009 119.904 77.4522 119.904ZM77.4522 118.32C81.2557 118.32 84.3196 115.256 84.3196 111.452C84.3196 107.649 81.2557 104.585 77.4522 104.585C73.6487 104.585 70.5848 107.649 70.5848 111.452C70.5848 115.256 73.6487 118.32 77.4522 118.32Z" fill="#D8D8D8"/>
<mask id="mask1_589_170" style="mask-type:alpha" maskUnits="userSpaceOnUse" x="69" y="103" width="17" height="17">
<path fill-rule="evenodd" clip-rule="evenodd" d="M77.4522 119.904C72.8035 119.904 69 116.101 69 111.452C69 106.803 72.8035 103 77.4522 103C82.1009 103 85.9043 106.803 85.9043 111.452C85.9043 116.101 82.1009 119.904 77.4522 119.904ZM77.4522 118.32C81.2557 118.32 84.3196 115.256 84.3196 111.452C84.3196 107.649 81.2557 104.585 77.4522 104.585C73.6487 104.585 70.5848 107.649 70.5848 111.452C70.5848 115.256 73.6487 118.32 77.4522 118.32Z" fill="white"/>
</mask>
<g mask="url(#mask1_589_170)">
<path d="M67.6417 113.733L83.6016 101.264L80.8159 97.6279L64.8561 110.097L67.6417 113.733Z" fill="#CD2A9D"/>
<path fill-rule="evenodd" clip-rule="evenodd" d="M83.7482 101.34L85.464 103.491L69.8539 117.69L68.5164 111.558L83.7482 101.34Z" fill="#FF4995"/>
<path fill-rule="evenodd" clip-rule="evenodd" d="M82.9853 104.033L86.8782 105.594L73.5898 120.443L70.4536 117.319L82.9853 104.033Z" fill="#FF5C43"/>
<path fill-rule="evenodd" clip-rule="evenodd" d="M85.4577 105.085L91.1442 109.414L76.6376 123.726L74.1068 119.986L85.4577 105.085Z" fill="#FFA246"/>
<path fill-rule="evenodd" clip-rule="evenodd" d="M87.124 110.208L93.5045 113.462L90.0544 121.374L81.1777 119.478L87.124 110.208Z" fill="#FEE48E"/>
</g>
<path opacity="0.1" d="M68.8516 85.3936L362.661 85.3935" stroke="#1B233D" stroke-width="1.14871" stroke-linecap="round"/>
<path d="M72.582 68.6465C74.2931 68.6465 75.6797 70.033 75.6797 71.7422C75.6795 73.4512 74.293 74.8369 72.582 74.8369C70.8711 74.8369 69.4845 73.4512 69.4844 71.7422C69.4844 70.0331 70.871 68.6465 72.582 68.6465Z" stroke="#1B233D" stroke-opacity="0.25" stroke-width="1.14871"/>
<path d="M98.2852 68.6465C99.9962 68.6465 101.383 70.033 101.383 71.7422C101.383 73.4512 99.9961 74.8369 98.2852 74.8369C96.5742 74.8369 95.1877 73.4512 95.1875 71.7422C95.1875 70.0331 96.5741 68.6465 98.2852 68.6465Z" stroke="#0093FF" stroke-width="1.14871"/>
<ellipse cx="85.4356" cy="71.7419" rx="3.67192" ry="3.66964" fill="#0093FF"/>
<defs>
<filter id="filter0_d_589_170" x="72" y="69.1416" width="287" height="274.807" filterUnits="userSpaceOnUse" color-interpolation-filters="sRGB">
<feFlood flood-opacity="0" result="BackgroundImageFix"/>
<feColorMatrix in="SourceAlpha" type="matrix" values="0 0 0 0 0 0 0 0 0 0 0 0 0 0 0 0 0 0 127 0" result="hardAlpha"/>
<feMorphology radius="30.6323" operator="erode" in="SourceAlpha" result="effect1_dropShadow_589_170"/>
<feOffset dy="45.9485"/>
<feGaussianBlur stdDeviation="15.3162"/>
<feComposite in2="hardAlpha" operator="out"/>
<feColorMatrix type="matrix" values="0 0 0 0 0.105882 0 0 0 0 0.137255 0 0 0 0 0.239216 0 0 0 0.05 0"/>
<feBlend mode="normal" in2="BackgroundImageFix" result="effect1_dropShadow_589_170"/>
<feBlend mode="normal" in="SourceGraphic" in2="effect1_dropShadow_589_170" result="shape"/>
</filter>
<filter id="filter1_d_589_170" x="0.800278" y="0.800278" width="463.533" height="366.533" filterUnits="userSpaceOnUse" color-interpolation-filters="sRGB">
<feFlood flood-opacity="0" result="BackgroundImageFix"/>
<feColorMatrix in="SourceAlpha" type="matrix" values="0 0 0 0 0 0 0 0 0 0 0 0 0 0 0 0 0 0 127 0" result="hardAlpha"/>
<feOffset dx="17.0666" dy="17.0666"/>
<feGaussianBlur stdDeviation="34.1331"/>
<feComposite in2="hardAlpha" operator="out"/>
<feColorMatrix type="matrix" values="0 0 0 0 0.105882 0 0 0 0 0.137255 0 0 0 0 0.239216 0 0 0 0.05 0"/>
<feBlend mode="normal" in2="BackgroundImageFix" result="effect1_dropShadow_589_170"/>
<feBlend mode="normal" in="SourceGraphic" in2="effect1_dropShadow_589_170" result="shape"/>
</filter>
<filter id="filter2_d_589_170" x="31.2605" y="99.2605" width="283.305" height="220.305" filterUnits="userSpaceOnUse" color-interpolation-filters="sRGB">
<feFlood flood-opacity="0" result="BackgroundImageFix"/>
<feColorMatrix in="SourceAlpha" type="matrix" values="0 0 0 0 0 0 0 0 0 0 0 0 0 0 0 0 0 0 127 0" result="hardAlpha"/>
<feOffset dx="13.4132" dy="13.4132"/>
<feGaussianBlur stdDeviation="26.8264"/>
<feComposite in2="hardAlpha" operator="out"/>
<feColorMatrix type="matrix" values="0 0 0 0 0.105882 0 0 0 0 0.137255 0 0 0 0 0.239216 0 0 0 0.05 0"/>
<feBlend mode="normal" in2="BackgroundImageFix" result="effect1_dropShadow_589_170"/>
<feBlend mode="normal" in="SourceGraphic" in2="effect1_dropShadow_589_170" result="shape"/>
</filter>
<filter id="filter3_d_589_170" x="129.5" y="165" width="74" height="74" filterUnits="userSpaceOnUse" color-interpolation-filters="sRGB">
<feFlood flood-opacity="0" result="BackgroundImageFix"/>
<feColorMatrix in="SourceAlpha" type="matrix" values="0 0 0 0 0 0 0 0 0 0 0 0 0 0 0 0 0 0 127 0" result="hardAlpha"/>
<feOffset dx="7" dy="7"/>
<feGaussianBlur stdDeviation="10"/>
<feComposite in2="hardAlpha" operator="out"/>
<feColorMatrix type="matrix" values="0 0 0 0 0.105882 0 0 0 0 0.137255 0 0 0 0 0.239216 0 0 0 0.1 0"/>
<feBlend mode="normal" in2="BackgroundImageFix" result="effect1_dropShadow_589_170"/>
<feBlend mode="normal" in="SourceGraphic" in2="effect1_dropShadow_589_170" result="shape"/>
</filter>
<linearGradient id="paint0_linear_589_170" x1="72.0224" y1="105.997" x2="76.0619" y2="110.428" gradientUnits="userSpaceOnUse">
<stop stop-color="white" stop-opacity="0.18"/>
<stop offset="1" stop-color="white"/>
</linearGradient>
</defs>
</svg>
