<svg width="465" height="368" viewBox="0 0 465 368" fill="none" xmlns="http://www.w3.org/2000/svg">
<g filter="url(#filter0_d_589_229)">
<rect x="72" y="69.1416" width="287" height="228.858" rx="24.5059" fill="white"/>
<rect x="72.5" y="69.6416" width="286" height="227.858" rx="24.0059" stroke="#1B233D" stroke-opacity="0.03"/>
</g>
<g filter="url(#filter1_d_589_229)">
<rect x="52" y="52" width="327" height="229.858" rx="22.4657" fill="white"/>
<rect x="52.5" y="52.5" width="326" height="228.858" rx="21.9657" stroke="#1B233D" stroke-opacity="0.03"/>
</g>
<path opacity="0.1" d="M53 85.1318L378 85.1319" stroke="#1B233D" stroke-width="1.14871" stroke-linecap="round"/>
<path d="M72.582 68.6465C74.2931 68.6465 75.6797 70.033 75.6797 71.7422C75.6795 73.4512 74.293 74.8369 72.582 74.8369C70.8711 74.8369 69.4845 73.4512 69.4844 71.7422C69.4844 70.0331 70.871 68.6465 72.582 68.6465Z" stroke="#1B233D" stroke-opacity="0.25" stroke-width="1.14871"/>
<path d="M98.2852 68.6465C99.9962 68.6465 101.383 70.033 101.383 71.7422C101.383 73.4512 99.9961 74.8369 98.2852 74.8369C96.5742 74.8369 95.1877 73.4512 95.1875 71.7422C95.1875 70.0331 96.5741 68.6465 98.2852 68.6465Z" stroke="#0093FF" stroke-width="1.14871"/>
<ellipse cx="85.4356" cy="71.7419" rx="3.67192" ry="3.66964" fill="#0093FF"/>
<g filter="url(#filter2_d_589_229)">
<rect x="87" y="123.108" width="257" height="148.449" rx="10" fill="white" shape-rendering="crispEdges"/>
<rect x="87" y="123.108" width="257" height="148.449" rx="10" stroke="#1B233D" stroke-opacity="0.15" stroke-width="1.5" stroke-linecap="round" stroke-dasharray="3 6" shape-rendering="crispEdges"/>
</g>
<g opacity="0.5">
<path d="M180.971 242.782L177.193 249.956C177.066 250.197 177 250.465 177 250.737V251.007C177 251.287 177.113 251.555 177.314 251.75V251.75C177.44 251.873 177.596 251.962 177.767 252.008L177.882 252.039C178.081 252.093 178.288 252.105 178.491 252.075L178.94 252.009C179.262 251.962 179.577 251.872 179.875 251.742L180.558 251.445L181.462 250.892C181.675 250.762 181.871 250.606 182.045 250.427L182.289 250.178C182.46 250.002 182.588 249.788 182.662 249.554V249.554C182.709 249.403 182.733 249.246 182.733 249.088V249.042C182.733 248.844 182.696 248.647 182.623 248.462V248.462C182.504 248.157 182.294 247.896 182.022 247.714L182.01 247.707C181.859 247.606 181.693 247.531 181.518 247.485L181.251 247.415C180.913 247.326 180.563 247.292 180.214 247.313L179.803 247.338C179.698 247.344 179.673 247.193 179.775 247.166L180.854 246.878C181.398 246.733 181.926 246.532 182.429 246.278L182.726 246.128C183.155 245.912 183.554 245.64 183.914 245.321L184.156 245.107C184.496 244.806 184.779 244.446 184.991 244.045L185.09 243.86C185.235 243.586 185.33 243.289 185.372 242.982L185.407 242.723C185.439 242.49 185.416 242.253 185.34 242.03L185.312 241.949C185.205 241.633 184.98 241.37 184.683 241.215V241.215C184.46 241.098 184.207 241.048 183.956 241.072L183.565 241.109C183.437 241.121 183.309 241.143 183.184 241.173L182.038 241.456L180.971 241.693C180.505 241.857 179.488 242.113 179.151 241.821" stroke="#1B233D" stroke-linecap="round"/>
<path d="M188.693 241.767L187.52 244.136L186.725 245.894C186.621 246.118 186.515 246.384 186.415 246.654C186.026 247.707 185.763 248.802 185.507 249.894V249.894C185.413 250.296 185.291 250.699 185.285 251.113C185.283 251.286 185.302 251.465 185.366 251.603C185.459 251.805 185.533 251.921 185.71 252.056V252.056C185.973 252.256 186.329 252.286 186.659 252.265C186.695 252.263 186.729 252.259 186.761 252.255C187.024 252.218 187.174 252.173 187.413 252.056C187.681 251.925 187.796 251.791 188.029 251.603C188.181 251.48 188.142 251.505 188.287 251.374" stroke="#1B233D" stroke-linecap="round"/>
<path d="M192.339 245.155L191.282 247.336L190.555 248.996L190.248 249.859C190.148 250.14 190.085 250.433 190.059 250.731L190.022 251.16C190.01 251.301 190.024 251.443 190.063 251.579L190.122 251.783C190.157 251.907 190.234 252.014 190.339 252.088V252.088C190.401 252.131 190.47 252.161 190.544 252.176L190.585 252.185C190.689 252.207 190.796 252.207 190.9 252.186L191.048 252.155C191.263 252.11 191.465 252.019 191.64 251.888L191.961 251.647C192.136 251.516 192.298 251.367 192.444 251.203L192.793 250.811V250.811C193.361 250.139 193.88 249.426 194.344 248.678L194.478 248.463M194.478 248.463L195.406 246.879L196.12 245.513M194.478 248.463L194.307 248.874C194.021 249.559 193.874 250.293 193.874 251.034V251.034V251.61C193.874 251.79 193.948 251.962 194.078 252.087V252.087C194.168 252.173 194.28 252.232 194.402 252.257L194.504 252.278C194.615 252.3 194.728 252.304 194.839 252.29L194.979 252.273C195.26 252.237 195.529 252.138 195.767 251.983L195.988 251.839C196.148 251.734 196.298 251.615 196.436 251.482L196.973 250.964" stroke="#1B233D" stroke-linecap="round"/>
<path d="M199.802 248.992L199.974 249.047C200.218 249.124 200.471 249.163 200.726 249.163H200.768C201.008 249.163 201.247 249.124 201.474 249.048V249.048C201.86 248.919 202.202 248.688 202.466 248.379L202.611 248.208C202.834 247.946 203.006 247.646 203.119 247.321L203.232 246.993C203.313 246.762 203.332 246.514 203.29 246.273L203.26 246.106C203.228 245.925 203.141 245.758 203.011 245.628V245.628C202.922 245.539 202.816 245.47 202.698 245.425L202.581 245.38C202.306 245.275 202.005 245.254 201.718 245.319L201.678 245.329C201.444 245.382 201.224 245.488 201.035 245.638L200.753 245.862C200.591 245.991 200.441 246.136 200.306 246.294L200.073 246.567C199.862 246.815 199.668 247.079 199.493 247.355L199.32 247.629C199.188 247.839 199.074 248.059 198.979 248.288V248.288C198.804 248.71 198.696 249.156 198.659 249.61L198.643 249.808C198.627 250.007 198.632 250.207 198.657 250.405L198.711 250.822C198.76 251.203 198.938 251.554 199.215 251.819V251.819C199.465 252.058 199.784 252.214 200.126 252.265L200.218 252.278C200.45 252.313 200.686 252.305 200.915 252.257L201.148 252.207C201.508 252.13 201.854 251.993 202.169 251.802L202.39 251.668C202.594 251.544 202.789 251.405 202.973 251.252L202.998 251.231C203.275 251 203.527 250.742 203.751 250.46L203.965 250.191" stroke="#1B233D" stroke-linecap="round"/>
</g>
<path d="M173.849 244.273C172.584 242.911 170.705 241.469 169.153 240.523C167.058 239.247 164.917 238.241 162.682 237.331C160.712 236.528 158.747 235.69 156.71 235.166C156.271 235.054 155.478 234.983 155.041 234.898M155.041 234.898C154.927 234.669 158.557 233.081 158.791 232.958M155.041 234.898C155.041 234.898 156.847 237.499 157.853 238.709" stroke="#0093FF" stroke-linecap="round"/>
<path d="M243.702 125.99C228.646 126.439 218.048 129.746 210.215 133.756C204.459 136.703 196.991 142.929 201.735 147.323C204.923 150.277 211.553 152.429 218.966 153.743C227.54 155.262 239.746 155.157 248.606 154.218C264.573 152.527 285.162 148.642 289.637 141.68C292.749 136.841 287.759 133.459 275.766 131.79C263.027 130.018 251.229 128.516 237.55 133.422" stroke="#0093FF" stroke-linecap="round"/>
<path d="M225.026 213.708L211.484 230.735C208.608 234.35 211.183 239.687 215.802 239.687H313.971C318.59 239.687 321.164 234.35 318.289 230.735L277.531 179.49C275.322 176.713 271.104 176.713 268.895 179.49L241.679 213.708C239.55 216.386 235.482 216.386 233.353 213.708C231.223 211.03 227.156 211.03 225.026 213.708Z" fill="#1B233D"/>
<ellipse cx="233.366" cy="185.984" rx="10.6161" ry="10.6096" fill="#FF8E00"/>
<rect opacity="0.15" x="111.676" y="166.242" width="78.8454" height="13.233" rx="4.81499" fill="#1B233D"/>
<rect opacity="0.15" x="111.676" y="185.49" width="55.3724" height="13.233" rx="4.81499" fill="#1B233D"/>
<rect opacity="0.07" x="111.676" y="207.746" width="43.3349" height="3.60901" rx="1.8045" fill="#1B233D"/>
<rect opacity="0.07" x="111.676" y="214.362" width="35.5105" height="3.60901" rx="1.8045" fill="#1B233D"/>
<rect x="111.676" y="227.595" width="37.3162" height="12.03" rx="3" fill="#61BC5B"/>
<rect opacity="0.1" x="296.451" y="135.565" width="29.4918" height="12.03" rx="3" fill="#1B233D"/>
<rect opacity="0.1" x="266.359" y="139.776" width="12.0375" height="3.60901" rx="1.8045" fill="#1B233D"/>
<rect opacity="0.1" x="248.303" y="139.776" width="12.0375" height="3.60901" rx="1.8045" fill="#1B233D"/>
<rect opacity="0.1" x="230.246" y="139.776" width="12.0375" height="3.60901" rx="1.8045" fill="#1B233D"/>
<rect opacity="0.1" x="212.189" y="139.776" width="12.0375" height="3.60901" rx="1.8045" fill="#1B233D"/>
<rect opacity="0.5" x="127.326" y="139.174" width="12.0375" height="4.81201" rx="2.406" fill="#1B233D"/>
<ellipse opacity="0.5" cx="117.695" cy="141.58" rx="6.01874" ry="6.01501" fill="#1B233D"/>
<rect x="105" y="158.086" width="93" height="64.9598" rx="4" stroke="#0093FF" stroke-linecap="round" stroke-dasharray="2 4"/>
<path d="M258.456 204.058C265.287 204.142 272.121 204.074 278.948 204.311C288.269 204.634 291.535 204.932 281.413 206.356C272.826 207.565 264.147 207.81 255.563 208.992C252.674 209.39 257.284 210.468 257.682 210.552C265.408 212.188 273.301 213.182 281.107 214.305C286.091 215.022 291.095 215.637 296.059 216.498C297.636 216.771 302.06 217.753 300.54 218.269C297.373 219.343 293.627 219.621 290.376 219.976C282.666 220.819 274.922 221.165 267.174 221.347C256.774 221.591 242.17 226.268 252.573 226.268C277.19 226.268 280.831 226.627 305 231.041" stroke="white" stroke-width="1.25" stroke-linecap="round"/>
<path opacity="0.5" d="M289.624 150.761C289.806 150.553 290.122 150.533 290.33 150.715C290.537 150.897 290.558 151.214 290.376 151.421C289.392 152.543 288.492 153.682 287.626 154.845C288.679 155.434 289.719 155.978 290.668 156.401L291.19 156.624L291.279 156.672C291.472 156.802 291.555 157.054 291.463 157.277C291.371 157.501 291.135 157.622 290.907 157.578L290.809 157.549L290.27 157.319C289.256 156.867 288.144 156.283 287.028 155.656C286.15 156.865 285.295 158.1 284.41 159.371L284.345 159.448C284.176 159.609 283.912 159.634 283.714 159.496C283.487 159.338 283.432 159.026 283.59 158.8L285.03 156.735C285.402 156.205 285.775 155.68 286.153 155.158C285.35 154.694 284.557 154.22 283.809 153.769L281.743 152.519L281.662 152.458C281.49 152.301 281.447 152.04 281.571 151.833C281.695 151.626 281.946 151.541 282.165 151.618L282.257 151.661L284.337 152.918C285.111 153.385 285.927 153.873 286.748 154.347C287.65 153.132 288.592 151.937 289.624 150.761Z" fill="#1B233D"/>
<g opacity="0.04">
<path d="M52 86.1309H379V259.544C379 271.951 368.942 282.01 356.534 282.01H74.4658C62.0583 282.01 52 271.951 52 259.544V86.1309Z" fill="#0093FF"/>
<path d="M378.5 86.6309V259.544C378.5 271.675 368.666 281.51 356.534 281.51H74.4658C62.3345 281.51 52.5001 271.675 52.5 259.544V86.6309H378.5Z" stroke="#1B233D" stroke-opacity="0.03"/>
</g>
<g filter="url(#filter3_d_589_229)">
<rect x="331" y="183.071" width="26" height="25.9839" rx="7" fill="white"/>
</g>
<path d="M343.646 192.53L344.883 191.293C345.138 191.038 345.441 190.835 345.775 190.697C346.109 190.559 346.467 190.487 346.828 190.487C347.189 190.487 347.547 190.558 347.881 190.696C348.214 190.835 348.518 191.037 348.773 191.292C349.028 191.548 349.231 191.851 349.369 192.184C349.507 192.518 349.579 192.875 349.578 193.236C349.578 193.597 349.507 193.955 349.369 194.288C349.23 194.622 349.028 194.925 348.772 195.18L347.004 196.947C346.749 197.202 346.446 197.404 346.112 197.542C345.779 197.68 345.421 197.751 345.06 197.751C344.699 197.751 344.341 197.68 344.007 197.542C343.674 197.404 343.371 197.202 343.115 196.947" stroke="#61BC5B" stroke-width="1.5" stroke-linecap="round" stroke-linejoin="round"/>
<path d="M344.355 199.597L343.117 200.833C342.862 201.089 342.559 201.291 342.225 201.43C341.891 201.568 341.534 201.639 341.173 201.639C340.811 201.639 340.454 201.568 340.12 201.43C339.786 201.292 339.483 201.089 339.227 200.834C338.972 200.579 338.769 200.276 338.631 199.942C338.493 199.609 338.422 199.251 338.422 198.89C338.422 198.529 338.493 198.172 338.632 197.838C338.77 197.505 338.973 197.202 339.228 196.947L340.996 195.18C341.251 194.925 341.555 194.722 341.888 194.584C342.222 194.446 342.579 194.375 342.941 194.375C343.302 194.375 343.659 194.446 343.993 194.584C344.327 194.722 344.63 194.925 344.885 195.18" stroke="#61BC5B" stroke-width="1.5" stroke-linecap="round" stroke-linejoin="round"/>
<g filter="url(#filter4_d_589_229)">
<rect x="130" y="260.023" width="26" height="25.9839" rx="7" fill="white"/>
</g>
<g clip-path="url(#clip0_589_229)">
<path d="M147 270.351C148.105 270.351 149 269.456 149 268.352C149 267.248 148.105 266.353 147 266.353C145.895 266.353 145 267.248 145 268.352C145 269.456 145.895 270.351 147 270.351Z" stroke="#FF8E00" stroke-width="1.5" stroke-linecap="round" stroke-linejoin="round"/>
<path d="M139 275.014C140.105 275.014 141 274.119 141 273.015C141 271.911 140.105 271.017 139 271.017C137.895 271.017 137 271.911 137 273.015C137 274.119 137.895 275.014 139 275.014Z" stroke="#FF8E00" stroke-width="1.5" stroke-linecap="round" stroke-linejoin="round"/>
<path d="M147 279.678C148.105 279.678 149 278.783 149 277.679C149 276.576 148.105 275.681 147 275.681C145.895 275.681 145 276.576 145 277.679C145 278.783 145.895 279.678 147 279.678Z" stroke="#FF8E00" stroke-width="1.5" stroke-linecap="round" stroke-linejoin="round"/>
<path d="M140.727 274.021L145.28 276.673" stroke="#FF8E00" stroke-width="1.5" stroke-linecap="round" stroke-linejoin="round"/>
<path d="M145.273 269.358L140.727 272.01" stroke="#FF8E00" stroke-width="1.5" stroke-linecap="round" stroke-linejoin="round"/>
</g>
<g filter="url(#filter5_d_589_229)">
<rect x="161" y="145.095" width="128" height="85.9468" rx="8" fill="white"/>
</g>
<g filter="url(#filter6_d_589_229)">
<rect x="149" y="137.1" width="152" height="85.9468" rx="8" fill="white"/>
</g>
<path d="M213.029 176.565C213.022 176.35 212.948 176.172 212.807 176.031C212.666 175.883 212.439 175.808 212.128 175.808C211.801 175.808 211.567 175.886 211.426 176.042C211.293 176.191 211.226 176.361 211.226 176.554C211.226 176.762 211.315 176.91 211.493 176.999C211.671 177.081 211.894 177.152 212.161 177.211C212.428 177.263 212.718 177.319 213.029 177.378C213.341 177.437 213.63 177.541 213.897 177.69C214.165 177.838 214.387 178.053 214.565 178.335C214.743 178.61 214.832 178.988 214.832 179.47C214.832 179.834 214.766 180.16 214.632 180.45C214.506 180.739 214.32 180.988 214.075 181.196C213.838 181.396 213.549 181.552 213.207 181.663C212.873 181.774 212.502 181.83 212.094 181.83C211.686 181.83 211.315 181.774 210.981 181.663C210.655 181.559 210.369 181.411 210.124 181.218C209.887 181.018 209.701 180.776 209.568 180.494C209.434 180.212 209.364 179.893 209.356 179.537H211.115C211.115 179.767 211.189 179.949 211.337 180.083C211.486 180.216 211.738 180.283 212.094 180.283C212.45 180.283 212.703 180.216 212.851 180.083C213 179.949 213.074 179.767 213.074 179.537C213.074 179.381 213.022 179.263 212.918 179.181C212.814 179.092 212.677 179.025 212.506 178.981C212.343 178.929 212.154 178.884 211.938 178.847C211.723 178.81 211.504 178.765 211.282 178.714C211.059 178.662 210.84 178.591 210.625 178.502C210.41 178.413 210.217 178.291 210.046 178.135C209.883 177.979 209.749 177.779 209.646 177.534C209.542 177.289 209.49 176.985 209.49 176.621C209.49 176.28 209.553 175.964 209.679 175.675C209.805 175.386 209.979 175.137 210.202 174.929C210.432 174.714 210.707 174.551 211.026 174.439C211.352 174.321 211.712 174.261 212.105 174.261C212.484 174.261 212.829 174.317 213.141 174.428C213.46 174.54 213.734 174.695 213.964 174.896C214.194 175.096 214.372 175.341 214.498 175.63C214.632 175.912 214.706 176.224 214.721 176.565H213.029ZM219.648 178.324C219.552 178.094 219.4 177.912 219.192 177.779C218.991 177.645 218.75 177.578 218.468 177.578C218.09 177.578 217.782 177.701 217.544 177.946C217.314 178.19 217.199 178.513 217.199 178.914C217.199 179.315 217.314 179.637 217.544 179.882C217.782 180.127 218.09 180.25 218.468 180.25C218.75 180.25 218.991 180.183 219.192 180.049C219.4 179.916 219.552 179.734 219.648 179.504H221.34C221.281 179.845 221.169 180.157 221.006 180.439C220.843 180.721 220.635 180.966 220.383 181.173C220.138 181.374 219.852 181.53 219.526 181.641C219.199 181.752 218.847 181.808 218.468 181.808C218.03 181.808 217.63 181.737 217.266 181.596C216.91 181.448 216.598 181.248 216.331 180.995C216.072 180.736 215.867 180.428 215.719 180.071C215.578 179.715 215.508 179.329 215.508 178.914C215.508 178.498 215.578 178.112 215.719 177.756C215.867 177.4 216.072 177.096 216.331 176.844C216.598 176.584 216.91 176.384 217.266 176.243C217.63 176.094 218.03 176.02 218.468 176.02C218.847 176.02 219.199 176.076 219.526 176.187C219.852 176.298 220.138 176.458 220.383 176.666C220.635 176.866 220.843 177.107 221.006 177.389C221.169 177.671 221.281 177.983 221.34 178.324H219.648ZM225.459 178.58V178.535C225.459 178.164 225.385 177.912 225.236 177.779C225.088 177.645 224.895 177.578 224.658 177.578C224.42 177.578 224.227 177.645 224.079 177.779C223.93 177.912 223.856 178.164 223.856 178.535V181.663H222.187V178.535C222.187 178.105 222.246 177.734 222.365 177.422C222.484 177.103 222.65 176.84 222.866 176.632C223.088 176.424 223.348 176.272 223.645 176.176C223.949 176.072 224.287 176.02 224.658 176.02C225.029 176.02 225.366 176.072 225.671 176.176C225.975 176.272 226.234 176.428 226.45 176.643C226.665 176.851 226.832 177.118 226.951 177.445C227.069 177.764 227.129 178.142 227.129 178.58H225.459ZM231.568 181.663V178.814C231.568 178.376 231.472 178.061 231.279 177.868C231.086 177.675 230.834 177.578 230.522 177.578C230.21 177.578 229.958 177.675 229.765 177.868C229.572 178.061 229.476 178.376 229.476 178.814V181.663H227.806V178.814C227.806 178.354 227.869 177.949 227.995 177.6C228.129 177.252 228.315 176.962 228.552 176.732C228.789 176.495 229.075 176.317 229.409 176.198C229.743 176.079 230.114 176.02 230.522 176.02C230.93 176.02 231.301 176.079 231.635 176.198C231.969 176.309 232.255 176.484 232.492 176.721C232.73 176.951 232.911 177.241 233.038 177.589C233.171 177.938 233.238 178.346 233.238 178.814V181.663H231.568ZM234.506 181.663V173.76H236.176V181.663H234.506ZM238.46 175.664C238.156 175.664 237.9 175.564 237.692 175.363C237.492 175.155 237.392 174.899 237.392 174.595C237.392 174.291 237.492 174.039 237.692 173.838C237.9 173.631 238.156 173.527 238.46 173.527C238.765 173.527 239.017 173.631 239.217 173.838C239.425 174.039 239.529 174.291 239.529 174.595C239.529 174.899 239.425 175.155 239.217 175.363C239.017 175.564 238.765 175.664 238.46 175.664ZM237.626 181.663V176.165H239.295V181.663H237.626Z" fill="#1B233D"/>
<path d="M224.405 166.554C228.128 166.554 231.146 163.538 231.146 159.818C231.146 156.097 228.128 153.081 224.405 153.081C220.682 153.081 217.664 156.097 217.664 159.818C217.664 163.538 220.682 166.554 224.405 166.554Z" fill="#005A9B"/>
<mask id="mask0_589_229" style="mask-type:alpha" maskUnits="userSpaceOnUse" x="217" y="153" width="15" height="14">
<path d="M224.405 166.554C228.128 166.554 231.146 163.538 231.146 159.818C231.146 156.097 228.128 153.081 224.405 153.081C220.682 153.081 217.664 156.097 217.664 159.818C217.664 163.538 220.682 166.554 224.405 166.554Z" fill="white"/>
</mask>
<g mask="url(#mask0_589_229)">
<path d="M224.404 167.331C228.27 167.331 231.404 164.199 231.404 160.336C231.404 156.472 228.27 153.34 224.404 153.34C220.538 153.34 217.404 156.472 217.404 160.336C217.404 164.199 220.538 167.331 224.404 167.331Z" fill="#0093FF"/>
</g>
<path d="M224.404 165C227.268 165 229.589 162.68 229.589 159.818C229.589 156.956 227.268 154.636 224.404 154.636C221.54 154.636 219.219 156.956 219.219 159.818C219.219 162.68 221.54 165 224.404 165Z" fill="#0077D1"/>
<path d="M224.403 163.445C226.408 163.445 228.033 161.821 228.033 159.818C228.033 157.814 226.408 156.19 224.403 156.19C222.398 156.19 220.773 157.814 220.773 159.818C220.773 161.821 222.398 163.445 224.403 163.445Z" fill="#0060A8"/>
<path d="M224.402 161.891C225.548 161.891 226.476 160.963 226.476 159.818C226.476 158.673 225.548 157.745 224.402 157.745C223.257 157.745 222.328 158.673 222.328 159.818C222.328 160.963 223.257 161.891 224.402 161.891Z" fill="#004C85"/>
<path opacity="0.4" fill-rule="evenodd" clip-rule="evenodd" d="M224.404 155.361C224.404 157.796 222.382 159.817 219.841 159.817C218.856 159.817 217.922 159.506 217.145 158.936C217.196 158.522 217.3 158.159 217.456 157.744C217.767 156.812 218.285 155.983 218.907 155.205C219.53 154.48 220.307 153.858 221.189 153.392C221.863 153.029 222.589 152.77 223.367 152.562C223.989 153.34 224.404 154.324 224.404 155.361Z" fill="url(#paint0_linear_589_229)"/>
<path fill-rule="evenodd" clip-rule="evenodd" d="M224.402 168.109C219.839 168.109 216.105 164.378 216.105 159.818C216.105 155.257 219.839 151.526 224.402 151.526C228.965 151.526 232.698 155.257 232.698 159.818C232.698 164.378 228.965 168.109 224.402 168.109ZM224.402 166.554C228.135 166.554 231.143 163.549 231.143 159.818C231.143 156.087 228.135 153.081 224.402 153.081C220.668 153.081 217.661 156.087 217.661 159.818C217.661 163.549 220.668 166.554 224.402 166.554Z" fill="#D8D8D8"/>
<mask id="mask1_589_229" style="mask-type:alpha" maskUnits="userSpaceOnUse" x="216" y="151" width="17" height="18">
<path fill-rule="evenodd" clip-rule="evenodd" d="M224.402 168.109C219.839 168.109 216.105 164.378 216.105 159.818C216.105 155.257 219.839 151.526 224.402 151.526C228.965 151.526 232.698 155.257 232.698 159.818C232.698 164.378 228.965 168.109 224.402 168.109ZM224.402 166.554C228.135 166.554 231.143 163.549 231.143 159.818C231.143 156.087 228.135 153.081 224.402 153.081C220.668 153.081 217.661 156.087 217.661 159.818C217.661 163.549 220.668 166.554 224.402 166.554Z" fill="white"/>
</mask>
<g mask="url(#mask1_589_229)">
<path d="M214.774 162.056L230.439 149.824L227.705 146.257L212.04 158.489L214.774 162.056Z" fill="#CD2A9D"/>
<path fill-rule="evenodd" clip-rule="evenodd" d="M230.584 149.899L232.268 152.009L216.946 165.938L215.633 159.922L230.584 149.899Z" fill="#FF4995"/>
<path fill-rule="evenodd" clip-rule="evenodd" d="M229.835 152.541L233.656 154.072L220.613 168.638L217.534 165.574L229.835 152.541Z" fill="#FF5C43"/>
<path fill-rule="evenodd" clip-rule="evenodd" d="M232.26 153.573L237.842 157.819L223.603 171.858L221.119 168.189L232.26 153.573Z" fill="#FFA246"/>
<path fill-rule="evenodd" clip-rule="evenodd" d="M233.895 158.598L240.158 161.79L236.772 169.551L228.059 167.691L233.895 158.598Z" fill="#FEE48E"/>
</g>
<rect opacity="0.05" x="161" y="195.064" width="89" height="13.9913" rx="3" fill="#1B233D"/>
<g opacity="0.25">
<path d="M167.824 200.293L168.442 199.674C168.57 199.547 168.722 199.445 168.889 199.376C169.055 199.307 169.234 199.272 169.415 199.271C169.596 199.271 169.774 199.307 169.941 199.376C170.108 199.445 170.26 199.546 170.387 199.674C170.515 199.802 170.616 199.953 170.686 200.12C170.755 200.287 170.79 200.465 170.79 200.646C170.79 200.826 170.755 201.005 170.685 201.172C170.616 201.339 170.515 201.49 170.387 201.618L169.503 202.501C169.375 202.629 169.224 202.73 169.057 202.799C168.89 202.868 168.711 202.904 168.531 202.904C168.35 202.904 168.171 202.868 168.005 202.799C167.838 202.73 167.686 202.629 167.559 202.501" stroke="#1B233D" stroke-width="0.75" stroke-linecap="round" stroke-linejoin="round"/>
<path d="M168.177 203.826L167.559 204.444C167.431 204.572 167.279 204.673 167.113 204.743C166.946 204.812 166.767 204.847 166.586 204.847C166.406 204.847 166.227 204.812 166.06 204.743C165.893 204.674 165.741 204.573 165.614 204.445C165.486 204.317 165.385 204.166 165.316 203.999C165.246 203.832 165.211 203.653 165.211 203.473C165.211 203.292 165.247 203.114 165.316 202.947C165.385 202.78 165.486 202.629 165.614 202.501L166.498 201.618C166.626 201.49 166.777 201.389 166.944 201.32C167.111 201.251 167.29 201.215 167.47 201.215C167.651 201.215 167.83 201.251 167.996 201.32C168.163 201.389 168.315 201.49 168.443 201.618" stroke="#1B233D" stroke-width="0.75" stroke-linecap="round" stroke-linejoin="round"/>
</g>
<rect opacity="0.07" x="176" y="200.061" width="67" height="3.99752" rx="1.99876" fill="#1B233D"/>
<rect x="256" y="195.064" width="33" height="13.9913" rx="3" fill="#0093FF"/>
<path d="M272.283 202.689C272.368 202.7 272.448 202.728 272.519 202.771L272.585 202.816L273.603 203.64V203.638L281.171 209.759C281.545 210.061 281.374 210.716 280.792 210.716H276.919C276.575 210.716 276.234 210.787 275.92 210.925C275.684 211.029 275.466 211.169 275.275 211.34L275.094 211.521L272.65 214.231C272.274 214.649 271.625 214.347 271.625 213.878V203.229C271.625 203.155 271.641 203.08 271.674 203.011L271.711 202.944C271.754 202.879 271.812 202.822 271.881 202.778L271.953 202.739C272.03 202.705 272.113 202.686 272.198 202.685L272.283 202.689Z" fill="white" stroke="#1B233D" stroke-width="1.25"/>
<defs>
<filter id="filter0_d_589_229" x="72" y="69.1416" width="287" height="274.807" filterUnits="userSpaceOnUse" color-interpolation-filters="sRGB">
<feFlood flood-opacity="0" result="BackgroundImageFix"/>
<feColorMatrix in="SourceAlpha" type="matrix" values="0 0 0 0 0 0 0 0 0 0 0 0 0 0 0 0 0 0 127 0" result="hardAlpha"/>
<feMorphology radius="30.6323" operator="erode" in="SourceAlpha" result="effect1_dropShadow_589_229"/>
<feOffset dy="45.9485"/>
<feGaussianBlur stdDeviation="15.3162"/>
<feComposite in2="hardAlpha" operator="out"/>
<feColorMatrix type="matrix" values="0 0 0 0 0.105882 0 0 0 0 0.137255 0 0 0 0 0.239216 0 0 0 0.05 0"/>
<feBlend mode="normal" in2="BackgroundImageFix" result="effect1_dropShadow_589_229"/>
<feBlend mode="normal" in="SourceGraphic" in2="effect1_dropShadow_589_229" result="shape"/>
</filter>
<filter id="filter1_d_589_229" x="0.800278" y="0.800278" width="463.533" height="366.39" filterUnits="userSpaceOnUse" color-interpolation-filters="sRGB">
<feFlood flood-opacity="0" result="BackgroundImageFix"/>
<feColorMatrix in="SourceAlpha" type="matrix" values="0 0 0 0 0 0 0 0 0 0 0 0 0 0 0 0 0 0 127 0" result="hardAlpha"/>
<feOffset dx="17.0666" dy="17.0666"/>
<feGaussianBlur stdDeviation="34.1331"/>
<feComposite in2="hardAlpha" operator="out"/>
<feColorMatrix type="matrix" values="0 0 0 0 0.105882 0 0 0 0 0.137255 0 0 0 0 0.239216 0 0 0 0.05 0"/>
<feBlend mode="normal" in2="BackgroundImageFix" result="effect1_dropShadow_589_229"/>
<feBlend mode="normal" in="SourceGraphic" in2="effect1_dropShadow_589_229" result="shape"/>
</filter>
<filter id="filter2_d_589_229" x="46.0105" y="82.1189" width="365.805" height="257.255" filterUnits="userSpaceOnUse" color-interpolation-filters="sRGB">
<feFlood flood-opacity="0" result="BackgroundImageFix"/>
<feColorMatrix in="SourceAlpha" type="matrix" values="0 0 0 0 0 0 0 0 0 0 0 0 0 0 0 0 0 0 127 0" result="hardAlpha"/>
<feOffset dx="13.4132" dy="13.4132"/>
<feGaussianBlur stdDeviation="26.8264"/>
<feComposite in2="hardAlpha" operator="out"/>
<feColorMatrix type="matrix" values="0 0 0 0 0.105882 0 0 0 0 0.137255 0 0 0 0 0.239216 0 0 0 0.05 0"/>
<feBlend mode="normal" in2="BackgroundImageFix" result="effect1_dropShadow_589_229"/>
<feBlend mode="normal" in="SourceGraphic" in2="effect1_dropShadow_589_229" result="shape"/>
</filter>
<filter id="filter3_d_589_229" x="313" y="165.071" width="66" height="65.9839" filterUnits="userSpaceOnUse" color-interpolation-filters="sRGB">
<feFlood flood-opacity="0" result="BackgroundImageFix"/>
<feColorMatrix in="SourceAlpha" type="matrix" values="0 0 0 0 0 0 0 0 0 0 0 0 0 0 0 0 0 0 127 0" result="hardAlpha"/>
<feOffset dx="2" dy="2"/>
<feGaussianBlur stdDeviation="10"/>
<feComposite in2="hardAlpha" operator="out"/>
<feColorMatrix type="matrix" values="0 0 0 0 0.105882 0 0 0 0 0.137255 0 0 0 0 0.239216 0 0 0 0.07 0"/>
<feBlend mode="normal" in2="BackgroundImageFix" result="effect1_dropShadow_589_229"/>
<feBlend mode="normal" in="SourceGraphic" in2="effect1_dropShadow_589_229" result="shape"/>
</filter>
<filter id="filter4_d_589_229" x="112" y="242.023" width="66" height="65.9839" filterUnits="userSpaceOnUse" color-interpolation-filters="sRGB">
<feFlood flood-opacity="0" result="BackgroundImageFix"/>
<feColorMatrix in="SourceAlpha" type="matrix" values="0 0 0 0 0 0 0 0 0 0 0 0 0 0 0 0 0 0 127 0" result="hardAlpha"/>
<feOffset dx="2" dy="2"/>
<feGaussianBlur stdDeviation="10"/>
<feComposite in2="hardAlpha" operator="out"/>
<feColorMatrix type="matrix" values="0 0 0 0 0.105882 0 0 0 0 0.137255 0 0 0 0 0.239216 0 0 0 0.07 0"/>
<feBlend mode="normal" in2="BackgroundImageFix" result="effect1_dropShadow_589_229"/>
<feBlend mode="normal" in="SourceGraphic" in2="effect1_dropShadow_589_229" result="shape"/>
</filter>
<filter id="filter5_d_589_229" x="120.76" y="104.855" width="235.305" height="193.252" filterUnits="userSpaceOnUse" color-interpolation-filters="sRGB">
<feFlood flood-opacity="0" result="BackgroundImageFix"/>
<feColorMatrix in="SourceAlpha" type="matrix" values="0 0 0 0 0 0 0 0 0 0 0 0 0 0 0 0 0 0 127 0" result="hardAlpha"/>
<feOffset dx="13.4132" dy="13.4132"/>
<feGaussianBlur stdDeviation="26.8264"/>
<feComposite in2="hardAlpha" operator="out"/>
<feColorMatrix type="matrix" values="0 0 0 0 0.105882 0 0 0 0 0.137255 0 0 0 0 0.239216 0 0 0 0.05 0"/>
<feBlend mode="normal" in2="BackgroundImageFix" result="effect1_dropShadow_589_229"/>
<feBlend mode="normal" in="SourceGraphic" in2="effect1_dropShadow_589_229" result="shape"/>
</filter>
<filter id="filter6_d_589_229" x="108.76" y="96.8601" width="259.305" height="193.252" filterUnits="userSpaceOnUse" color-interpolation-filters="sRGB">
<feFlood flood-opacity="0" result="BackgroundImageFix"/>
<feColorMatrix in="SourceAlpha" type="matrix" values="0 0 0 0 0 0 0 0 0 0 0 0 0 0 0 0 0 0 127 0" result="hardAlpha"/>
<feOffset dx="13.4132" dy="13.4132"/>
<feGaussianBlur stdDeviation="26.8264"/>
<feComposite in2="hardAlpha" operator="out"/>
<feColorMatrix type="matrix" values="0 0 0 0 0.105882 0 0 0 0 0.137255 0 0 0 0 0.239216 0 0 0 0.05 0"/>
<feBlend mode="normal" in2="BackgroundImageFix" result="effect1_dropShadow_589_229"/>
<feBlend mode="normal" in="SourceGraphic" in2="effect1_dropShadow_589_229" result="shape"/>
</filter>
<linearGradient id="paint0_linear_589_229" x1="219.074" y1="154.466" x2="223.036" y2="158.815" gradientUnits="userSpaceOnUse">
<stop stop-color="white" stop-opacity="0.18"/>
<stop offset="1" stop-color="white"/>
</linearGradient>
<clipPath id="clip0_589_229">
<rect width="16" height="15.9901" fill="white" transform="translate(135 265.021)"/>
</clipPath>
</defs>
</svg>
