<svg width="465" height="360" viewBox="0 0 465 360" fill="none" xmlns="http://www.w3.org/2000/svg">
<g filter="url(#filter0_d_589_400)">
<rect x="72" y="61" width="287" height="229" rx="24.5059" fill="white"/>
<rect x="72.5" y="61.5" width="286" height="228" rx="24.0059" stroke="#1B233D" stroke-opacity="0.03"/>
</g>
<g filter="url(#filter1_d_589_400)">
<rect x="52" y="51.8477" width="327" height="222.084" rx="22.4657" fill="white"/>
<rect x="52.75" y="52.5977" width="325.5" height="220.584" rx="21.7157" stroke="#1B233D" stroke-opacity="0.03" stroke-width="1.5"/>
</g>
<path opacity="0.1" d="M68.8516 85.2617L362.661 85.2617" stroke="#1B233D" stroke-width="1.5" stroke-linecap="round"/>
<circle cx="72.5821" cy="71.6016" r="2.92192" stroke="#1B233D" stroke-opacity="0.25" stroke-width="1.5"/>
<circle cx="98.2852" cy="71.6016" r="2.92192" stroke="#0093FF" stroke-width="1.5"/>
<circle cx="85.4356" cy="71.6016" r="3.67192" fill="#0093FF"/>
<path d="M227.623 200.348L210.385 222.035C206.728 226.635 210.004 233.424 215.881 233.424H340.799C346.676 233.424 349.952 226.635 346.295 222.035L294.43 156.785C291.62 153.249 286.249 153.249 283.439 156.785L248.812 200.348C246.103 203.757 240.927 203.757 238.217 200.348C235.508 196.94 230.332 196.94 227.623 200.348Z" fill="#1B233D"/>
<circle cx="238.234" cy="165.05" r="13.5077" fill="#FF8E00"/>
<rect x="158.137" y="191.942" width="28.0822" height="9.12671" rx="1.40411" fill="#0093FF"/>
<path d="M162.531 197.697L163.614 195.052H161.996V194.749H163.976V195.014L162.906 197.697H162.531ZM165.399 197.748C165.188 197.748 165.01 197.708 164.864 197.63C164.721 197.551 164.605 197.446 164.518 197.314C164.434 197.179 164.372 197.028 164.333 196.859C164.294 196.691 164.274 196.518 164.274 196.341C164.274 196.015 164.318 195.73 164.405 195.486C164.494 195.239 164.624 195.046 164.792 194.909C164.961 194.768 165.164 194.698 165.403 194.698C165.588 194.698 165.747 194.733 165.879 194.803C166.014 194.874 166.12 194.968 166.199 195.086C166.278 195.201 166.325 195.33 166.342 195.473H166.014C165.986 195.324 165.917 195.209 165.807 195.128C165.701 195.046 165.564 195.006 165.399 195.006C165.25 195.006 165.117 195.052 164.999 195.145C164.883 195.237 164.792 195.378 164.725 195.566C164.657 195.751 164.619 195.988 164.611 196.278C164.611 196.283 164.611 196.289 164.611 196.295C164.611 196.3 164.611 196.306 164.611 196.311C164.65 196.222 164.709 196.139 164.788 196.063C164.867 195.987 164.962 195.927 165.074 195.882C165.187 195.834 165.31 195.81 165.445 195.81C165.611 195.81 165.764 195.849 165.904 195.928C166.047 196.007 166.163 196.118 166.25 196.261C166.337 196.401 166.38 196.567 166.38 196.758C166.38 196.924 166.339 197.082 166.258 197.234C166.179 197.386 166.067 197.509 165.921 197.605C165.775 197.7 165.601 197.748 165.399 197.748ZM165.373 197.436C165.497 197.436 165.607 197.408 165.702 197.352C165.8 197.296 165.878 197.218 165.934 197.12C165.993 197.019 166.022 196.904 166.022 196.775C166.022 196.643 165.993 196.528 165.934 196.429C165.878 196.331 165.8 196.255 165.702 196.202C165.607 196.146 165.497 196.118 165.373 196.118C165.247 196.118 165.133 196.147 165.032 196.206C164.931 196.262 164.851 196.341 164.792 196.442C164.733 196.54 164.704 196.653 164.704 196.779C164.704 196.908 164.733 197.023 164.792 197.124C164.851 197.223 164.931 197.3 165.032 197.356C165.133 197.409 165.247 197.436 165.373 197.436ZM168.044 197.748C167.8 197.748 167.589 197.685 167.412 197.558C167.238 197.429 167.103 197.251 167.008 197.023C166.912 196.793 166.865 196.526 166.865 196.223C166.865 195.92 166.912 195.654 167.008 195.427C167.103 195.197 167.238 195.018 167.412 194.892C167.589 194.763 167.8 194.698 168.044 194.698C168.288 194.698 168.498 194.763 168.672 194.892C168.846 195.018 168.979 195.197 169.072 195.427C169.167 195.654 169.215 195.92 169.215 196.223C169.215 196.526 169.167 196.793 169.072 197.023C168.979 197.251 168.846 197.429 168.672 197.558C168.498 197.685 168.288 197.748 168.044 197.748ZM168.044 197.436C168.199 197.436 168.336 197.388 168.457 197.293C168.578 197.195 168.673 197.056 168.743 196.876C168.816 196.693 168.853 196.476 168.853 196.223C168.853 195.967 168.816 195.75 168.743 195.57C168.673 195.39 168.578 195.253 168.457 195.157C168.336 195.062 168.199 195.014 168.044 195.014C167.887 195.014 167.747 195.062 167.623 195.157C167.499 195.253 167.403 195.39 167.332 195.57C167.262 195.75 167.227 195.967 167.227 196.223C167.227 196.476 167.262 196.693 167.332 196.876C167.403 197.056 167.499 197.195 167.623 197.293C167.747 197.388 167.887 197.436 168.044 197.436Z" fill="white"/>
<path d="M176.09 197.748C175.893 197.748 175.722 197.713 175.576 197.643C175.433 197.572 175.319 197.478 175.235 197.36C175.153 197.24 175.103 197.102 175.083 196.947H175.429C175.46 197.093 175.531 197.213 175.643 197.306C175.759 197.398 175.909 197.445 176.094 197.445C176.232 197.445 176.348 197.414 176.444 197.352C176.542 197.287 176.618 197.2 176.671 197.091C176.725 196.978 176.751 196.853 176.751 196.716C176.751 196.578 176.725 196.457 176.671 196.354C176.621 196.247 176.548 196.164 176.452 196.105C176.357 196.043 176.244 196.012 176.115 196.012C175.961 196.012 175.829 196.043 175.719 196.105C175.613 196.167 175.53 196.243 175.471 196.332H175.121L175.344 194.749H176.928V195.056H175.618L175.467 195.979C175.537 195.9 175.629 195.837 175.745 195.789C175.862 195.739 175.999 195.713 176.153 195.713C176.296 195.713 176.426 195.739 176.541 195.789C176.656 195.84 176.754 195.911 176.836 196.004C176.92 196.094 176.983 196.199 177.025 196.32C177.07 196.441 177.092 196.571 177.092 196.712C177.092 196.852 177.069 196.985 177.021 197.112C176.976 197.235 176.91 197.345 176.823 197.44C176.739 197.536 176.635 197.612 176.511 197.668C176.388 197.721 176.247 197.748 176.09 197.748ZM177.551 197.697V197.449C177.759 197.291 177.955 197.133 178.141 196.973C178.326 196.813 178.49 196.654 178.634 196.497C178.777 196.337 178.889 196.181 178.971 196.029C179.052 195.878 179.093 195.732 179.093 195.591C179.093 195.487 179.073 195.392 179.034 195.305C178.997 195.215 178.937 195.142 178.853 195.086C178.771 195.029 178.66 195.001 178.52 195.001C178.385 195.001 178.273 195.031 178.183 195.09C178.093 195.146 178.026 195.222 177.981 195.317C177.936 195.41 177.913 195.512 177.913 195.625H177.572C177.575 195.431 177.617 195.265 177.698 195.128C177.78 194.987 177.892 194.881 178.035 194.808C178.179 194.735 178.341 194.698 178.524 194.698C178.704 194.698 178.862 194.732 179 194.799C179.138 194.864 179.246 194.962 179.324 195.094C179.406 195.223 179.447 195.385 179.447 195.578C179.447 195.716 179.417 195.854 179.358 195.991C179.302 196.129 179.225 196.264 179.126 196.396C179.028 196.525 178.919 196.65 178.798 196.771C178.68 196.891 178.558 197.005 178.431 197.112C178.305 197.218 178.186 197.315 178.073 197.402H179.548V197.697H177.551ZM181.102 197.748C180.858 197.748 180.647 197.685 180.471 197.558C180.296 197.429 180.162 197.251 180.066 197.023C179.971 196.793 179.923 196.526 179.923 196.223C179.923 195.92 179.971 195.654 180.066 195.427C180.162 195.197 180.296 195.018 180.471 194.892C180.647 194.763 180.858 194.698 181.102 194.698C181.347 194.698 181.556 194.763 181.73 194.892C181.904 195.018 182.038 195.197 182.13 195.427C182.226 195.654 182.273 195.92 182.273 196.223C182.273 196.526 182.226 196.793 182.13 197.023C182.038 197.251 181.904 197.429 181.73 197.558C181.556 197.685 181.347 197.748 181.102 197.748ZM181.102 197.436C181.257 197.436 181.394 197.388 181.515 197.293C181.636 197.195 181.731 197.056 181.802 196.876C181.875 196.693 181.911 196.476 181.911 196.223C181.911 195.967 181.875 195.75 181.802 195.57C181.731 195.39 181.636 195.253 181.515 195.157C181.394 195.062 181.257 195.014 181.102 195.014C180.945 195.014 180.805 195.062 180.681 195.157C180.558 195.253 180.461 195.39 180.391 195.57C180.32 195.75 180.285 195.967 180.285 196.223C180.285 196.476 180.32 196.693 180.391 196.876C180.461 197.056 180.558 197.195 180.681 197.293C180.805 197.388 180.945 197.436 181.102 197.436Z" fill="white"/>
<path d="M171.125 195.804L173.056 197.734" stroke="white" stroke-width="1.5" stroke-linecap="round"/>
<path d="M173.055 195.804L171.124 197.734" stroke="white" stroke-width="1.5" stroke-linecap="round"/>
<rect x="64.0625" y="36.0859" width="216.584" height="151.644" fill="#0093FF" fill-opacity="0.1" stroke="#0093FF" stroke-width="1.5" stroke-linecap="round" stroke-dasharray="3.06 4.59"/>
<rect x="62.7207" y="35" width="4.21233" height="4.21233" rx="1.53162" fill="white" stroke="#0093FF" stroke-width="1.5"/>
<rect x="62.7207" y="185.098" width="4.21233" height="4.21233" rx="1.53162" fill="white" stroke="#0093FF" stroke-width="1.5"/>
<rect x="277.912" y="35" width="4.21233" height="4.21233" rx="1.53162" fill="white" stroke="#0093FF" stroke-width="1.5"/>
<rect x="278.188" y="185.098" width="4.21233" height="4.21233" rx="1.53162" fill="white" stroke="#0093FF" stroke-width="1.5"/>
<path d="M281.283 37.1299C281.368 37.1406 281.447 37.1689 281.518 37.2109L281.585 37.2568L282.603 38.0801V38.0791L290.17 44.2031H290.171C290.546 44.5058 290.373 45.1618 289.792 45.1621H285.919C285.575 45.1619 285.234 45.2329 284.92 45.3711C284.684 45.4748 284.466 45.6153 284.275 45.7861L284.094 45.9668L284.093 45.9678L281.649 48.6797C281.273 49.0967 280.625 48.7963 280.625 48.3262V37.6699C280.625 37.5953 280.642 37.5212 280.674 37.4521L280.712 37.3848C280.755 37.3195 280.812 37.2625 280.881 37.2188L280.953 37.1797C281.055 37.1335 281.17 37.1157 281.283 37.1299Z" fill="white" stroke="#1B233D" stroke-width="1.25"/>
<rect opacity="0.15" x="76.3984" y="139.916" width="100.321" height="16.8478" rx="6.12646" fill="#1B233D"/>
<rect opacity="0.15" x="76.3984" y="164.422" width="70.4543" height="16.8478" rx="6.12646" fill="#1B233D"/>
<rect opacity="0.07" x="76.3984" y="192.757" width="55.1382" height="4.59485" rx="2.29742" fill="#1B233D"/>
<rect opacity="0.07" x="76.3984" y="201.181" width="45.1827" height="4.59485" rx="2.29742" fill="#1B233D"/>
<rect opacity="0.75" x="76.3984" y="218.028" width="47.4801" height="15.3162" rx="4" fill="#61BC5B"/>
<rect opacity="0.1" x="317" y="101" width="37.5246" height="15.3162" rx="4" fill="#1B233D"/>
<rect opacity="0.1" x="280.211" y="106.22" width="15.3162" height="4.59485" rx="2.29742" fill="#1B233D"/>
<rect opacity="0.1" x="257.238" y="106.22" width="15.3162" height="4.59485" rx="2.29742" fill="#1B233D"/>
<rect opacity="0.1" x="234.262" y="106.22" width="15.3162" height="4.59485" rx="2.29742" fill="#1B233D"/>
<rect opacity="0.1" x="211.287" y="106.22" width="15.3162" height="4.59485" rx="2.29742" fill="#1B233D"/>
<rect opacity="0.5" x="96.3086" y="105.454" width="15.3162" height="6.12646" rx="3.06323" fill="#1B233D"/>
<circle opacity="0.5" cx="83.6581" cy="108.658" r="7.65808" fill="#1B233D"/>
<defs>
<filter id="filter0_d_589_400" x="72" y="61" width="287" height="274.948" filterUnits="userSpaceOnUse" color-interpolation-filters="sRGB">
<feFlood flood-opacity="0" result="BackgroundImageFix"/>
<feColorMatrix in="SourceAlpha" type="matrix" values="0 0 0 0 0 0 0 0 0 0 0 0 0 0 0 0 0 0 127 0" result="hardAlpha"/>
<feMorphology radius="30.6323" operator="erode" in="SourceAlpha" result="effect1_dropShadow_589_400"/>
<feOffset dy="45.9485"/>
<feGaussianBlur stdDeviation="15.3162"/>
<feComposite in2="hardAlpha" operator="out"/>
<feColorMatrix type="matrix" values="0 0 0 0 0.105882 0 0 0 0 0.137255 0 0 0 0 0.239216 0 0 0 0.05 0"/>
<feBlend mode="normal" in2="BackgroundImageFix" result="effect1_dropShadow_589_400"/>
<feBlend mode="normal" in="SourceGraphic" in2="effect1_dropShadow_589_400" result="shape"/>
</filter>
<filter id="filter1_d_589_400" x="0.800278" y="0.647934" width="463.533" height="358.617" filterUnits="userSpaceOnUse" color-interpolation-filters="sRGB">
<feFlood flood-opacity="0" result="BackgroundImageFix"/>
<feColorMatrix in="SourceAlpha" type="matrix" values="0 0 0 0 0 0 0 0 0 0 0 0 0 0 0 0 0 0 127 0" result="hardAlpha"/>
<feOffset dx="17.0666" dy="17.0666"/>
<feGaussianBlur stdDeviation="34.1331"/>
<feComposite in2="hardAlpha" operator="out"/>
<feColorMatrix type="matrix" values="0 0 0 0 0.105882 0 0 0 0 0.137255 0 0 0 0 0.239216 0 0 0 0.05 0"/>
<feBlend mode="normal" in2="BackgroundImageFix" result="effect1_dropShadow_589_400"/>
<feBlend mode="normal" in="SourceGraphic" in2="effect1_dropShadow_589_400" result="shape"/>
</filter>
</defs>
</svg>
