<svg width="465" height="368" viewBox="0 0 465 368" fill="none" xmlns="http://www.w3.org/2000/svg">
<g filter="url(#filter0_d_589_437)">
<rect x="72" y="69.1416" width="287" height="228.858" rx="24.5059" fill="white"/>
<rect x="72.5" y="69.6416" width="286" height="227.858" rx="24.0059" stroke="#1B233D" stroke-opacity="0.03"/>
</g>
<g filter="url(#filter1_d_589_437)">
<rect x="52" y="52" width="327" height="229.858" rx="22.4657" fill="white"/>
<rect x="52.5" y="52.5" width="326" height="228.858" rx="21.9657" stroke="#1B233D" stroke-opacity="0.03"/>
</g>
<path opacity="0.1" d="M68.8516 85.3936L362.661 85.3935" stroke="#1B233D" stroke-width="1.14871" stroke-linecap="round"/>
<path d="M72.582 68.6465C74.2931 68.6465 75.6797 70.033 75.6797 71.7422C75.6795 73.4512 74.293 74.8369 72.582 74.8369C70.8711 74.8369 69.4845 73.4512 69.4844 71.7422C69.4844 70.0331 70.871 68.6465 72.582 68.6465Z" stroke="#1B233D" stroke-opacity="0.25" stroke-width="1.14871"/>
<path d="M98.2852 68.6465C99.9962 68.6465 101.383 70.033 101.383 71.7422C101.383 73.4512 99.9961 74.8369 98.2852 74.8369C96.5742 74.8369 95.1877 73.4512 95.1875 71.7422C95.1875 70.0331 96.5741 68.6465 98.2852 68.6465Z" stroke="#0093FF" stroke-width="1.14871"/>
<ellipse cx="85.4356" cy="71.7419" rx="3.67192" ry="3.66964" fill="#0093FF"/>
<g filter="url(#filter2_d_589_437)">
<rect x="87" y="123.108" width="257" height="148.449" rx="10" fill="white" shape-rendering="crispEdges"/>
<rect x="87" y="123.108" width="257" height="148.449" rx="10" stroke="#1B233D" stroke-opacity="0.15" stroke-width="1.5" stroke-linecap="round" stroke-dasharray="3 6" shape-rendering="crispEdges"/>
</g>
<g opacity="0.5">
<path d="M180.971 242.782L177.193 249.956C177.066 250.197 177 250.465 177 250.737V251.007C177 251.287 177.113 251.555 177.314 251.75V251.75C177.44 251.873 177.596 251.962 177.767 252.008L177.882 252.039C178.081 252.093 178.288 252.105 178.491 252.075L178.94 252.009C179.262 251.962 179.577 251.872 179.875 251.742L180.558 251.445L181.462 250.892C181.675 250.762 181.871 250.606 182.045 250.427L182.289 250.178C182.46 250.002 182.588 249.788 182.662 249.554V249.554C182.709 249.403 182.733 249.246 182.733 249.088V249.042C182.733 248.844 182.696 248.647 182.623 248.462V248.462C182.504 248.157 182.294 247.896 182.022 247.714L182.01 247.707C181.859 247.606 181.693 247.531 181.518 247.485L181.251 247.415C180.913 247.326 180.563 247.292 180.214 247.313L179.803 247.338C179.698 247.344 179.673 247.193 179.775 247.166L180.854 246.878C181.398 246.733 181.926 246.532 182.429 246.278L182.726 246.128C183.155 245.912 183.554 245.64 183.914 245.321L184.156 245.107C184.496 244.806 184.779 244.446 184.991 244.045L185.09 243.86C185.235 243.586 185.33 243.289 185.372 242.982L185.407 242.723C185.439 242.49 185.416 242.253 185.34 242.03L185.312 241.949C185.205 241.633 184.98 241.37 184.683 241.215V241.215C184.46 241.098 184.207 241.048 183.956 241.072L183.565 241.109C183.437 241.121 183.309 241.143 183.184 241.173L182.038 241.456L180.971 241.693C180.505 241.857 179.488 242.113 179.151 241.821" stroke="#1B233D" stroke-linecap="round"/>
<path d="M188.693 241.767L187.52 244.136L186.725 245.894C186.621 246.118 186.515 246.384 186.415 246.654C186.026 247.707 185.763 248.802 185.507 249.894V249.894C185.413 250.296 185.291 250.699 185.285 251.113C185.283 251.286 185.302 251.465 185.366 251.603C185.459 251.805 185.533 251.921 185.71 252.056V252.056C185.973 252.256 186.329 252.286 186.659 252.265C186.695 252.263 186.729 252.259 186.761 252.255C187.024 252.218 187.174 252.173 187.413 252.056C187.681 251.925 187.796 251.791 188.029 251.603C188.181 251.48 188.142 251.505 188.287 251.374" stroke="#1B233D" stroke-linecap="round"/>
<path d="M192.339 245.155L191.282 247.336L190.555 248.996L190.248 249.859C190.148 250.14 190.085 250.433 190.059 250.731L190.022 251.16C190.01 251.301 190.024 251.443 190.063 251.579L190.122 251.783C190.157 251.907 190.234 252.014 190.339 252.088V252.088C190.401 252.131 190.47 252.161 190.544 252.176L190.585 252.185C190.689 252.207 190.796 252.207 190.9 252.186L191.048 252.155C191.263 252.11 191.465 252.019 191.64 251.888L191.961 251.647C192.136 251.516 192.298 251.367 192.444 251.203L192.793 250.811V250.811C193.361 250.139 193.88 249.426 194.344 248.678L194.478 248.463M194.478 248.463L195.406 246.879L196.12 245.513M194.478 248.463L194.307 248.874C194.021 249.559 193.874 250.293 193.874 251.034V251.034V251.61C193.874 251.79 193.948 251.962 194.078 252.087V252.087C194.168 252.173 194.28 252.232 194.402 252.257L194.504 252.278C194.615 252.3 194.728 252.304 194.839 252.29L194.979 252.273C195.26 252.237 195.529 252.138 195.767 251.983L195.988 251.839C196.148 251.734 196.298 251.615 196.436 251.482L196.973 250.964" stroke="#1B233D" stroke-linecap="round"/>
<path d="M199.802 248.992L199.974 249.047C200.218 249.124 200.471 249.163 200.726 249.163H200.768C201.008 249.163 201.247 249.124 201.474 249.048V249.048C201.86 248.919 202.202 248.688 202.466 248.379L202.611 248.208C202.834 247.946 203.006 247.646 203.119 247.321L203.232 246.993C203.313 246.762 203.332 246.514 203.29 246.273L203.26 246.106C203.228 245.925 203.141 245.758 203.011 245.628V245.628C202.922 245.539 202.816 245.47 202.698 245.425L202.581 245.38C202.306 245.275 202.005 245.254 201.718 245.319L201.678 245.329C201.444 245.382 201.224 245.488 201.035 245.638L200.753 245.862C200.591 245.991 200.441 246.136 200.306 246.294L200.073 246.567C199.862 246.815 199.668 247.079 199.493 247.355L199.32 247.629C199.188 247.839 199.074 248.059 198.979 248.288V248.288C198.804 248.71 198.696 249.156 198.659 249.61L198.643 249.808C198.627 250.007 198.632 250.207 198.657 250.405L198.711 250.822C198.76 251.203 198.938 251.554 199.215 251.819V251.819C199.465 252.058 199.784 252.214 200.126 252.265L200.218 252.278C200.45 252.313 200.686 252.305 200.915 252.257L201.148 252.207C201.508 252.13 201.854 251.993 202.169 251.802L202.39 251.668C202.594 251.544 202.789 251.405 202.973 251.252L202.998 251.231C203.275 251 203.527 250.742 203.751 250.46L203.965 250.191" stroke="#1B233D" stroke-linecap="round"/>
</g>
<path d="M173.849 244.274C172.584 242.912 170.705 241.47 169.153 240.524C167.058 239.247 164.917 238.242 162.682 237.331C160.712 236.529 158.747 235.69 156.71 235.167C156.271 235.054 155.478 234.983 155.041 234.898M155.041 234.898C154.927 234.669 158.557 233.082 158.791 232.958M155.041 234.898C155.041 234.898 156.847 237.499 157.853 238.709" stroke="#0093FF" stroke-linecap="round"/>
<path d="M243.702 125.99C228.646 126.439 218.048 129.746 210.215 133.756C204.459 136.703 196.991 142.929 201.735 147.323C204.923 150.277 211.553 152.429 218.966 153.743C227.54 155.262 239.746 155.157 248.606 154.218C264.573 152.527 285.162 148.642 289.637 141.68C292.749 136.841 287.759 133.459 275.766 131.79C263.027 130.018 251.229 128.516 237.55 133.422" stroke="#0093FF" stroke-linecap="round"/>
<path d="M225.026 213.708L211.484 230.735C208.608 234.35 211.183 239.687 215.802 239.687H313.971C318.59 239.687 321.164 234.35 318.289 230.735L277.531 179.49C275.322 176.713 271.104 176.713 268.895 179.49L241.679 213.708C239.55 216.386 235.482 216.386 233.353 213.708C231.223 211.03 227.156 211.03 225.026 213.708Z" fill="#1B233D"/>
<ellipse cx="233.366" cy="185.984" rx="10.6161" ry="10.6096" fill="#FF8E00"/>
<rect opacity="0.15" x="111.676" y="166.242" width="78.8454" height="13.233" rx="4.81499" fill="#1B233D"/>
<rect opacity="0.15" x="111.676" y="185.49" width="55.3724" height="13.233" rx="4.81499" fill="#1B233D"/>
<rect opacity="0.07" x="111.676" y="207.746" width="43.3349" height="3.60901" rx="1.8045" fill="#1B233D"/>
<rect opacity="0.07" x="111.676" y="214.362" width="35.5105" height="3.60901" rx="1.8045" fill="#1B233D"/>
<rect opacity="0.75" x="111.676" y="227.595" width="37.3162" height="12.03" rx="3" fill="#61BC5B"/>
<rect opacity="0.1" x="296.451" y="135.565" width="29.4918" height="12.03" rx="3" fill="#1B233D"/>
<rect opacity="0.1" x="266.359" y="139.775" width="12.0375" height="3.60901" rx="1.8045" fill="#1B233D"/>
<rect opacity="0.1" x="248.303" y="139.776" width="12.0375" height="3.60901" rx="1.8045" fill="#1B233D"/>
<rect opacity="0.1" x="230.246" y="139.775" width="12.0375" height="3.60901" rx="1.8045" fill="#1B233D"/>
<rect opacity="0.1" x="212.189" y="139.776" width="12.0375" height="3.60901" rx="1.8045" fill="#1B233D"/>
<rect opacity="0.5" x="127.326" y="139.174" width="12.0375" height="4.81201" rx="2.406" fill="#1B233D"/>
<ellipse opacity="0.5" cx="117.695" cy="141.58" rx="6.01874" ry="6.01501" fill="#1B233D"/>
<g opacity="0.04" filter="url(#filter3_d_589_437)">
<rect x="68" y="93.127" width="295" height="21.9864" rx="5" fill="#1B233D"/>
</g>
<g opacity="0.25">
<path d="M167 101.871V106.368" stroke="#1B233D" stroke-width="0.75" stroke-linecap="round" stroke-linejoin="round"/>
<path d="M164.5 102.871V101.871H169.5V102.871" stroke="#1B233D" stroke-width="0.75" stroke-linecap="round" stroke-linejoin="round"/>
<path d="M166 106.369H168" stroke="#1B233D" stroke-width="0.75" stroke-linecap="round" stroke-linejoin="round"/>
</g>
<g opacity="0.25">
<path d="M259.5 101.372H254.5C254.362 101.372 254.25 101.483 254.25 101.621V106.618C254.25 106.756 254.362 106.868 254.5 106.868H259.5C259.638 106.868 259.75 106.756 259.75 106.618V101.621C259.75 101.483 259.638 101.372 259.5 101.372Z" stroke="#1B233D" stroke-width="0.75" stroke-linecap="round" stroke-linejoin="round"/>
</g>
<g opacity="0.25">
<path d="M147.896 106.869H146.5C146.434 106.869 146.37 106.842 146.323 106.795C146.276 106.749 146.25 106.685 146.25 106.619V105.223C146.25 105.19 146.256 105.158 146.269 105.127C146.282 105.097 146.3 105.07 146.323 105.046L150.073 101.299C150.12 101.252 150.184 101.226 150.25 101.226C150.316 101.226 150.38 101.252 150.427 101.299L151.823 102.694C151.87 102.741 151.896 102.805 151.896 102.871C151.896 102.937 151.87 103.001 151.823 103.048L148.073 106.795C148.05 106.819 148.022 106.837 147.992 106.85C147.962 106.862 147.929 106.869 147.896 106.869Z" stroke="#1B233D" stroke-width="0.75" stroke-linecap="round" stroke-linejoin="round"/>
<path d="M149.25 102.121L151 103.87" stroke="#1B233D" stroke-width="0.75" stroke-linecap="round" stroke-linejoin="round"/>
<path d="M147.984 106.852L146.266 105.135" stroke="#1B233D" stroke-width="0.75" stroke-linecap="round" stroke-linejoin="round"/>
</g>
<g opacity="0.25">
<path d="M205.5 104.87C205.5 102.621 203 100.872 203 100.872C203 100.872 200.5 102.621 200.5 104.87C200.5 105.532 200.763 106.168 201.232 106.636C201.701 107.105 202.337 107.368 203 107.368C203.663 107.368 204.299 107.105 204.768 106.636C205.237 106.168 205.5 105.532 205.5 104.87Z" stroke="#1B233D" stroke-width="0.75" stroke-linecap="round" stroke-linejoin="round"/>
<path d="M204.5 104.87C204.5 105.267 204.342 105.649 204.061 105.93C203.779 106.212 203.398 106.37 203 106.37" stroke="#1B233D" stroke-width="0.75" stroke-linecap="round" stroke-linejoin="round"/>
</g>
<g opacity="0.25">
<path d="M218.75 101.871H217.5" stroke="#1B233D" stroke-width="0.75" stroke-linecap="round" stroke-linejoin="round"/>
<path d="M218.75 100.622V106.369H224.5" stroke="#1B233D" stroke-width="0.75" stroke-linecap="round" stroke-linejoin="round"/>
<path d="M223.25 105.369V101.871H219.75" stroke="#1B233D" stroke-width="0.75" stroke-linecap="round" stroke-linejoin="round"/>
<path d="M223.25 107.619V106.369" stroke="#1B233D" stroke-width="0.75" stroke-linecap="round" stroke-linejoin="round"/>
</g>
<g opacity="0.25">
<path d="M238 103.371H240" stroke="#1B233D" stroke-width="0.75" stroke-linecap="round" stroke-linejoin="round"/>
<path d="M238 104.37H240" stroke="#1B233D" stroke-width="0.75" stroke-linecap="round" stroke-linejoin="round"/>
<path d="M239.677 106.24L239.214 107.011C239.192 107.048 239.161 107.079 239.123 107.1C239.086 107.121 239.043 107.132 239 107.132C238.957 107.132 238.914 107.121 238.877 107.1C238.839 107.079 238.808 107.048 238.786 107.011L238.323 106.24C238.301 106.203 238.269 106.172 238.232 106.151C238.194 106.13 238.152 106.119 238.108 106.119H236.25C236.184 106.119 236.12 106.092 236.073 106.046C236.026 105.999 236 105.935 236 105.869V101.871C236 101.805 236.026 101.742 236.073 101.695C236.12 101.648 236.184 101.622 236.25 101.622H241.75C241.816 101.622 241.88 101.648 241.927 101.695C241.974 101.742 242 101.805 242 101.871V105.869C242 105.935 241.974 105.999 241.927 106.046C241.88 106.092 241.816 106.119 241.75 106.119L239.892 106.119C239.848 106.119 239.806 106.13 239.768 106.151C239.731 106.172 239.699 106.203 239.677 106.24Z" stroke="#1B233D" stroke-width="0.75" stroke-linecap="round" stroke-linejoin="round"/>
</g>
<g opacity="0.25">
<path d="M106.5 104.37L108 102.871L106.5 101.372" stroke="#1B233D" stroke-width="0.75" stroke-linecap="round" stroke-linejoin="round"/>
<path d="M106.5 106.369H103.75C103.286 106.369 102.841 106.185 102.513 105.857C102.184 105.529 102 105.084 102 104.62V104.62C102 104.39 102.045 104.163 102.133 103.951C102.221 103.739 102.35 103.546 102.513 103.383C102.675 103.221 102.868 103.092 103.08 103.004C103.293 102.916 103.52 102.871 103.75 102.871H108" stroke="#1B233D" stroke-width="0.75" stroke-linecap="round" stroke-linejoin="round"/>
</g>
<g opacity="0.5">
<path d="M77.5 104.37L76 102.871L77.5 101.372" stroke="#1B233D" stroke-width="0.75" stroke-linecap="round" stroke-linejoin="round"/>
<path d="M77.5 106.369H80.25C80.7141 106.369 81.1592 106.185 81.4874 105.857C81.8156 105.529 82 105.084 82 104.62V104.62C82 104.39 81.9547 104.163 81.8668 103.951C81.7788 103.739 81.6499 103.546 81.4874 103.383C81.3249 103.221 81.132 103.092 80.9197 103.004C80.7074 102.916 80.4798 102.871 80.25 102.871H76" stroke="#1B233D" stroke-width="0.75" stroke-linecap="round" stroke-linejoin="round"/>
</g>
<g opacity="0.25">
<path d="M183 106.119L187 102.121" stroke="#1B233D" stroke-width="0.75" stroke-linecap="round" stroke-linejoin="round"/>
<path d="M183.75 102.121H187V105.369" stroke="#1B233D" stroke-width="0.75" stroke-linecap="round" stroke-linejoin="round"/>
</g>
<g opacity="0.35">
<path d="M93.5039 103.238H95.0039V101.738" stroke="#1B233D" stroke-width="0.75" stroke-linecap="round" stroke-linejoin="round"/>
<path d="M90.0547 102.177C90.31 101.922 90.6132 101.719 90.9469 101.581C91.2805 101.443 91.6381 101.372 91.9992 101.372C92.3604 101.372 92.718 101.443 93.0516 101.581C93.3853 101.719 93.6884 101.922 93.9438 102.177L95.0044 103.237" stroke="#1B233D" stroke-width="0.75" stroke-linecap="round" stroke-linejoin="round"/>
<path d="M90.4961 105.003H88.9961V106.503" stroke="#1B233D" stroke-width="0.75" stroke-linecap="round" stroke-linejoin="round"/>
<path d="M93.9458 106.063C93.6905 106.319 93.3873 106.521 93.0537 106.659C92.72 106.797 92.3624 106.868 92.0013 106.868C91.6402 106.868 91.2826 106.797 90.9489 106.659C90.6153 106.521 90.3121 106.319 90.0568 106.063L88.9961 105.003" stroke="#1B233D" stroke-width="0.75" stroke-linecap="round" stroke-linejoin="round"/>
</g>
<g opacity="0.25">
<path d="M129.571 101.499C129.605 101.503 129.636 101.517 129.661 101.538L130.274 102.041L133.563 104.744C133.675 104.835 133.624 105.033 133.451 105.034H131.69L131.563 105.041C131.48 105.049 131.397 105.067 131.316 105.093L131.198 105.139C131.082 105.191 130.975 105.261 130.881 105.346L130.791 105.436L129.681 106.688C129.628 106.747 129.556 106.761 129.485 106.735C129.416 106.709 129.375 106.655 129.375 106.581V101.663L129.382 101.618L129.4 101.576C129.409 101.563 129.42 101.551 129.432 101.541L129.473 101.514C129.488 101.507 129.504 101.502 129.521 101.5L129.571 101.499Z" stroke="#1B233D" stroke-width="0.75"/>
</g>
<rect x="333" y="99.123" width="24" height="9.99381" rx="3" fill="#61BC5B"/>
<rect x="305" y="99.123" width="24" height="9.99381" rx="3" fill="#FF8E00"/>
<rect x="277" y="99.123" width="24" height="9.99381" rx="3" fill="#0093FF"/>
<rect x="105" y="158.086" width="93" height="64.9598" rx="4" stroke="#0093FF" stroke-linecap="round" stroke-dasharray="2 4"/>
<g filter="url(#filter4_d_589_437)">
<rect x="331" y="153.937" width="26" height="25.9839" rx="7" fill="white"/>
</g>
<g opacity="0.25">
<path d="M339.499 162.432H337" stroke="#1B233D" stroke-width="1.5" stroke-linecap="round" stroke-linejoin="round"/>
<path d="M339.5 159.933V171.426H351" stroke="#1B233D" stroke-width="1.5" stroke-linecap="round" stroke-linejoin="round"/>
<path d="M348.5 169.428V162.432H341.5" stroke="#1B233D" stroke-width="1.5" stroke-linecap="round" stroke-linejoin="round"/>
<path d="M348.5 173.925V171.426" stroke="#1B233D" stroke-width="1.5" stroke-linecap="round" stroke-linejoin="round"/>
</g>
<g filter="url(#filter5_d_589_437)">
<rect x="75" y="233.04" width="26" height="25.9839" rx="7" fill="white"/>
</g>
<path d="M85.7929 251.529H83C82.8674 251.529 82.7402 251.476 82.6464 251.382C82.5527 251.289 82.5 251.161 82.5 251.029V248.238C82.5 248.172 82.5129 248.107 82.5381 248.047C82.5632 247.986 82.6 247.931 82.6464 247.884L90.1464 240.389C90.2402 240.295 90.3674 240.243 90.5 240.243C90.6326 240.243 90.7598 240.295 90.8536 240.389L93.6464 243.18C93.7402 243.274 93.7929 243.401 93.7929 243.534C93.7929 243.666 93.7402 243.793 93.6464 243.887L86.1464 251.382C86.1 251.429 86.0449 251.465 85.9842 251.491C85.9236 251.516 85.8586 251.529 85.7929 251.529Z" stroke="#0093FF" stroke-width="1.5" stroke-linecap="round" stroke-linejoin="round"/>
<path d="M88.5 242.035L92 245.533" stroke="#0093FF" stroke-width="1.5" stroke-linecap="round" stroke-linejoin="round"/>
<path d="M86.5534 250.992L83.1172 247.558" stroke="#0093FF" stroke-width="1.5" stroke-linecap="round" stroke-linejoin="round"/>
<g filter="url(#filter6_d_589_437)">
<rect x="266" y="259.024" width="26" height="25.9839" rx="7" fill="white"/>
</g>
<g opacity="0.25">
<path d="M279 267.519V276.513" stroke="#1B233D" stroke-width="1.5" stroke-linecap="round" stroke-linejoin="round"/>
<path d="M274 269.517V267.519H284V269.517" stroke="#1B233D" stroke-width="1.5" stroke-linecap="round" stroke-linejoin="round"/>
<path d="M277 276.513H281" stroke="#1B233D" stroke-width="1.5" stroke-linecap="round" stroke-linejoin="round"/>
</g>
<g filter="url(#filter7_d_589_437)">
<rect x="266" y="259.024" width="26" height="25.9839" rx="7" fill="white"/>
</g>
<g opacity="0.25">
<path d="M279 267.519V276.513" stroke="#1B233D" stroke-width="1.5" stroke-linecap="round" stroke-linejoin="round"/>
<path d="M274 269.517V267.519H284V269.517" stroke="#1B233D" stroke-width="1.5" stroke-linecap="round" stroke-linejoin="round"/>
<path d="M277 276.513H281" stroke="#1B233D" stroke-width="1.5" stroke-linecap="round" stroke-linejoin="round"/>
</g>
<path d="M258.456 204.058C265.287 204.142 272.121 204.074 278.948 204.311C288.269 204.634 291.535 204.932 281.413 206.356C272.826 207.565 264.147 207.81 255.563 208.992C252.674 209.39 257.284 210.468 257.682 210.552C265.408 212.188 273.301 213.182 281.107 214.305C286.091 215.022 291.095 215.637 296.059 216.498C297.636 216.771 302.06 217.753 300.54 218.269C297.373 219.343 293.627 219.621 290.376 219.976C282.666 220.819 274.922 221.165 267.174 221.347C256.774 221.591 242.17 226.268 252.573 226.268C277.19 226.268 280.831 226.627 305 231.041" stroke="white" stroke-width="1.25" stroke-linecap="round"/>
<path opacity="0.5" d="M289.624 150.761C289.806 150.553 290.122 150.533 290.33 150.715C290.537 150.897 290.558 151.214 290.376 151.421C289.392 152.543 288.492 153.682 287.626 154.845C288.679 155.434 289.719 155.978 290.668 156.401L291.19 156.624L291.279 156.672C291.472 156.802 291.555 157.054 291.463 157.277C291.371 157.501 291.135 157.622 290.907 157.578L290.809 157.549L290.27 157.319C289.256 156.867 288.144 156.283 287.028 155.656C286.15 156.865 285.295 158.1 284.41 159.371L284.345 159.448C284.176 159.609 283.912 159.634 283.714 159.496C283.487 159.338 283.432 159.026 283.59 158.8L285.03 156.735C285.402 156.205 285.775 155.68 286.153 155.158C285.35 154.694 284.557 154.22 283.809 153.769L281.743 152.519L281.662 152.458C281.49 152.301 281.447 152.04 281.571 151.833C281.695 151.626 281.946 151.541 282.165 151.618L282.257 151.661L284.337 152.918C285.111 153.385 285.927 153.873 286.748 154.347C287.65 153.132 288.592 151.937 289.624 150.761Z" fill="#1B233D"/>
<path d="M197.283 159.63C197.368 159.641 197.447 159.669 197.518 159.711L197.585 159.757L198.603 160.58V160.579L206.17 166.703H206.171C206.546 167.006 206.373 167.662 205.792 167.662H201.919C201.575 167.662 201.234 167.733 200.92 167.871C200.684 167.975 200.466 168.115 200.275 168.286L200.094 168.467L200.093 168.468L197.649 171.18C197.273 171.597 196.625 171.296 196.625 170.826V160.17C196.625 160.095 196.642 160.021 196.674 159.952L196.712 159.885C196.755 159.82 196.812 159.763 196.881 159.719L196.953 159.68C197.055 159.633 197.17 159.616 197.283 159.63Z" fill="white" stroke="#1B233D" stroke-width="1.25"/>
<defs>
<filter id="filter0_d_589_437" x="72" y="69.1416" width="287" height="274.807" filterUnits="userSpaceOnUse" color-interpolation-filters="sRGB">
<feFlood flood-opacity="0" result="BackgroundImageFix"/>
<feColorMatrix in="SourceAlpha" type="matrix" values="0 0 0 0 0 0 0 0 0 0 0 0 0 0 0 0 0 0 127 0" result="hardAlpha"/>
<feMorphology radius="30.6323" operator="erode" in="SourceAlpha" result="effect1_dropShadow_589_437"/>
<feOffset dy="45.9485"/>
<feGaussianBlur stdDeviation="15.3162"/>
<feComposite in2="hardAlpha" operator="out"/>
<feColorMatrix type="matrix" values="0 0 0 0 0.105882 0 0 0 0 0.137255 0 0 0 0 0.239216 0 0 0 0.05 0"/>
<feBlend mode="normal" in2="BackgroundImageFix" result="effect1_dropShadow_589_437"/>
<feBlend mode="normal" in="SourceGraphic" in2="effect1_dropShadow_589_437" result="shape"/>
</filter>
<filter id="filter1_d_589_437" x="0.800278" y="0.800278" width="463.533" height="366.39" filterUnits="userSpaceOnUse" color-interpolation-filters="sRGB">
<feFlood flood-opacity="0" result="BackgroundImageFix"/>
<feColorMatrix in="SourceAlpha" type="matrix" values="0 0 0 0 0 0 0 0 0 0 0 0 0 0 0 0 0 0 127 0" result="hardAlpha"/>
<feOffset dx="17.0666" dy="17.0666"/>
<feGaussianBlur stdDeviation="34.1331"/>
<feComposite in2="hardAlpha" operator="out"/>
<feColorMatrix type="matrix" values="0 0 0 0 0.105882 0 0 0 0 0.137255 0 0 0 0 0.239216 0 0 0 0.05 0"/>
<feBlend mode="normal" in2="BackgroundImageFix" result="effect1_dropShadow_589_437"/>
<feBlend mode="normal" in="SourceGraphic" in2="effect1_dropShadow_589_437" result="shape"/>
</filter>
<filter id="filter2_d_589_437" x="46.0105" y="82.1189" width="365.805" height="257.255" filterUnits="userSpaceOnUse" color-interpolation-filters="sRGB">
<feFlood flood-opacity="0" result="BackgroundImageFix"/>
<feColorMatrix in="SourceAlpha" type="matrix" values="0 0 0 0 0 0 0 0 0 0 0 0 0 0 0 0 0 0 127 0" result="hardAlpha"/>
<feOffset dx="13.4132" dy="13.4132"/>
<feGaussianBlur stdDeviation="26.8264"/>
<feComposite in2="hardAlpha" operator="out"/>
<feColorMatrix type="matrix" values="0 0 0 0 0.105882 0 0 0 0 0.137255 0 0 0 0 0.239216 0 0 0 0.05 0"/>
<feBlend mode="normal" in2="BackgroundImageFix" result="effect1_dropShadow_589_437"/>
<feBlend mode="normal" in="SourceGraphic" in2="effect1_dropShadow_589_437" result="shape"/>
</filter>
<filter id="filter3_d_589_437" x="27.7605" y="52.8874" width="402.305" height="129.292" filterUnits="userSpaceOnUse" color-interpolation-filters="sRGB">
<feFlood flood-opacity="0" result="BackgroundImageFix"/>
<feColorMatrix in="SourceAlpha" type="matrix" values="0 0 0 0 0 0 0 0 0 0 0 0 0 0 0 0 0 0 127 0" result="hardAlpha"/>
<feOffset dx="13.4132" dy="13.4132"/>
<feGaussianBlur stdDeviation="26.8264"/>
<feComposite in2="hardAlpha" operator="out"/>
<feColorMatrix type="matrix" values="0 0 0 0 0.105882 0 0 0 0 0.137255 0 0 0 0 0.239216 0 0 0 0.05 0"/>
<feBlend mode="normal" in2="BackgroundImageFix" result="effect1_dropShadow_589_437"/>
<feBlend mode="normal" in="SourceGraphic" in2="effect1_dropShadow_589_437" result="shape"/>
</filter>
<filter id="filter4_d_589_437" x="313" y="135.937" width="66" height="65.9839" filterUnits="userSpaceOnUse" color-interpolation-filters="sRGB">
<feFlood flood-opacity="0" result="BackgroundImageFix"/>
<feColorMatrix in="SourceAlpha" type="matrix" values="0 0 0 0 0 0 0 0 0 0 0 0 0 0 0 0 0 0 127 0" result="hardAlpha"/>
<feOffset dx="2" dy="2"/>
<feGaussianBlur stdDeviation="10"/>
<feComposite in2="hardAlpha" operator="out"/>
<feColorMatrix type="matrix" values="0 0 0 0 0.105882 0 0 0 0 0.137255 0 0 0 0 0.239216 0 0 0 0.07 0"/>
<feBlend mode="normal" in2="BackgroundImageFix" result="effect1_dropShadow_589_437"/>
<feBlend mode="normal" in="SourceGraphic" in2="effect1_dropShadow_589_437" result="shape"/>
</filter>
<filter id="filter5_d_589_437" x="57" y="215.04" width="66" height="65.9839" filterUnits="userSpaceOnUse" color-interpolation-filters="sRGB">
<feFlood flood-opacity="0" result="BackgroundImageFix"/>
<feColorMatrix in="SourceAlpha" type="matrix" values="0 0 0 0 0 0 0 0 0 0 0 0 0 0 0 0 0 0 127 0" result="hardAlpha"/>
<feOffset dx="2" dy="2"/>
<feGaussianBlur stdDeviation="10"/>
<feComposite in2="hardAlpha" operator="out"/>
<feColorMatrix type="matrix" values="0 0 0 0 0.105882 0 0 0 0 0.137255 0 0 0 0 0.239216 0 0 0 0.07 0"/>
<feBlend mode="normal" in2="BackgroundImageFix" result="effect1_dropShadow_589_437"/>
<feBlend mode="normal" in="SourceGraphic" in2="effect1_dropShadow_589_437" result="shape"/>
</filter>
<filter id="filter6_d_589_437" x="248" y="241.024" width="66" height="65.9839" filterUnits="userSpaceOnUse" color-interpolation-filters="sRGB">
<feFlood flood-opacity="0" result="BackgroundImageFix"/>
<feColorMatrix in="SourceAlpha" type="matrix" values="0 0 0 0 0 0 0 0 0 0 0 0 0 0 0 0 0 0 127 0" result="hardAlpha"/>
<feOffset dx="2" dy="2"/>
<feGaussianBlur stdDeviation="10"/>
<feComposite in2="hardAlpha" operator="out"/>
<feColorMatrix type="matrix" values="0 0 0 0 0.105882 0 0 0 0 0.137255 0 0 0 0 0.239216 0 0 0 0.07 0"/>
<feBlend mode="normal" in2="BackgroundImageFix" result="effect1_dropShadow_589_437"/>
<feBlend mode="normal" in="SourceGraphic" in2="effect1_dropShadow_589_437" result="shape"/>
</filter>
<filter id="filter7_d_589_437" x="248" y="241.024" width="66" height="65.9839" filterUnits="userSpaceOnUse" color-interpolation-filters="sRGB">
<feFlood flood-opacity="0" result="BackgroundImageFix"/>
<feColorMatrix in="SourceAlpha" type="matrix" values="0 0 0 0 0 0 0 0 0 0 0 0 0 0 0 0 0 0 127 0" result="hardAlpha"/>
<feOffset dx="2" dy="2"/>
<feGaussianBlur stdDeviation="10"/>
<feComposite in2="hardAlpha" operator="out"/>
<feColorMatrix type="matrix" values="0 0 0 0 0.105882 0 0 0 0 0.137255 0 0 0 0 0.239216 0 0 0 0.07 0"/>
<feBlend mode="normal" in2="BackgroundImageFix" result="effect1_dropShadow_589_437"/>
<feBlend mode="normal" in="SourceGraphic" in2="effect1_dropShadow_589_437" result="shape"/>
</filter>
</defs>
</svg>
