<svg width="74" height="74" viewBox="0 0 74 74" fill="none" xmlns="http://www.w3.org/2000/svg">
<path d="M37.3717 0.738892C37.3717 0.738892 58.9082 -0.224076 70.3264 21.3452H35.5392C35.5392 21.3452 28.9742 21.1344 23.3662 29.0701C21.7552 32.4008 20.0236 35.8319 21.9668 42.5938C19.1675 37.8684 7.10547 16.9412 7.10547 16.9412C7.10547 16.9412 15.6134 1.5916 37.3715 0.738892H37.3717Z" fill="#EF3F36"/>
<path d="M69.2065 55.4955C69.2065 55.4955 59.2687 74.5668 34.8223 73.6237C37.8429 68.4169 52.2207 43.6071 52.2207 43.6071C52.2207 43.6071 55.6945 38.0492 51.5965 29.2409C49.5121 26.1811 47.3876 22.9808 40.5412 21.2751C46.0488 21.2252 70.2639 21.2751 70.2639 21.2751C70.2639 21.2751 79.3354 36.2937 69.2065 55.4955Z" fill="#FCD900"/>
<path d="M5.6839 55.6458C5.6839 55.6458 -5.92526 37.5374 7.12357 16.9111C10.1342 22.118 24.512 46.9278 24.512 46.9278C24.512 46.9278 27.6132 52.7064 37.3092 53.5688C41.0046 53.2982 44.8507 53.0674 49.7644 48.0212C47.0555 52.7968 34.9025 73.6638 34.9025 73.6638C34.9025 73.6638 17.3028 73.9849 5.68362 55.6458H5.6839Z" fill="#61BC5B"/>
<path d="M34.8145 73.804L39.7076 53.4586C39.7076 53.4586 45.0843 53.037 49.5952 48.1113C46.7959 53.0173 34.8145 73.804 34.8145 73.804Z" fill="#61BC5B"/>
<path d="M70.2537 21.2849L50.1063 27.1738C50.1063 27.1738 47.0657 22.7294 40.5312 21.2849C46.1999 21.2547 70.2537 21.2849 70.2537 21.2849Z" fill="#FCD900"/>
<path d="M21.5742 41.8515C18.7447 36.9657 7.10547 16.9414 7.10547 16.9414L22.0272 31.6486C22.0272 31.6486 20.4966 34.7888 21.0707 39.2831L21.574 41.8515H21.5742Z" fill="#EF3F36"/>
<path d="M20.3984 37.338C20.3984 27.9309 28.0254 20.3018 37.4298 20.3018C46.8343 20.3018 54.4612 27.9309 54.4612 37.338C54.4612 46.7455 46.8343 54.3743 37.4298 54.3743C28.0254 54.3638 20.3984 46.7455 20.3984 37.338Z" fill="white"/>
<path d="M23.2969 37.3385C23.2969 29.5363 29.6188 23.2021 37.4295 23.2021C45.2294 23.2021 51.5618 29.5259 51.5618 37.3385C51.5618 45.1409 45.2401 51.4751 37.4295 51.4751C29.6293 51.4751 23.2969 45.1409 23.2969 37.3385Z" fill="#4285F4"/>
</svg>
