<svg width="52" height="58" viewBox="0 0 52 58" fill="none" xmlns="http://www.w3.org/2000/svg">
<path d="M6.48047 36.2607C6.48047 37.1077 6.14402 37.9199 5.54515 38.5188C4.94628 39.1177 4.13404 39.4541 3.28711 39.4541C2.44018 39.4541 1.62793 39.1177 1.02906 38.5188C0.430193 37.9199 0.09375 37.1077 0.09375 36.2607V21.8906C0.09375 21.0437 0.430193 20.2315 1.02906 19.6326C1.62793 19.0337 2.44018 18.6973 3.28711 18.6973C4.13404 18.6973 4.94628 19.0337 5.54515 19.6326C6.14402 20.2315 6.48047 21.0437 6.48047 21.8906V36.2607ZM51.1875 36.2607C51.1875 37.1077 50.851 37.9199 50.2522 38.5188C49.6533 39.1177 48.8411 39.4541 47.9941 39.4541C47.1472 39.4541 46.335 39.1177 45.7361 38.5188C45.1372 37.9199 44.8008 37.1077 44.8008 36.2607V21.8906C44.8008 21.0437 45.1372 20.2315 45.7361 19.6326C46.335 19.0337 47.1472 18.6973 47.9941 18.6973C48.8411 18.6973 49.6533 19.0337 50.2522 19.6326C50.851 20.2315 51.1875 21.0437 51.1875 21.8906V36.2607ZM22.4473 53.8226C22.4473 54.6695 22.1108 55.4818 21.5119 56.0807C20.9131 56.6795 20.1008 57.016 19.2539 57.016C18.407 57.016 17.5947 56.6795 16.9959 56.0807C16.397 55.4818 16.0605 54.6695 16.0605 53.8226V39.4525C16.0605 38.6056 16.397 37.7933 16.9959 37.1945C17.5947 36.5956 18.407 36.2591 19.2539 36.2591C20.1008 36.2591 20.9131 36.5956 21.5119 37.1945C22.1108 37.7933 22.4473 38.6056 22.4473 39.4525V53.8226ZM35.2207 53.8226C35.2207 54.6695 34.8843 55.4818 34.2854 56.0807C33.6865 56.6795 32.8743 57.016 32.0273 57.016C31.1804 57.016 30.3682 56.6795 29.7693 56.0807C29.1704 55.4818 28.834 54.6695 28.834 53.8226V39.4525C28.834 38.6056 29.1704 37.7933 29.7693 37.1945C30.3682 36.5956 31.1804 36.2591 32.0273 36.2591C32.8743 36.2591 33.6865 36.5956 34.2854 37.1945C34.8843 37.7933 35.2207 38.6056 35.2207 39.4525V53.8226Z" fill="#61BC5B"/>
<path d="M9.67383 18.6979V42.6465C9.67383 43.4934 10.0103 44.3056 10.6091 44.9045C11.208 45.5034 12.0203 45.8398 12.8672 45.8398H38.4141C39.261 45.8398 40.0732 45.5034 40.6721 44.9045C41.271 44.3056 41.6074 43.4934 41.6074 42.6465V18.6979H9.67383ZM25.6406 2.72949C16.0605 2.72949 10.2247 8.54939 9.67383 15.5029H41.6074C41.055 8.54939 35.2207 2.72949 25.6406 2.72949ZM19.2539 11.6677C18.8304 11.6677 18.4243 11.4995 18.1249 11.2C17.8254 10.9006 17.6572 10.4945 17.6572 10.071C17.6572 9.64756 17.8254 9.24144 18.1249 8.942C18.4243 8.64256 18.8304 8.47434 19.2539 8.47434C19.6774 8.47434 20.0835 8.64256 20.3829 8.942C20.6824 9.24144 20.8506 9.64756 20.8506 10.071C20.8506 10.4945 20.6824 10.9006 20.3829 11.2C20.0835 11.4995 19.6774 11.6677 19.2539 11.6677ZM32.0273 11.6677C31.6039 11.6677 31.1977 11.4995 30.8983 11.2C30.5989 10.9006 30.4307 10.4945 30.4307 10.071C30.4307 9.64756 30.5989 9.24144 30.8983 8.942C31.1977 8.64256 31.6039 8.47434 32.0273 8.47434C32.4508 8.47434 32.8569 8.64256 33.1564 8.942C33.4558 9.24144 33.624 9.64756 33.624 10.071C33.624 10.4945 33.4558 10.9006 33.1564 11.2C32.8569 11.4995 32.4508 11.6677 32.0273 11.6677Z" fill="#61BC5B"/>
<path d="M16.0605 1.13281L18.1889 4.4571M35.2207 1.13281L32.5606 5.12291L35.2207 1.13281Z" stroke="#61BC5B" stroke-width="2" stroke-linecap="round"/>
</svg>
