<svg width="88" height="88" viewBox="0 0 88 88" fill="none" xmlns="http://www.w3.org/2000/svg">
<g filter="url(#filter0_d_589_684)">
<path d="M54.4073 6.67773C52.7299 8.57664 51.9437 12.8302 53.6472 17.1597C55.3508 21.4892 57.9717 20.5524 59.5966 24.9579C61.7458 30.7812 60.7498 38.6046 60.7498 38.6046C60.7498 38.6046 63.3445 45.8458 65.1529 38.1489C69.1629 23.6919 54.4073 10.2477 54.4073 6.67773Z" fill="url(#paint0_radial_589_684)"/>
<path d="M33.8632 66.7087C51.1348 66.7087 65.1042 53.1378 65.1042 36.3768C65.1042 19.6158 51.1086 6.07031 33.8632 6.07031C16.6178 6.07031 2.64847 19.6411 2.64847 36.3768C2.62227 53.1378 16.6178 66.7087 33.8632 66.7087Z" fill="url(#paint1_radial_589_684)"/>
<path d="M57.2677 55.0872C56.5863 55.5429 55.8786 55.948 55.1448 56.3278C56.1145 54.9353 57.0318 53.5174 57.8443 52.0489C58.4995 51.34 59.1285 50.6564 59.6265 49.8969C59.8624 49.5171 60.1507 49.0867 60.439 48.555C62.195 45.4914 64.1344 40.5542 64.1868 35.4905V35.1107C64.1868 33.8448 64.0558 32.5535 63.7937 31.3129C63.8199 31.4142 63.8199 31.5155 63.8461 31.6167C63.8199 31.5408 63.8199 31.4648 63.7937 31.3889C63.8199 31.5155 63.8461 31.6674 63.8723 31.794C64.2393 34.7309 63.9772 37.592 62.6929 39.7187C62.6667 39.744 62.6405 39.7694 62.6405 39.82C63.2957 36.6045 63.5316 33.0599 62.7978 29.5153C62.7978 29.5153 62.5095 27.7936 60.3079 22.5526C59.0499 19.5397 56.7959 17.0585 54.8303 15.2608C53.1005 13.1847 51.5018 11.7922 50.6369 10.906C48.8284 9.05775 48.0684 7.66522 47.7539 6.77907C47.4918 6.65247 44.006 3.38636 43.7439 3.25977C42.2238 5.53845 37.48 12.6277 39.734 19.2359C40.7561 22.2488 43.3508 25.363 46.0765 27.11C46.2076 27.2366 47.7015 28.8064 48.4091 32.351C49.143 36.0222 48.7498 38.8579 47.2559 43.0861C45.4737 46.7826 40.9134 50.4539 36.6413 50.8336C27.5207 51.6438 24.1659 46.4029 24.1659 46.4029C27.4158 47.6688 31.0326 47.3903 33.2342 46.099C35.4357 44.7825 36.7724 43.795 37.8731 44.1748C38.9477 44.5546 39.7864 43.4406 39.0263 42.2759C37.8207 40.4783 35.6192 39.5668 33.4439 39.9213C31.2423 40.2757 29.198 41.9721 26.3151 40.3264C26.1316 40.2251 25.9481 40.0985 25.7647 39.9719C25.5812 39.8453 26.3937 40.1491 26.184 40.0226C25.6336 39.7187 24.6115 39.0858 24.3756 38.8579C24.3232 38.8073 24.8211 39.0098 24.7687 38.9592C22.0692 36.8071 22.4099 35.3386 22.4886 34.4271C22.5672 33.6929 23.0389 32.7561 23.8776 32.3763C24.2708 32.5788 24.5328 32.7561 24.5328 32.7561C24.5328 32.7561 24.3494 32.4269 24.2708 32.2497C24.297 32.2244 24.3232 32.2497 24.3756 32.2244C24.7163 32.3763 25.4239 32.7814 25.8171 33.0093C26.315 33.3384 26.4723 33.6422 26.4723 33.6422C26.4723 33.6422 26.6033 33.5663 26.4985 33.2878C26.4723 33.1612 26.315 32.7814 25.8171 32.4016H25.8433C26.1316 32.5535 26.4199 32.7561 26.682 32.9586C26.813 32.4776 27.0751 31.9712 27.0227 31.0597C26.9965 30.4268 26.9965 30.2495 26.8916 29.9963C26.7868 29.7938 26.9441 29.6925 27.1275 29.9204C27.1013 29.7432 27.0489 29.5659 26.9703 29.414V29.3887C27.2062 28.6291 31.7665 26.6289 32.1072 26.4011C32.6576 26.0213 33.1031 25.5402 33.4439 24.9832C33.7059 24.6035 33.8894 24.0464 33.9418 23.2109C33.968 22.6033 33.6797 22.1982 29.0408 21.7424C27.7827 21.6158 27.0227 20.7297 26.6033 19.9195C26.5247 19.7423 26.4461 19.5903 26.3675 19.4131C26.2888 19.2359 26.2364 19.0333 26.184 18.8308C26.9441 16.7293 28.2021 14.957 30.0891 13.6151C30.194 13.5138 29.6698 13.6404 29.7746 13.5392C29.9057 13.4379 30.6657 13.1341 30.823 13.0581C31.0064 12.9822 30.0629 12.5771 29.2242 12.6783C28.3855 12.7796 28.2021 12.8809 27.7303 13.0581C27.9138 12.8809 28.5166 12.6277 28.3855 12.653C27.4682 12.7796 26.3413 13.3113 25.3715 13.8936C25.3715 13.7924 25.3977 13.6911 25.4239 13.5898C24.9784 13.767 23.8514 14.5266 23.5369 15.1596C23.5631 15.033 23.5631 14.9064 23.5631 14.7798C23.2224 15.0583 22.9079 15.3621 22.6458 15.7166L22.4886 15.7672C19.8677 14.7545 17.5351 14.6785 15.5956 15.1342C15.1763 14.7291 14.9666 15.033 13.9707 12.9568C13.8921 12.8302 14.0231 13.0834 13.9707 12.9568C13.8134 12.5517 14.0755 13.4885 13.9707 12.9568C12.3457 14.2228 10.1966 15.6406 9.14826 16.6281C9.14826 16.6787 10.3539 16.2989 9.14826 16.6281C8.72892 16.7546 8.75512 16.9825 8.70271 19.1852C8.6765 19.3625 8.70271 19.5397 8.6765 19.6916C7.83781 20.7044 7.28743 21.5652 7.07776 22.0209C6.0032 23.7933 4.8238 26.5783 3.69682 30.9585C4.19479 29.7685 4.79759 28.6291 5.50523 27.5404C4.56171 29.8697 3.6444 33.541 3.46094 39.1617C3.69682 37.9971 3.98511 36.8577 4.35204 35.7184C4.11616 40.4023 4.95484 45.061 6.78946 49.3905C7.44468 50.9349 8.51924 53.2896 10.3801 55.8721C16.1984 61.7713 24.3756 65.4426 33.4439 65.4426C42.9053 65.4426 51.4231 61.4422 57.2677 55.0872Z" fill="url(#paint2_linear_589_684)"/>
<path d="M50.2405 59.3654C61.6938 58.0742 66.7783 46.6807 60.2523 46.4529C54.3815 46.2756 44.8153 59.9731 50.2405 59.3654Z" fill="url(#paint3_radial_589_684)"/>
<path d="M61.0963 44.1243C68.9851 39.6935 66.9146 30.123 66.9146 30.123C66.9146 30.123 63.8744 33.5411 61.8039 38.9846C59.7858 44.3775 56.3525 46.8081 61.0963 44.1243Z" fill="url(#paint4_radial_589_684)"/>
<path d="M36.0643 65.0364C47.072 68.4291 56.5072 60.0487 50.6889 57.2636C45.3947 54.757 30.8488 63.4414 36.0643 65.0364Z" fill="url(#paint5_radial_589_684)"/>
<path d="M61.9319 48.2012C62.194 47.8467 62.5609 46.6821 62.8754 46.1504C64.8149 43.1121 64.8411 40.7069 64.8411 40.6562C66.0205 35.0101 65.9157 32.6808 65.1818 28.4273C64.6052 24.9839 62.063 20.0468 59.8614 17.6921C57.6075 15.2362 59.18 16.0464 57.0047 14.2488C55.0914 12.198 53.2044 10.1471 52.2084 9.33694C44.87 3.41236 45.0272 2.14642 45.1845 1.94387L45.0796 2.04515C45.001 1.71601 44.9224 1.4375 44.9224 1.4375C44.9224 1.4375 40.8862 5.28595 40.0475 11.7422C39.4972 15.9451 41.1221 20.3506 43.5071 23.161C44.7389 24.6295 46.128 25.946 47.6481 27.1107C49.4303 29.5919 50.4262 32.6555 50.4262 35.9469C50.4262 44.2008 43.5071 50.8597 34.963 50.8597C33.8098 50.8597 32.6304 50.7331 31.5035 50.4799C27.4673 49.7456 25.1609 47.7708 23.9815 46.4289C23.3263 45.6693 23.038 45.1123 23.038 45.1123C26.6548 46.3529 30.6386 46.0997 33.076 44.8085C35.5134 43.4919 37.0073 42.5298 38.2129 42.9096C39.3923 43.2894 40.3358 42.1753 39.4972 41.036C38.6585 39.8967 36.5094 38.2509 33.3119 38.7067C30.8745 39.0611 28.6205 40.7322 25.423 39.1118C25.2133 39.0105 25.0037 38.8839 24.8202 38.7826C24.6105 38.656 25.5016 38.9599 25.292 38.8333C24.663 38.5294 23.5622 37.8965 23.2739 37.6686C23.2215 37.618 23.7457 37.8205 23.7194 37.7699C20.7316 35.6431 21.0986 34.1999 21.1772 33.2885C21.2558 32.5542 21.8062 31.6427 22.7235 31.263C23.1691 31.4655 23.4311 31.6427 23.4311 31.6427C23.4311 31.6427 23.2477 31.3136 23.1428 31.1364C23.1691 31.111 23.2215 31.1364 23.2477 31.1111C23.6146 31.263 24.4271 31.6427 24.8464 31.8959C25.3968 32.2251 25.5803 32.5289 25.5803 32.5289C25.5803 32.5289 25.7375 32.4529 25.6065 32.1744C25.5541 32.0478 25.3968 31.6681 24.8464 31.2883H24.8726C25.1871 31.4402 25.5016 31.6427 25.7899 31.8453C25.9472 31.3642 26.2093 30.8579 26.1569 29.9464C26.1307 29.3134 26.1307 29.1362 25.9996 28.9083C25.8948 28.7058 26.052 28.6045 26.2617 28.8324C26.2355 28.6551 26.1569 28.5032 26.0782 28.326V28.3007C26.3403 27.5411 31.3986 25.5662 31.7656 25.3384C32.3684 24.9839 32.8663 24.5029 33.2595 23.9459C33.5478 23.5661 33.7574 23.0091 33.8098 22.1735C33.836 21.7938 33.705 21.5153 32.3684 21.2114C31.5559 21.0342 30.3241 20.8823 28.3846 20.7051C26.9955 20.5785 26.1569 19.7176 25.6851 18.9074C25.6065 18.7302 25.5016 18.5783 25.423 18.4264C25.3444 18.2491 25.2658 18.0466 25.2133 17.8694C26.052 15.7426 27.5721 13.945 29.5378 12.7043C29.6426 12.6031 29.0923 12.7297 29.1971 12.6284C29.3281 12.5271 30.193 12.2233 30.3503 12.1473C30.5599 12.0714 29.5116 11.6916 28.5681 11.7675C27.6246 11.8688 27.4411 11.9448 26.9169 12.1473C27.1266 11.9701 27.7818 11.7422 27.6246 11.7422C26.681 11.8435 25.423 12.3499 24.3485 12.9322C24.3485 12.8309 24.3747 12.7297 24.4009 12.6284C23.9029 12.8056 22.6711 13.5652 22.3042 14.1981C22.3304 14.0715 22.3304 13.945 22.3304 13.8437C21.9635 14.1222 21.5965 14.426 21.3082 14.7805L21.282 14.8058C18.3728 13.793 15.8044 13.7171 13.6553 14.1728C13.1835 13.7677 12.4234 13.1348 11.3489 11.0839C11.2702 10.9573 11.244 11.3371 11.1916 11.2105C10.7723 10.2737 10.5102 8.72929 10.5626 7.66591C10.5626 7.66591 9.69772 8.04569 8.99008 9.64077C8.85903 9.91927 8.78041 10.0965 8.67557 10.2484C8.62315 10.2991 8.7542 9.71672 8.7542 9.76736C8.62315 9.96991 8.30865 10.2484 8.1776 10.6282C8.07277 10.9067 7.94173 11.0586 7.8631 11.3878L7.83689 11.4131C7.83689 11.3118 7.8631 11.008 7.83689 11.0586C7.49617 11.7169 7.20788 12.4005 6.972 13.0841C6.57887 14.2994 6.13332 15.9705 6.05469 18.1479C6.02848 18.2998 6.05469 18.5023 6.02848 18.6542C5.11117 19.667 4.48216 20.5278 4.24628 20.9582C3.06688 22.7306 1.75644 25.465 0.498416 29.8198C1.0488 28.6298 1.73023 27.4905 2.5165 26.4271C1.46814 28.7311 0.445999 32.377 0.236328 37.9471C0.498416 36.7825 0.812922 35.6431 1.20605 34.5291C1.02259 38.2509 1.46814 42.8843 3.90556 48.0999C5.34705 51.1635 8.67557 57.3919 16.8265 62.2531C16.8265 62.2531 19.6047 64.2533 24.3485 65.7471C24.6892 65.8737 25.0561 66.0003 25.423 66.1015C25.3182 66.0509 25.1871 66.0003 25.0823 65.9749C28.2536 66.8864 31.5297 67.3675 34.8582 67.3675C47.1763 67.3675 50.8194 62.5822 50.8194 62.5822L50.7932 62.6076C50.9766 62.4556 51.1339 62.2784 51.2911 62.1265C49.3517 63.8988 44.8962 64.0254 43.245 63.8988C46.0756 63.0886 47.9364 62.405 51.5532 61.0884C51.9726 60.9365 52.4181 60.7593 52.8637 60.5567L52.9947 60.4808C53.0733 60.4301 53.1782 60.4048 53.2568 60.3542C55.0128 59.544 56.6902 58.5566 58.2103 57.3666C61.8533 54.5562 62.6396 51.8218 63.0589 50.0241C63.0065 50.2014 62.823 50.6065 62.692 50.8597C61.7485 52.7839 59.678 53.9992 57.424 55.0119C58.4986 53.6447 59.4945 52.2269 60.4118 50.7584C61.1457 50.0495 61.3553 48.9354 61.9319 48.2012Z" fill="url(#paint6_radial_589_684)"/>
<path d="M57.5022 54.9098C58.9961 53.3401 60.3065 51.5171 61.3286 49.4663C63.9233 44.2 67.9333 35.4144 64.7882 26.2743C62.2984 19.0332 58.865 15.0834 54.5143 11.2097C47.438 4.93063 45.4723 2.12026 45.4723 0.449219C45.4723 0.449219 37.2951 9.23482 40.8333 18.4255C44.3715 27.6162 51.6314 27.2618 56.4276 36.8322C62.0887 48.0991 51.8672 60.404 43.4018 63.8473C43.926 63.746 62.1935 59.7457 63.1633 49.6435C63.1108 49.8207 62.6915 52.6311 57.5022 54.9098Z" fill="url(#paint7_radial_589_684)"/>
<path d="M33.8107 22.1723C33.8369 21.5646 33.5224 21.1848 28.4117 20.7038C26.3149 20.5266 25.5025 18.653 25.2666 17.8428C24.5328 19.7164 24.2182 21.6912 24.3755 24.0712C24.4803 25.6409 25.5811 27.312 26.0791 28.2741C26.0791 28.2741 26.1839 28.1222 26.2363 28.0715C27.2061 27.0841 31.2946 25.5903 31.6878 25.3878C32.1333 25.1346 33.7583 23.9952 33.8107 22.1723Z" fill="url(#paint8_linear_589_684)"/>
<path d="M11.3494 11.0831C11.2708 10.9565 11.2446 11.3363 11.1922 11.2097C10.7728 10.2729 10.5107 8.75374 10.5894 7.66504C10.5894 7.66504 9.72447 8.04482 9.01683 9.6399C8.88578 9.91841 8.80716 10.0956 8.70232 10.2476C8.6499 10.2982 8.78095 9.71586 8.78095 9.76649C8.6499 9.96904 8.3354 10.2475 8.20435 10.602C8.09952 10.8805 7.96847 11.0577 7.88985 11.4122C7.86364 11.5135 7.91606 10.9818 7.88985 11.0577C6.21248 14.172 5.89797 18.8812 6.08144 18.6787C9.64584 15.0075 13.7082 14.1466 13.7082 14.1466C13.2102 13.8428 12.2667 12.9313 11.3494 11.0831Z" fill="url(#paint9_linear_589_684)"/>
<path d="M24.8187 49.4156C19.9176 47.3901 14.3351 44.5291 14.5448 38.0475C14.8331 29.515 22.8006 31.1861 22.8006 31.1861C22.5123 31.262 21.6998 31.819 21.4115 32.4014C21.1232 33.1356 20.5728 34.8067 22.224 36.5537C24.8449 39.2881 16.8512 43.0352 29.1693 50.1245C29.4838 50.2764 26.2864 50.0232 24.8187 49.4156Z" fill="url(#paint10_linear_589_684)"/>
<path d="M23.09 45.1626C26.5758 46.3273 30.6119 46.1247 33.0494 44.8335C34.6743 43.9473 36.771 42.5548 38.029 42.9092C36.9283 42.4788 36.0896 42.2763 35.0674 42.251C34.884 42.251 34.7005 42.251 34.517 42.2256C34.1501 42.2256 33.7832 42.251 33.4163 42.2763C32.7873 42.3269 32.1058 42.7067 31.4768 42.6561C31.4506 42.6561 32.0796 42.4029 32.0272 42.4029C31.6865 42.4788 31.3196 42.4788 30.9527 42.5295C30.7168 42.5548 30.5071 42.5801 30.245 42.6054C22.9852 43.1878 16.8785 38.8076 16.8785 38.8076C16.3543 40.4787 19.2111 43.846 23.09 45.1626Z" fill="url(#paint11_linear_589_684)"/>
<path d="M57.4763 54.961C64.8148 47.9984 68.5102 39.5672 66.9377 30.0727C66.9377 30.0727 67.5667 34.9339 65.1817 39.8964C66.3349 35.0352 66.466 29.0093 63.4257 22.7556C59.3896 14.4257 52.7325 10.0203 50.1903 8.1973C46.3376 5.41224 44.7388 2.60186 44.7126 2.01953C43.5594 4.29822 40.0737 12.0964 44.3457 18.8059C48.3294 25.1102 54.6196 26.9585 58.9964 32.7312C67.1212 43.3903 57.4763 54.961 57.4763 54.961Z" fill="url(#paint12_linear_589_684)"/>
<path d="M56.4296 36.8581C53.8612 31.7437 50.6637 29.5156 47.6497 27.1104C47.9904 27.5914 48.0952 27.7433 48.2787 28.0725C50.952 30.8069 54.8571 37.491 52.0265 45.8968C46.6537 61.6957 25.2149 54.252 22.9609 52.1759C23.8782 61.316 39.7084 65.6961 50.0347 59.7715C55.8792 54.3533 60.623 45.2386 56.4296 36.8581Z" fill="url(#paint13_linear_589_684)"/>
</g>
<defs>
<filter id="filter0_d_589_684" x="0.236328" y="0.449219" width="87.0591" height="86.9182" filterUnits="userSpaceOnUse" color-interpolation-filters="sRGB">
<feFlood flood-opacity="0" result="BackgroundImageFix"/>
<feColorMatrix in="SourceAlpha" type="matrix" values="0 0 0 0 0 0 0 0 0 0 0 0 0 0 0 0 0 0 127 0" result="hardAlpha"/>
<feOffset dx="10" dy="10"/>
<feGaussianBlur stdDeviation="5"/>
<feComposite in2="hardAlpha" operator="out"/>
<feColorMatrix type="matrix" values="0 0 0 0 0 0 0 0 0 0 0 0 0 0 0 0 0 0 0.02 0"/>
<feBlend mode="normal" in2="BackgroundImageFix" result="effect1_dropShadow_589_684"/>
<feBlend mode="normal" in="SourceGraphic" in2="effect1_dropShadow_589_684" result="shape"/>
</filter>
<radialGradient id="paint0_radial_589_684" cx="0" cy="0" r="1" gradientUnits="userSpaceOnUse" gradientTransform="translate(66.055 21.1178) rotate(2.18361) scale(24.1343 34.368)">
<stop offset="0.1" stop-color="#FFEA00"/>
<stop offset="0.17" stop-color="#FFDE00"/>
<stop offset="0.28" stop-color="#FFBF00"/>
<stop offset="0.43" stop-color="#FF8E00"/>
<stop offset="0.77" stop-color="#FF272D"/>
<stop offset="0.87" stop-color="#E0255A"/>
<stop offset="0.95" stop-color="#CC2477"/>
<stop offset="1" stop-color="#C42482"/>
</radialGradient>
<radialGradient id="paint1_radial_589_684" cx="0" cy="0" r="1" gradientUnits="userSpaceOnUse" gradientTransform="translate(44.1394 10.7988) scale(68.4937 66.1675)">
<stop stop-color="#00CCDA"/>
<stop offset="0.22" stop-color="#0083FF"/>
<stop offset="0.26" stop-color="#007AF9"/>
<stop offset="0.33" stop-color="#005FE7"/>
<stop offset="0.44" stop-color="#2639AD"/>
<stop offset="0.52" stop-color="#401E84"/>
<stop offset="0.57" stop-color="#4A1475"/>
</radialGradient>
<linearGradient id="paint2_linear_589_684" x1="38.2776" y1="50.0199" x2="25.6321" y2="7.20034" gradientUnits="userSpaceOnUse">
<stop stop-color="#000F43" stop-opacity="0.4"/>
<stop offset="0.48" stop-color="#001962" stop-opacity="0.17"/>
<stop offset="1" stop-color="#002079" stop-opacity="0"/>
</linearGradient>
<radialGradient id="paint3_radial_589_684" cx="0" cy="0" r="1" gradientUnits="userSpaceOnUse" gradientTransform="translate(68.1689 44.9634) rotate(5.42779) scale(23.0178 22.2503)">
<stop stop-color="#FFEA00"/>
<stop offset="0.5" stop-color="#FF272D"/>
<stop offset="1" stop-color="#C42482"/>
</radialGradient>
<radialGradient id="paint4_radial_589_684" cx="0" cy="0" r="1" gradientUnits="userSpaceOnUse" gradientTransform="translate(68.2619 23.5415) rotate(5.4278) scale(38.4374 37.1558)">
<stop stop-color="#FFE900"/>
<stop offset="0.16" stop-color="#FFAF0E"/>
<stop offset="0.32" stop-color="#FF7A1B"/>
<stop offset="0.47" stop-color="#FF4E26"/>
<stop offset="0.62" stop-color="#FF2C2E"/>
<stop offset="0.76" stop-color="#FF1434"/>
<stop offset="0.89" stop-color="#FF0538"/>
<stop offset="1" stop-color="#FF0039"/>
</radialGradient>
<radialGradient id="paint5_radial_589_684" cx="0" cy="0" r="1" gradientUnits="userSpaceOnUse" gradientTransform="translate(70.1831 58.3211) rotate(5.4278) scale(35.2705 34.0944)">
<stop stop-color="#FF272D"/>
<stop offset="0.5" stop-color="#C42482"/>
<stop offset="0.99" stop-color="#620700"/>
</radialGradient>
<radialGradient id="paint6_radial_589_684" cx="0" cy="0" r="1" gradientUnits="userSpaceOnUse" gradientTransform="translate(50.5435 27.2388) scale(55.0481 53.1785)">
<stop offset="0.16" stop-color="#FFEA00"/>
<stop offset="0.23" stop-color="#FFDE00"/>
<stop offset="0.37" stop-color="#FFBF00"/>
<stop offset="0.54" stop-color="#FF8E00"/>
<stop offset="0.76" stop-color="#FF272D"/>
<stop offset="0.8" stop-color="#F92433"/>
<stop offset="0.84" stop-color="#E91C45"/>
<stop offset="0.89" stop-color="#CF0E62"/>
<stop offset="0.94" stop-color="#B5007F"/>
</radialGradient>
<radialGradient id="paint7_radial_589_684" cx="0" cy="0" r="1" gradientUnits="userSpaceOnUse" gradientTransform="translate(47.3868 2.57546) scale(62.7383 60.6076)">
<stop offset="0.28" stop-color="#FFEA00"/>
<stop offset="0.4" stop-color="#FFDD00"/>
<stop offset="0.63" stop-color="#FFBA00"/>
<stop offset="0.86" stop-color="#FF9100"/>
<stop offset="0.93" stop-color="#FF6711"/>
<stop offset="0.99" stop-color="#FF4A1D"/>
</radialGradient>
<linearGradient id="paint8_linear_589_684" x1="10.6671" y1="25.2723" x2="37.6457" y2="21.0076" gradientUnits="userSpaceOnUse">
<stop stop-color="#C42482" stop-opacity="0.5"/>
<stop offset="0.47" stop-color="#FF272D" stop-opacity="0.5"/>
<stop offset="0.49" stop-color="#FF2C2C" stop-opacity="0.51"/>
<stop offset="0.68" stop-color="#FF7A1A" stop-opacity="0.72"/>
<stop offset="0.83" stop-color="#FFB20D" stop-opacity="0.87"/>
<stop offset="0.94" stop-color="#FFD605" stop-opacity="0.96"/>
<stop offset="1" stop-color="#FFE302"/>
</linearGradient>
<linearGradient id="paint9_linear_589_684" x1="10.4633" y1="18.427" x2="7.82105" y2="8.596" gradientUnits="userSpaceOnUse">
<stop stop-color="#891551" stop-opacity="0.6"/>
<stop offset="1" stop-color="#C42482" stop-opacity="0"/>
</linearGradient>
<linearGradient id="paint10_linear_589_684" x1="15.6052" y1="32.1754" x2="21.1476" y2="40.1903" gradientUnits="userSpaceOnUse">
<stop offset="0.01" stop-color="#891551" stop-opacity="0.5"/>
<stop offset="0.48" stop-color="#FF272D" stop-opacity="0.5"/>
<stop offset="1" stop-color="#FF272D" stop-opacity="0"/>
</linearGradient>
<linearGradient id="paint11_linear_589_684" x1="26.9178" y1="45.8138" x2="27.4139" y2="40.7774" gradientUnits="userSpaceOnUse">
<stop stop-color="#C42482"/>
<stop offset="0.08" stop-color="#C42482" stop-opacity="0.81"/>
<stop offset="0.21" stop-color="#C42482" stop-opacity="0.57"/>
<stop offset="0.33" stop-color="#C42482" stop-opacity="0.36"/>
<stop offset="0.45" stop-color="#C42482" stop-opacity="0.2"/>
<stop offset="0.56" stop-color="#C42482" stop-opacity="0.09"/>
<stop offset="0.67" stop-color="#C42482" stop-opacity="0.02"/>
<stop offset="0.77" stop-color="#C42482" stop-opacity="0"/>
</linearGradient>
<linearGradient id="paint12_linear_589_684" x1="43.8716" y1="2.90923" x2="64.1723" y2="49.9001" gradientUnits="userSpaceOnUse">
<stop stop-color="#FFF14F"/>
<stop offset="0.27" stop-color="#FFEE4C"/>
<stop offset="0.45" stop-color="#FFE643"/>
<stop offset="0.61" stop-color="#FFD834"/>
<stop offset="0.76" stop-color="#FFC41E"/>
<stop offset="0.89" stop-color="#FFAB02"/>
<stop offset="0.9" stop-color="#FFA900"/>
<stop offset="0.95" stop-color="#FFA000"/>
<stop offset="1" stop-color="#FF9100"/>
</linearGradient>
<linearGradient id="paint13_linear_589_684" x1="48.1445" y1="29.6356" x2="38.5577" y2="56.2821" gradientUnits="userSpaceOnUse">
<stop stop-color="#FF8E00"/>
<stop offset="0.04" stop-color="#FF8E00" stop-opacity="0.86"/>
<stop offset="0.08" stop-color="#FF8E00" stop-opacity="0.73"/>
<stop offset="0.13" stop-color="#FF8E00" stop-opacity="0.63"/>
<stop offset="0.18" stop-color="#FF8E00" stop-opacity="0.56"/>
<stop offset="0.23" stop-color="#FF8E00" stop-opacity="0.51"/>
<stop offset="0.28" stop-color="#FF8E00" stop-opacity="0.5"/>
<stop offset="0.39" stop-color="#FF8E00" stop-opacity="0.48"/>
<stop offset="0.52" stop-color="#FF8E00" stop-opacity="0.42"/>
<stop offset="0.68" stop-color="#FF8E00" stop-opacity="0.31"/>
<stop offset="0.84" stop-color="#FF8E00" stop-opacity="0.17"/>
<stop offset="1" stop-color="#FF8E00" stop-opacity="0"/>
</linearGradient>
</defs>
</svg>
