<svg width="52" height="64" viewBox="0 0 52 64" fill="none" xmlns="http://www.w3.org/2000/svg">
<path d="M38.8677 0.064906C38.7331 -0.0855508 33.8829 0.124297 29.6622 4.70531C25.4414 9.28237 26.0908 14.5325 26.1858 14.6671C26.2808 14.8018 32.2041 15.0116 35.9853 9.68623C39.7665 4.36084 39.0024 0.219322 38.8677 0.064906ZM51.9892 46.5204C51.7991 46.1403 42.7836 41.6346 43.623 32.9714C44.4624 24.3043 50.2549 21.9287 50.346 21.6713C50.4371 21.4139 47.9823 18.5434 45.3809 17.0903C43.471 16.0658 41.3571 15.4788 39.1924 15.3719C38.7648 15.36 37.28 14.9958 34.2273 15.8312C32.216 16.3816 27.6825 18.1633 26.4352 18.2346C25.1841 18.3058 21.4623 16.1677 17.4593 15.6016C14.8976 15.1066 12.1814 16.1202 10.2374 16.9002C8.29728 17.6763 4.60712 19.8856 2.0256 25.7574C-0.555923 31.6252 0.794229 40.9219 1.76032 43.8122C2.72641 46.6986 4.23494 51.4301 6.80063 54.8827C9.08123 58.7787 12.1062 61.483 13.3693 62.4016C14.6323 63.3201 18.1958 63.9299 20.6664 62.6668C22.654 61.4473 26.2412 60.7465 27.6587 60.798C29.0722 60.8495 31.8596 61.4077 34.7143 62.9321C36.9751 63.7121 39.1132 63.3874 41.2552 62.5164C43.3973 61.6414 46.4975 58.3234 50.1164 51.5964C51.4903 48.4685 52.1159 46.7778 51.9892 46.5204Z" fill="#1B233D"/>
</svg>
