<svg width="85" height="86" viewBox="0 0 85 86" fill="none" xmlns="http://www.w3.org/2000/svg">
<g filter="url(#filter0_d_589_701)">
<path d="M58.2379 48.5637C57.3852 49.0078 56.5075 49.4026 55.6046 49.7233C52.7206 50.7842 49.6861 51.327 46.6014 51.327C34.7392 51.327 24.4068 43.3085 24.4068 32.9954C24.4318 30.1827 26.0118 27.5921 28.5197 26.2598C17.786 26.7039 15.0273 37.7078 15.0273 44.1473C15.0273 62.3803 32.1059 64.2308 35.7925 64.2308C37.7737 64.2308 40.7581 63.6633 42.5637 63.0958L42.8898 62.9971C49.8115 60.6532 55.6799 56.0642 59.5921 49.97C59.8931 49.5013 59.7426 48.9091 59.2912 48.6131C58.9652 48.4157 58.5639 48.391 58.2379 48.5637Z" fill="url(#paint0_linear_589_701)"/>
<path opacity="0.35" d="M58.2379 48.5637C57.3852 49.0078 56.5075 49.4026 55.6046 49.7233C52.7206 50.7842 49.6861 51.327 46.6014 51.327C34.7392 51.327 24.4068 43.3085 24.4068 32.9954C24.4318 30.1827 26.0118 27.5921 28.5197 26.2598C17.786 26.7039 15.0273 37.7078 15.0273 44.1473C15.0273 62.3803 32.1059 64.2308 35.7925 64.2308C37.7737 64.2308 40.7581 63.6633 42.5637 63.0958L42.8898 62.9971C49.8115 60.6532 55.6799 56.0642 59.5921 49.97C59.8931 49.5013 59.7426 48.9091 59.2912 48.6131C58.9652 48.4157 58.5639 48.391 58.2379 48.5637Z" fill="url(#paint1_radial_589_701)"/>
<path d="M27.125 61.3804C24.8966 59.9962 22.9687 58.1591 21.4414 56.0199C14.8566 46.96 16.8345 34.2509 25.848 27.6322C26.7995 26.9527 27.7759 26.3235 28.8275 25.8202C29.6037 25.4427 30.9307 24.7884 32.7083 24.8135C35.2371 24.8387 37.6157 26.0467 39.143 28.0852C40.1445 29.4441 40.7203 31.08 40.7454 32.7913C40.7454 32.741 46.8796 12.7588 20.7153 12.7588C9.72386 12.7588 0.685302 23.2532 0.685302 32.439C0.635227 37.2961 1.6868 42.128 3.71485 46.5322C10.6252 61.33 27.4504 68.578 42.8736 63.4189C37.5907 65.0798 31.832 64.35 27.125 61.3804Z" fill="url(#paint2_linear_589_701)"/>
<path opacity="0.41" d="M27.125 61.3804C24.8966 59.9962 22.9687 58.1591 21.4414 56.0199C14.8566 46.96 16.8345 34.2509 25.848 27.6322C26.7995 26.9527 27.7759 26.3235 28.8275 25.8202C29.6037 25.4427 30.9307 24.7884 32.7083 24.8135C35.2371 24.8387 37.6157 26.0467 39.143 28.0852C40.1445 29.4441 40.7203 31.08 40.7454 32.7913C40.7454 32.741 46.8796 12.7588 20.7153 12.7588C9.72386 12.7588 0.685302 23.2532 0.685302 32.439C0.635227 37.2961 1.6868 42.128 3.71485 46.5322C10.6252 61.33 27.4504 68.578 42.8736 63.4189C37.5907 65.0798 31.832 64.35 27.125 61.3804Z" fill="url(#paint3_radial_589_701)"/>
<path d="M38.834 38.5151C38.6336 38.7674 38.0074 39.1459 38.0074 39.9533C38.0074 40.6093 38.4332 41.2401 39.1847 41.77C42.7918 44.2931 49.5803 43.9651 49.6053 43.9651C52.2856 43.9651 54.8908 43.2334 57.1953 41.8709C61.9046 39.0954 64.8104 34.0239 64.8104 28.5234C64.8855 22.8715 62.8064 19.112 61.9798 17.4468C56.6693 6.97565 45.1966 0.945312 32.747 0.945312C15.2123 0.945312 0.934089 15.1254 0.683594 32.7875C0.808841 23.578 9.90182 16.1347 20.7232 16.1347C21.5999 16.1347 26.6098 16.2104 31.244 18.6831C35.3271 20.853 37.4813 23.4519 38.9593 26.0507C40.5123 28.7505 40.7879 32.1315 40.7879 33.494C40.7879 34.8313 40.1115 36.8498 38.834 38.5151Z" fill="url(#paint4_radial_589_701)"/>
<path d="M38.834 38.5151C38.6336 38.7674 38.0074 39.1459 38.0074 39.9533C38.0074 40.6093 38.4332 41.2401 39.1847 41.77C42.7918 44.2931 49.5803 43.9651 49.6053 43.9651C52.2856 43.9651 54.8908 43.2334 57.1953 41.8709C61.9046 39.0954 64.8104 34.0239 64.8104 28.5234C64.8855 22.8715 62.8064 19.112 61.9798 17.4468C56.6693 6.97565 45.1966 0.945312 32.747 0.945312C15.2123 0.945312 0.934089 15.1254 0.683594 32.7875C0.808841 23.578 9.90182 16.1347 20.7232 16.1347C21.5999 16.1347 26.6098 16.2104 31.244 18.6831C35.3271 20.853 37.4813 23.4519 38.9593 26.0507C40.5123 28.7505 40.7879 32.1315 40.7879 33.494C40.7879 34.8313 40.1115 36.8498 38.834 38.5151Z" fill="url(#paint5_radial_589_701)"/>
</g>
<defs>
<filter id="filter0_d_589_701" x="0.683594" y="0.945312" width="84.1287" height="84.1292" filterUnits="userSpaceOnUse" color-interpolation-filters="sRGB">
<feFlood flood-opacity="0" result="BackgroundImageFix"/>
<feColorMatrix in="SourceAlpha" type="matrix" values="0 0 0 0 0 0 0 0 0 0 0 0 0 0 0 0 0 0 127 0" result="hardAlpha"/>
<feOffset dx="10" dy="10"/>
<feGaussianBlur stdDeviation="5"/>
<feComposite in2="hardAlpha" operator="out"/>
<feColorMatrix type="matrix" values="0 0 0 0 0 0 0 0 0 0 0 0 0 0 0 0 0 0 0.02 0"/>
<feBlend mode="normal" in2="BackgroundImageFix" result="effect1_dropShadow_589_701"/>
<feBlend mode="normal" in="SourceGraphic" in2="effect1_dropShadow_589_701" result="shape"/>
</filter>
<linearGradient id="paint0_linear_589_701" x1="15.0283" y1="45.2379" x2="59.7394" y2="45.2379" gradientUnits="userSpaceOnUse">
<stop stop-color="#0C59A4"/>
<stop offset="1" stop-color="#114A8B"/>
</linearGradient>
<radialGradient id="paint1_radial_589_701" cx="0" cy="0" r="1" gradientUnits="userSpaceOnUse" gradientTransform="translate(39.7278 45.5873) scale(23.9176 22.3513)">
<stop offset="0.72" stop-opacity="0"/>
<stop offset="0.95" stop-opacity="0.53"/>
<stop offset="1"/>
</radialGradient>
<linearGradient id="paint2_linear_589_701" x1="38.9104" y1="25.7311" x2="10.8698" y2="56.1175" gradientUnits="userSpaceOnUse">
<stop stop-color="#1B9DE2"/>
<stop offset="0.16" stop-color="#1595DF"/>
<stop offset="0.67" stop-color="#0680D7"/>
<stop offset="1" stop-color="#0078D4"/>
</linearGradient>
<radialGradient id="paint3_radial_589_701" cx="0" cy="0" r="1" gradientUnits="userSpaceOnUse" gradientTransform="translate(18.3389 50.7122) rotate(-81.4261) scale(36.084 29.0153)">
<stop offset="0.76" stop-opacity="0"/>
<stop offset="0.95" stop-opacity="0.5"/>
<stop offset="1"/>
</radialGradient>
<radialGradient id="paint4_radial_589_701" cx="0" cy="0" r="1" gradientUnits="userSpaceOnUse" gradientTransform="translate(7.1593 12.9033) rotate(92.2746) scale(51.1063 108.079)">
<stop stop-color="#35C1F1"/>
<stop offset="0.11" stop-color="#34C1ED"/>
<stop offset="0.23" stop-color="#2FC2DF"/>
<stop offset="0.31" stop-color="#2BC3D2"/>
<stop offset="0.67" stop-color="#36C752"/>
</radialGradient>
<radialGradient id="paint5_radial_589_701" cx="0" cy="0" r="1" gradientUnits="userSpaceOnUse" gradientTransform="translate(60.8176 20.476) rotate(73.8478) scale(24.5418 19.8396)">
<stop stop-color="#66EB6E"/>
<stop offset="1" stop-color="#66EB6E" stop-opacity="0"/>
</radialGradient>
</defs>
</svg>
